<?xml version="1.0" standalone="no"?>
<!DOCTYPE svg PUBLIC "-//W3C//DTD SVG 20010904//EN"
 "http://www.w3.org/TR/2001/REC-SVG-20010904/DTD/svg10.dtd">
<svg version="1.0" xmlns="http://www.w3.org/2000/svg"
 width="1200.000000pt" height="1200.000000pt" viewBox="0 0 1200.000000 1200.000000"
 preserveAspectRatio="xMidYMid meet">
<metadata>
Created by potrace 1.14, written by Peter Selinger 2001-2017
</metadata>
<g transform="translate(0.000000,1200.000000) scale(0.100000,-0.100000)"
fill="#000000" stroke="none">
<path d="M4848 9805 c-2 -2 -98 -6 -213 -10 -116 -4 -248 -9 -295 -10 -47 -2
-131 -4 -187 -6 -92 -2 -101 -4 -91 -18 16 -22 100 -123 113 -137 5 -6 26 -30
45 -54 19 -24 49 -59 66 -79 86 -101 164 -192 209 -246 27 -33 52 -62 55 -65
3 -3 64 -75 135 -160 71 -85 134 -160 140 -166 5 -7 37 -44 70 -83 33 -39 64
-71 70 -71 5 -1 132 -3 280 -5 149 -2 290 -6 315 -8 103 -10 191 -19 217 -22
15 -2 53 -7 83 -10 30 -3 62 -8 70 -10 8 -2 35 -7 60 -10 25 -3 70 -10 100
-16 716 -138 1307 -376 1936 -780 l61 -39 129 46 c71 25 140 49 154 54 14 5
90 32 170 60 80 29 181 65 225 80 44 16 130 47 190 68 61 22 183 66 273 98
129 46 159 60 145 68 -10 5 -124 79 -253 164 -618 408 -689 453 -913 576 -132
72 -439 226 -452 226 -2 0 -28 11 -57 24 -368 167 -951 351 -1353 426 -33 6
-69 13 -80 15 -47 9 -264 44 -310 50 -27 3 -63 8 -80 10 -46 6 -123 14 -205
20 -41 4 -91 9 -110 12 -37 5 -707 13 -712 8z"/>
<path d="M2725 9209 c-44 -33 -89 -66 -100 -74 -100 -72 -322 -241 -356 -271
-201 -182 -311 -294 -387 -394 -15 -19 -30 -37 -33 -40 -3 -3 -33 -43 -67 -90
-34 -47 -70 -96 -80 -110 -30 -41 -126 -208 -176 -308 -72 -143 -162 -376
-191 -492 -34 -135 -45 -180 -49 -205 -3 -16 -8 -39 -10 -50 -5 -25 -23 -151
-33 -230 -10 -78 -10 -503 0 -580 4 -33 10 -80 13 -105 3 -25 7 -57 10 -72 3
-15 7 -39 9 -55 3 -23 20 -104 40 -193 7 -34 106 -438 115 -471 l10 -36 93 33
c131 47 388 138 552 196 77 28 165 59 195 70 30 11 60 21 65 22 6 2 17 6 25 9
8 4 60 22 115 42 55 20 103 39 107 43 4 4 0 34 -8 67 -8 33 -16 71 -19 85 -6
30 -9 44 -30 140 -52 243 -63 335 -60 525 3 189 6 224 36 363 54 248 180 514
338 712 115 144 208 231 464 436 119 96 217 177 217 180 0 4 -121 163 -204
266 -11 15 -129 166 -261 337 -132 171 -244 310 -250 310 -5 0 -46 -27 -90
-60z"/>
<path d="M3880 8972 c0 -5 24 -69 54 -143 165 -408 368 -911 501 -1239 61
-151 283 -699 335 -830 13 -30 29 -71 38 -90 17 -39 51 -127 58 -150 3 -10
-45 -47 -158 -120 -90 -57 -164 -108 -166 -112 -2 -5 -8 -8 -13 -8 -5 0 -80
-46 -166 -103 -237 -155 -407 -266 -518 -337 -55 -36 -105 -69 -112 -75 -7 -5
-62 -41 -123 -80 -61 -38 -179 -115 -263 -170 -84 -55 -215 -140 -292 -190
-77 -49 -142 -92 -145 -95 -3 -4 -12 -9 -20 -13 -8 -4 -118 -75 -245 -158
l-230 -151 125 7 c69 3 145 8 170 10 24 2 87 6 140 10 52 3 122 8 155 10 33 2
101 7 150 10 50 3 117 8 150 10 33 3 96 7 140 10 44 3 112 8 150 10 39 3 104
7 145 10 106 6 235 15 300 20 30 3 98 7 150 10 52 4 120 8 150 10 30 2 96 7
145 10 104 6 190 12 290 20 39 2 115 7 170 11 55 3 118 7 140 9 22 2 87 6 145
10 112 6 180 11 300 20 41 3 111 7 155 10 44 3 108 7 141 10 l62 5 105 -78
c57 -42 187 -138 287 -212 100 -74 230 -170 289 -213 135 -100 159 -117 190
-143 14 -11 60 -44 101 -74 41 -30 79 -58 85 -62 5 -5 73 -55 150 -112 146
-108 452 -334 495 -366 35 -26 297 -221 405 -300 50 -37 160 -118 245 -181
308 -229 350 -259 350 -255 0 3 -18 44 -41 93 -103 221 -108 232 -234 508 -43
94 -94 206 -115 250 -21 44 -47 103 -60 130 -42 94 -68 150 -98 215 -65 139
-112 242 -112 245 0 2 -20 45 -44 97 -24 51 -52 113 -64 138 -11 25 -39 86
-62 135 -23 50 -61 133 -85 185 -24 52 -57 125 -74 163 -17 37 -45 97 -62 135
-17 37 -67 146 -111 242 -95 205 -120 262 -116 265 2 1 91 73 198 161 107 87
203 166 214 174 10 8 23 20 30 25 10 9 142 117 189 155 10 8 28 22 38 32 11 9
39 31 61 50 46 37 392 320 423 347 11 9 146 119 300 245 154 126 300 245 324
265 55 46 129 114 115 107 -5 -2 -30 -7 -55 -10 -24 -3 -55 -8 -69 -11 -13 -2
-42 -7 -65 -10 -63 -9 -99 -15 -115 -20 -8 -2 -37 -6 -65 -10 -27 -3 -57 -8
-65 -10 -8 -3 -31 -6 -50 -9 -29 -4 -219 -34 -320 -51 -14 -2 -56 -9 -95 -15
-38 -6 -81 -13 -95 -15 -14 -2 -81 -13 -150 -25 -69 -11 -136 -22 -150 -25
-14 -2 -41 -6 -60 -9 -34 -4 -209 -32 -260 -41 -14 -3 -113 -18 -220 -35 -201
-32 -228 -36 -270 -44 -14 -3 -42 -8 -62 -11 -59 -8 -102 -15 -258 -40 -80
-13 -164 -27 -188 -30 -24 -3 -79 -13 -124 -20 -81 -15 -99 -12 -130 18 -11
11 -221 173 -407 315 -31 23 -63 48 -71 55 -9 6 -42 32 -75 57 -33 25 -62 47
-65 51 -3 3 -43 34 -90 69 -47 36 -92 70 -100 77 -19 16 -240 186 -340 261
-41 32 -82 62 -90 69 -8 7 -53 42 -100 78 -47 36 -92 71 -100 78 -8 7 -33 26
-55 42 -38 29 -214 164 -245 188 -8 7 -44 35 -80 62 -36 28 -67 52 -70 55 -3
3 -21 17 -40 30 -19 13 -37 27 -40 30 -3 4 -52 42 -110 86 -58 43 -107 81
-110 84 -4 5 -39 32 -125 97 -5 5 -40 32 -77 61 -38 29 -68 49 -68 44z"/>
<path d="M10169 7127 c-26 -12 -62 -28 -80 -36 -19 -7 -48 -19 -66 -27 -17 -8
-34 -14 -37 -14 -3 0 -29 -11 -58 -24 -29 -13 -138 -59 -243 -101 -357 -146
-480 -197 -486 -201 -6 -3 82 -216 156 -379 67 -147 136 -355 160 -480 3 -16
13 -66 21 -110 22 -113 27 -451 8 -570 -43 -272 -145 -533 -288 -740 -53 -76
-245 -312 -313 -385 -18 -19 -33 -38 -33 -41 0 -6 19 -30 130 -159 36 -42 83
-98 105 -125 35 -42 133 -158 199 -235 58 -67 333 -395 348 -414 l17 -21 18
20 c71 80 173 196 198 224 17 19 37 42 45 51 8 8 42 47 75 85 33 39 63 72 66
75 5 4 125 164 186 249 62 86 180 307 258 486 72 166 158 471 180 645 3 25 8
52 10 60 19 74 27 525 12 670 -15 143 -29 242 -43 300 -3 14 -8 39 -11 55 -2
17 -21 89 -40 160 -19 72 -36 137 -38 145 -7 29 -63 186 -95 265 -44 109 -58
141 -168 365 -53 107 -96 197 -97 200 -5 35 -33 36 -96 7z"/>
<path d="M3660 4461 c-8 -5 -89 -39 -180 -75 -91 -37 -174 -71 -185 -76 -40
-18 -265 -110 -270 -110 -3 0 -24 -9 -48 -19 -23 -11 -154 -65 -292 -121 -137
-56 -253 -105 -257 -109 -5 -4 16 -25 45 -46 28 -22 77 -59 107 -82 30 -24 60
-46 65 -51 6 -4 48 -36 95 -72 332 -253 471 -354 624 -455 96 -63 179 -115
184 -115 6 0 12 -4 14 -8 3 -7 42 -31 168 -100 25 -14 50 -28 55 -32 29 -23
414 -209 570 -275 511 -219 1088 -383 1600 -455 44 -6 91 -13 105 -15 14 -2
50 -6 80 -10 30 -3 71 -8 91 -11 182 -27 722 -38 1009 -20 74 4 137 9 140 11
3 2 39 6 79 10 41 4 83 8 93 10 10 2 53 7 96 10 42 3 84 7 92 10 8 2 42 6 75
10 33 3 78 8 100 11 58 6 96 11 223 24 62 7 114 15 116 19 3 3 -37 59 -87 123
-51 64 -135 171 -187 238 -52 67 -100 127 -105 133 -6 7 -24 30 -40 52 -17 22
-38 49 -47 60 -9 11 -87 110 -172 220 -237 304 -208 274 -269 270 -252 -16
-343 -20 -557 -20 -245 0 -375 7 -550 30 -114 14 -140 18 -240 35 -36 6 -74
13 -85 15 -16 3 -133 27 -195 40 -264 58 -635 178 -900 293 -379 164 -637 313
-1025 591 -102 73 -109 76 -135 62z"/>
</g>
</svg>
