<svg width="142" height="112" viewBox="0 0 142 112" fill="none" xmlns="http://www.w3.org/2000/svg">
<path d="M129.652 3.01163L129.067 1.63035L126.305 2.80008L126.889 4.18136L129.652 3.01163ZM0 102.5L15.0091 111.145L14.9909 93.8241L0 102.5ZM8.1751 103.965C9.51443 103.954 10.8422 103.939 12.1585 103.922L12.1187 100.922C10.8071 100.939 9.48392 100.954 8.1491 100.965L8.1751 103.965ZM18.3096 103.817C19.6601 103.789 20.9979 103.757 22.3231 103.722L22.2441 100.723C20.9244 100.758 19.592 100.789 18.2468 100.817L18.3096 103.817ZM28.4322 103.534C29.7914 103.487 31.1367 103.435 32.4681 103.38L32.3433 100.382C31.0185 100.437 29.6796 100.489 28.3266 100.536L28.4322 103.534ZM38.5508 103.095C39.9154 103.024 41.2647 102.948 42.5986 102.869L42.4197 99.8741C41.0935 99.9533 39.7519 100.028 38.3947 100.099L38.5508 103.095ZM48.6691 102.469C50.0346 102.37 51.3831 102.266 52.7147 102.158L52.4709 99.1675C51.1486 99.2753 49.8092 99.3783 48.4527 99.4764L48.6691 102.469ZM58.7839 101.617C60.1443 101.485 61.4859 101.348 62.8088 101.204L62.486 98.2219C61.1745 98.3638 59.844 98.5002 58.4945 98.631L58.7839 101.617ZM68.8817 100.49C70.2291 100.319 71.5556 100.14 72.8615 99.9556L72.441 96.9852C71.1494 97.168 69.8366 97.3444 68.5026 97.5144L68.8817 100.49ZM78.9337 99.0235C80.2868 98.7988 81.6158 98.5661 82.9206 98.3252L82.3762 95.3751C81.0895 95.6125 79.7783 95.8422 78.4422 96.0641L78.9337 99.0235ZM88.888 97.1314C90.2602 96.8342 91.603 96.5269 92.9169 96.2091L92.2117 93.2932C90.9221 93.605 89.6027 93.9071 88.253 94.1993L88.888 97.1314ZM98.839 94.6506C100.161 94.2724 101.449 93.882 102.705 93.479L101.788 90.6225C100.564 91.0153 99.3061 91.3966 98.0137 91.7663L98.839 94.6506ZM108.506 91.4387C109.829 90.9288 111.11 90.4021 112.349 89.858L111.143 87.1112C109.948 87.6358 108.71 88.1452 107.428 88.6393L108.506 91.4387ZM117.901 87.1542C119.149 86.4797 120.344 85.7826 121.489 85.0625L119.892 82.5231C118.806 83.2065 117.667 83.8705 116.474 84.5151L117.901 87.1542ZM126.558 81.4563C127.666 80.5615 128.711 79.6366 129.693 78.681L127.6 76.5313C126.688 77.4197 125.713 78.2832 124.674 79.122L126.558 81.4563ZM133.844 73.9637C134.692 72.8286 135.466 71.6583 136.169 70.4524L133.577 68.9418C132.932 70.0486 132.22 71.1241 131.44 72.1689L133.844 73.9637ZM138.866 64.7463C139.352 63.4435 139.767 62.1075 140.116 60.7382L137.208 59.9987C136.886 61.2669 136.502 62.5002 136.055 63.6994L138.866 64.7463ZM141.213 54.5524C141.357 53.198 141.447 51.8157 141.482 50.4054L138.483 50.3296C138.449 51.6632 138.365 52.9646 138.23 54.2346L141.213 54.5524ZM141.311 44.1702C141.208 42.8321 141.065 41.4709 140.881 40.0866L137.907 40.4811C138.084 41.8135 138.222 43.1194 138.32 44.3992L141.311 44.1702ZM139.848 33.9904C139.582 32.6845 139.284 31.3593 138.956 30.0146L136.041 30.7255C136.361 32.0353 136.65 33.3234 136.909 34.59L139.848 33.9904ZM137.354 24.0893C136.975 22.8056 136.571 21.5051 136.143 20.1877L133.289 21.1148C133.71 22.4078 134.105 23.6826 134.477 24.9392L137.354 24.0893ZM134.148 14.3996C133.69 13.1394 133.213 11.8644 132.716 10.5746L129.916 11.6537C130.407 12.9261 130.878 14.1828 131.328 15.4239L134.148 14.3996ZM130.452 4.92086C130.19 4.28784 129.923 3.65144 129.652 3.01163L126.889 4.18136C127.157 4.81436 127.421 5.44379 127.681 6.06966L130.452 4.92086Z" fill="#1FCE55"/>
<path d="M128.622 3.36295C128.622 4.62127 127.535 5.72591 126.086 5.72591C124.638 5.72591 123.55 4.62127 123.55 3.36295C123.55 2.10463 124.638 1 126.086 1C127.535 1 128.622 2.10463 128.622 3.36295Z" fill="white" stroke="#1FCE55" stroke-width="2"/>
</svg>
