<svg width="323" height="114" viewBox="0 0 323 114" fill="none" xmlns="http://www.w3.org/2000/svg">
<path d="M280.518 108L296.957 113.455L293.462 96.4907L280.518 108ZM4.5 5.5C5.18316 5.5 5.86516 5.50045 6.54602 5.50135L6.54998 2.50135C5.8678 2.50045 5.18447 2.5 4.5 2.5V5.5ZM12.6428 5.5215C13.9907 5.52864 15.334 5.53756 16.6728 5.54823L16.6967 2.54833C15.3553 2.53763 14.0093 2.5287 12.6587 2.52154L12.6428 5.5215ZM22.6663 5.60808C23.9913 5.62399 25.3118 5.64164 26.6276 5.66101L26.6718 2.66133C25.3532 2.64192 24.0301 2.62424 22.7023 2.6083L22.6663 5.60808ZM32.5659 5.76062C33.9304 5.78633 35.2899 5.81391 36.6444 5.84334L36.7095 2.84405C35.3522 2.81456 33.9898 2.78692 32.6224 2.76115L32.5659 5.76062ZM42.7057 5.98817C44.0451 6.02311 45.3795 6.05986 46.7089 6.09842L46.7959 3.09968C45.4635 3.06103 44.1262 3.0242 42.7839 2.98919L42.7057 5.98817ZM52.6574 6.28406C53.9718 6.328 55.2812 6.37372 56.5856 6.42119L56.6947 3.42318C55.3873 3.37559 54.075 3.32977 52.7576 3.28574L52.6574 6.28406ZM62.6755 6.65711C64.0284 6.7127 65.3758 6.77021 66.7178 6.82962L66.8504 3.83255C65.5053 3.77301 64.1548 3.71536 62.7987 3.65964L62.6755 6.65711ZM72.7193 7.10965C74.0447 7.17469 75.3646 7.2416 76.679 7.31035L76.8357 4.31444C75.5181 4.24552 74.1949 4.17845 72.8663 4.11325L72.7193 7.10965ZM82.5948 7.63427C83.9599 7.71239 85.3189 7.79253 86.6718 7.87464L86.8536 4.88015C85.4972 4.79783 84.1347 4.71749 82.7662 4.63917L82.5948 7.63427ZM92.7192 8.25748C94.054 8.3455 95.3827 8.43547 96.7054 8.52737L96.9133 5.53458C95.5871 5.44244 94.2549 5.35223 92.9166 5.26398L92.7192 8.25748ZM102.617 8.95385C103.946 9.05337 105.27 9.15485 106.587 9.25828L106.822 6.26749C105.501 6.16377 104.174 6.062 102.84 5.96221L102.617 8.95385ZM112.671 9.75345C114.012 9.86657 115.348 9.98172 116.676 10.0989L116.94 7.11048C115.607 6.99298 114.268 6.87749 112.923 6.76406L112.671 9.75345ZM122.609 10.6396C123.917 10.7627 125.219 10.8878 126.514 11.0149L126.807 8.0292C125.508 7.90177 124.202 7.77629 122.89 7.65278L122.609 10.6396ZM132.582 11.6295C133.928 11.7701 135.267 11.9128 136.597 12.0576L136.922 9.07519C135.587 8.92992 134.244 8.78674 132.894 8.6457L132.582 11.6295ZM142.536 12.7232C143.845 12.8743 145.146 13.0273 146.44 13.1824L146.797 10.2037C145.499 10.0481 144.193 9.89453 142.88 9.74302L142.536 12.7232ZM152.457 13.9248C153.803 14.0956 155.14 14.2686 156.469 14.4437L156.861 11.4694C155.527 11.2936 154.185 11.12 152.835 10.9487L152.457 13.9248ZM162.393 15.2463C163.697 15.4279 164.992 15.6115 166.28 15.7973L166.708 12.828C165.416 12.6416 164.115 12.4572 162.806 12.275L162.393 15.2463ZM172.286 16.6878C173.626 16.8918 174.956 17.0981 176.277 17.3066L176.745 14.3433C175.418 14.134 174.083 13.9269 172.738 13.722L172.286 16.6878ZM182.158 18.2597C183.451 18.4748 184.734 18.692 186.008 18.9113L186.517 15.9548C185.237 15.7345 183.948 15.5164 182.65 15.3004L182.158 18.2597ZM192.044 19.9782C193.369 20.2189 194.685 20.4618 195.989 20.707L196.543 17.7587C195.233 17.5123 193.911 17.2682 192.58 17.0265L192.044 19.9782ZM201.789 21.8255C203.117 22.0882 204.433 22.3532 205.738 22.6205L206.34 19.6815C205.029 19.4128 203.706 19.1465 202.372 18.8826L201.789 21.8255ZM211.675 23.8694C212.977 24.1504 214.266 24.4338 215.544 24.7194L216.198 21.7917C214.914 21.5044 213.617 21.2195 212.309 20.937L211.675 23.8694ZM221.357 26.0536C222.688 26.3673 224.005 26.6834 225.309 27.002L226.021 24.0877C224.709 23.7672 223.384 23.4491 222.045 23.1336L221.357 26.0536ZM231.083 28.4512C232.368 28.7822 233.638 29.1157 234.894 29.4513L235.668 26.553C234.404 26.2151 233.125 25.8794 231.832 25.5461L231.083 28.4512ZM240.773 31.0681C242.056 31.431 243.323 31.7963 244.575 32.1638L245.42 29.2854C244.159 28.915 242.882 28.547 241.59 28.1814L240.773 31.0681ZM250.302 33.8961C251.603 34.3014 252.886 34.7091 254.15 35.1192L255.076 32.2655C253.8 31.8518 252.506 31.4405 251.194 31.0318L250.302 33.8961ZM259.715 36.9797C261.022 37.4302 262.307 37.8833 263.571 38.3386L264.588 35.5162C263.311 35.0561 262.013 34.5985 260.693 34.1435L259.715 36.9797ZM269.15 40.4169C270.405 40.9004 271.636 41.3861 272.843 41.8739L273.967 39.0922C272.744 38.5983 271.498 38.1067 270.229 37.6176L269.15 40.4169ZM278.393 44.201C279.608 44.7305 280.797 45.262 281.958 45.7952L283.21 43.0687C282.03 42.5272 280.824 41.9877 279.591 41.4506L278.393 44.201ZM287.407 48.4073C288.595 49.0026 289.75 49.5995 290.872 50.1976L292.283 47.5502C291.138 46.9398 289.961 46.3314 288.751 45.7252L287.407 48.4073ZM296.105 53.1351C297.269 53.8251 298.391 54.5159 299.469 55.207L301.088 52.6812C299.979 51.9704 298.827 51.2612 297.634 50.554L296.105 53.1351ZM304.295 58.5099C305.419 59.3345 306.481 60.1579 307.482 60.979L309.384 58.6598C308.339 57.8022 307.234 56.9458 306.069 56.0911L304.295 58.5099ZM311.823 64.906C312.762 65.8518 313.617 66.7913 314.39 67.7229L316.699 65.8073C315.864 64.8018 314.949 63.7967 313.952 62.7928L311.823 64.906ZM317.656 72.4519C318.288 73.6029 318.788 74.7334 319.161 75.8409L322.004 74.8839C321.569 73.5931 320.995 72.3001 320.285 71.0077L317.656 72.4519ZM319.99 81.2337C319.946 82.4285 319.741 83.6028 319.377 84.7558L322.238 85.6588C322.682 84.252 322.933 82.812 322.988 81.3465L319.99 81.2337ZM316.808 89.6015C316.098 90.5364 315.266 91.4584 314.308 92.3637L316.368 94.5443C317.435 93.5366 318.379 92.4931 319.197 91.4153L316.808 89.6015ZM309.77 95.904C308.747 96.5748 307.646 97.2305 306.467 97.8696L307.896 100.507C309.144 99.8313 310.317 99.1328 311.415 98.4125L309.77 95.904ZM301.167 100.401C299.984 100.901 298.745 101.387 297.45 101.858L298.475 104.677C299.815 104.19 301.102 103.686 302.335 103.164L301.167 100.401ZM291.882 103.685C290.633 104.055 289.343 104.412 288.012 104.757L288.764 107.661C290.127 107.308 291.45 106.941 292.734 106.561L291.882 103.685Z" fill="#1FCE55"/>
<circle cx="4" cy="4" r="3" fill="white" stroke="#1FCE55" stroke-width="2"/>
</svg>
