<svg width="46" height="123" viewBox="0 0 46 123" fill="none" xmlns="http://www.w3.org/2000/svg">
<path d="M41 115.5L27.1986 105.035L25.0361 122.22L41 115.5ZM41 2C40.1935 2 39.371 2.19696 38.5644 2.51243L39.6571 5.30636C40.2294 5.08253 40.6728 5 41 5V2ZM33.2347 6.00782C32.2764 6.83728 31.2848 7.78382 30.2708 8.83359L32.4286 10.9178C33.391 9.92149 34.3178 9.03808 35.1981 8.2761L33.2347 6.00782ZM26.2876 13.3459C25.472 14.3458 24.6487 15.4005 23.8224 16.5047L26.2242 18.3021C27.0269 17.2295 27.8246 16.2079 28.6124 15.2421L26.2876 13.3459ZM20.3638 21.3953C19.6383 22.4787 18.9154 23.5954 18.1983 24.7419L20.7419 26.3326C21.4426 25.2122 22.1486 24.1217 22.8565 23.0646L20.3638 21.3953ZM15.141 29.8817C14.4941 31.0256 13.8564 32.1915 13.2306 33.3765L15.8833 34.7774C16.4956 33.6181 17.1195 32.4775 17.7524 31.3585L15.141 29.8817ZM10.555 38.7211C9.98864 39.9172 9.43715 41.1277 8.90298 42.3499L11.6519 43.5513C12.1737 42.3573 12.7127 41.1743 13.2664 40.0048L10.555 38.7211ZM6.63778 47.8867C6.16385 49.1306 5.7106 50.3827 5.28052 51.6406L8.11917 52.6112C8.5377 51.3871 8.97916 50.1675 9.4412 48.9548L6.63778 47.8867ZM3.50006 57.3661C3.14007 58.6552 2.80772 59.9467 2.50568 61.2379L5.42682 61.9212C5.71877 60.6732 6.04046 59.4229 6.38951 58.173L3.50006 57.3661ZM1.3428 67.1461C1.13216 68.4773 0.958322 69.8045 0.824355 71.1248L3.80903 71.4277C3.93708 70.1657 4.10356 68.8939 4.30593 67.615L1.3428 67.1461ZM0.500218 77.1787C0.496443 78.5393 0.542135 79.8879 0.641043 81.2209L3.63282 80.9989C3.53991 79.7468 3.49663 78.4751 3.50021 77.1871L0.500218 77.1787ZM1.49491 87.2763C1.7812 88.6175 2.13279 89.9357 2.55414 91.2263L5.40601 90.2953C5.01889 89.1095 4.6942 87.8933 4.42881 86.6501L1.49491 87.2763ZM4.96944 96.8953C5.61638 98.0988 6.34008 99.2663 7.14461 100.393L9.58622 98.6501C8.85688 97.6285 8.19998 96.569 7.61185 95.4749L4.96944 96.8953ZM11.1956 105.053C12.1671 105.978 13.2114 106.861 14.331 107.698L16.1279 105.296C15.1017 104.528 14.1483 103.722 13.2641 102.88L11.1956 105.053ZM19.5186 110.959C20.6873 111.574 21.9156 112.151 23.2053 112.688L24.358 109.918C23.1484 109.415 22.0019 108.876 20.9159 108.305L19.5186 110.959ZM28.9355 114.687C30.2004 115.051 31.5129 115.384 32.8744 115.684L33.5198 112.754C32.2182 112.468 30.9676 112.15 29.7666 111.804L28.9355 114.687Z" fill="#1FCE55"/>
<circle cx="41.4993" cy="4" r="3" fill="white" stroke="#1FCE55" stroke-width="2"/>
</svg>
