<svg width="49" height="46" viewBox="0 0 49 46" fill="none" xmlns="http://www.w3.org/2000/svg">
<path fill-rule="evenodd" clip-rule="evenodd" d="M36.5641 27.5311C36.1223 27.1898 35.7311 26.8969 35.6948 26.8802C35.6586 26.8635 35.822 27.0359 36.058 27.2632C36.4858 27.6754 36.4851 27.6749 35.7799 27.1046C35.391 26.7901 34.8061 26.3363 34.4801 26.0963C34.07 25.7943 34.2637 25.9659 35.1086 26.653C37.0394 28.2234 39.0179 29.841 39.2683 30.0538C39.408 30.1725 39.5007 30.2194 39.505 30.1736C39.5097 30.124 39.991 30.5025 40.9079 31.2767C41.8988 32.1132 42.2807 32.4613 42.2243 32.4765C42.1743 32.4899 42.1951 32.5331 42.2805 32.5932C42.3552 32.6457 42.4416 32.7317 42.4726 32.7845C42.5036 32.8372 42.8704 33.2078 43.2877 33.6079C43.705 34.0081 44.1208 34.4306 44.2115 34.5466C44.3024 34.6627 44.3916 34.74 44.4098 34.7184C44.4554 34.6644 44.3404 34.5135 43.6282 33.6926C43.5388 33.5897 43.3762 33.392 43.2667 33.2534C43.0308 32.9546 37.7638 28.4579 36.5641 27.5311ZM20.2486 13.8416C19.975 13.656 19.9804 13.6642 20.3387 13.9788C20.7161 14.31 20.849 14.3878 20.6451 14.158C20.587 14.0925 20.4086 13.9502 20.2486 13.8416ZM19.641 13.3686C19.5753 13.3271 19.2996 13.1293 19.0282 12.9289C18.7569 12.7285 18.5216 12.5803 18.5053 12.5995C18.4891 12.6188 18.5611 12.692 18.6654 12.7623C18.8108 12.8602 18.8265 12.8859 18.7325 12.8725C18.6394 12.8592 18.6687 12.9025 18.8547 13.0531C19.0778 13.2338 19.0879 13.2362 18.9696 13.0796L18.8398 12.908L19.0406 13.0678C19.1509 13.1557 19.2332 13.2535 19.2233 13.2851C19.2131 13.3177 19.4142 13.4925 19.6896 13.6904C20.2119 14.0658 20.2189 14.0404 19.7115 13.6103C19.5355 13.461 19.4604 13.3792 19.5447 13.4285C19.6894 13.5131 19.9415 13.5613 19.8166 13.4804C19.7857 13.4604 19.7066 13.4101 19.641 13.3686ZM38.0614 28.9335C37.8711 28.7887 37.5584 28.5248 37.3665 28.3471C37.1746 28.1694 37.3303 28.2878 37.7125 28.6104C38.0947 28.9329 38.2517 29.0783 38.0614 28.9335ZM38.8105 29.5596C38.7626 29.5419 38.7025 29.4911 38.6769 29.4468C38.6513 29.4027 38.6904 29.4173 38.7639 29.4793C38.8374 29.5413 38.8583 29.5775 38.8105 29.5596ZM42.832 33.0364C42.7841 33.0186 42.724 32.9678 42.6984 32.9236C42.6728 32.8794 42.7119 32.894 42.7854 32.956C42.8589 33.0181 42.8799 33.0543 42.832 33.0364ZM43.2074 33.3528C43.1602 33.3353 43.0874 33.2752 43.0456 33.2192C43.0037 33.1632 43.0423 33.1776 43.1313 33.2511C43.2203 33.3246 43.2545 33.3703 43.2074 33.3528ZM20.2914 14.089C20.3327 14.1444 20.4169 14.2155 20.4785 14.2469C20.5399 14.2784 20.5061 14.2331 20.4033 14.1463C20.3004 14.0594 20.2501 14.0337 20.2914 14.089ZM20.8002 14.5164C20.8258 14.5606 20.8859 14.6114 20.9338 14.6292C20.9817 14.6471 20.9607 14.6109 20.8872 14.5488C20.8137 14.4868 20.7746 14.4722 20.8002 14.5164ZM10.5026 5.9566C10.4686 5.96574 10.1765 5.74262 9.85349 5.46075C9.2674 4.9494 8.16757 4.14058 7.94057 4.05404C7.86462 4.02507 7.78785 4.0556 7.73085 4.13742C7.63387 4.27668 7.63827 4.28828 7.90132 4.58636C8.11658 4.83035 8.07152 4.92395 7.84061 4.71248C7.68687 4.57169 7.66488 4.57086 7.57792 4.70247C7.49482 4.82822 7.4644 4.83053 7.33342 4.72101C7.14573 4.56417 7.04424 4.55081 6.92104 4.66679C6.84093 4.74227 6.85645 4.79426 7.01073 4.96715C7.2604 5.24703 7.1896 5.29977 6.86403 5.07639C6.60685 4.89994 6.16755 4.8221 6.15548 4.95088C6.15244 4.98289 6.06586 4.96227 5.96307 4.90502C5.80153 4.815 5.77878 4.81874 5.79517 4.93258C5.8056 5.00501 5.84566 5.09146 5.88419 5.12465C5.93694 5.17016 5.9258 5.17955 5.83886 5.16294C5.75809 5.14747 5.80577 5.21775 5.99828 5.39794C6.26963 5.65193 6.27142 5.65686 6.14741 5.81349C6.07843 5.90073 6.00392 5.95677 5.98191 5.93818C5.95989 5.91959 5.90573 5.94709 5.86161 5.99934C5.80218 6.06974 5.74195 6.06388 5.62898 5.97672C5.49611 5.87421 5.48992 5.87493 5.58067 5.98255C5.7133 6.13977 5.88598 6.50694 5.7892 6.42588C5.7483 6.39159 5.70423 6.4054 5.68849 6.45744C5.64693 6.59492 5.49523 6.55992 5.09492 6.32055C4.73678 6.10636 4.5606 6.03996 4.73007 6.18304C4.77908 6.22442 4.79209 6.29032 4.759 6.32951C4.7122 6.38494 4.62761 6.34061 4.37819 6.13003C4.03242 5.8381 3.84829 5.83804 4.17228 6.12997C4.29295 6.23869 4.31482 6.27481 4.22958 6.22473C4.15388 6.18017 4.07641 6.1622 4.05736 6.18477C4.03831 6.20733 3.96273 6.19851 3.8894 6.16524C3.81611 6.13192 3.75331 6.13496 3.74984 6.17181C3.74638 6.20876 3.64742 6.1925 3.52996 6.13571C3.34539 6.04651 3.3702 6.07926 3.71233 6.37658C4.11892 6.72995 4.09198 6.79288 3.64861 6.52546C3.45207 6.40686 3.41764 6.40481 3.42302 6.51195C3.4281 6.61371 3.44847 6.63392 3.52722 6.61546C3.60328 6.59758 3.62532 6.6284 3.6263 6.75387C3.6275 6.90174 3.61412 6.91054 3.46681 6.8594C3.32923 6.81158 3.34531 6.84306 3.57802 7.07777C3.82208 7.32386 3.83331 7.34807 3.68756 7.31394C3.59827 7.29307 3.40794 7.20137 3.26463 7.11014C2.81918 6.82665 2.74835 6.86382 3.12077 7.18566L3.46482 7.48289L2.88234 7.25122L2.29986 7.01955L2.54703 7.26891L2.79419 7.51826L2.42504 7.31668C2.16708 7.17585 2.06767 7.14668 2.09491 7.21979C2.1164 7.2774 2.18051 7.36691 2.23741 7.41878C2.34014 7.51243 2.3399 7.51271 2.20388 7.46044C2.10453 7.42221 2.15254 7.49935 2.37868 7.7413C2.66119 8.04344 2.66903 8.05942 2.46232 7.91133C2.33685 7.82142 2.19449 7.74858 2.14596 7.74935C2.0913 7.75023 2.29926 7.95713 2.69325 8.29376C3.18402 8.71309 3.28608 8.81935 3.14149 8.76032C3.03292 8.71609 2.92422 8.71951 2.88283 8.76853C2.82492 8.83712 2.70375 8.79112 2.24255 8.5254C1.92972 8.34516 1.71249 8.24369 1.75982 8.29984C1.82868 8.38157 1.82387 8.39777 1.73582 8.38096C1.65492 8.36554 1.66086 8.39016 1.75822 8.47423C1.83102 8.53708 1.90916 8.63828 1.93192 8.69915C1.97788 8.82208 1.94502 8.81492 1.61406 8.6298C1.52379 8.57929 1.41133 8.55724 1.36407 8.5808C1.29213 8.61656 1.37822 8.70194 1.89436 9.1063C2.3497 9.46308 2.47809 9.58499 2.38634 9.57342C2.28163 9.56028 2.27996 9.57083 2.37544 9.64054C2.56479 9.7786 2.59108 9.82683 2.46525 9.80521C2.38371 9.79121 2.45709 9.86032 2.69468 10.0214C3.12963 10.3161 3.10961 10.2984 3.95152 11.1348C4.46746 11.6474 5.27324 12.3403 7.05406 13.8027C8.53229 15.0166 9.89658 16.1802 10.5931 16.821C12.8884 18.933 13.1193 19.1401 13.1116 19.0801C13.1074 19.0464 12.8647 18.7971 12.5724 18.5261C12.2801 18.2552 12.0342 17.995 12.026 17.9482C12.0054 17.8313 16.6035 21.7212 18.1762 23.1511C19.0783 23.9713 26.0537 29.9753 28.5018 32.0387C29.048 32.499 31.4792 34.4489 31.602 34.525C31.7034 34.5878 31.7416 34.637 31.6982 34.6486C31.6586 34.6593 31.6502 34.6883 31.6796 34.7131C31.709 34.7379 31.7659 34.7494 31.8062 34.7386C31.902 34.7128 32.0986 34.8801 32.0459 34.9425C32.0006 34.9962 33.2604 36.0653 34.2257 36.7923C34.6677 37.1252 34.8003 37.249 34.7816 37.3111C34.768 37.3559 34.7918 37.4221 34.8345 37.4581C34.8772 37.4942 34.9153 37.4897 34.9192 37.4482C34.9231 37.4068 34.9729 37.4059 35.0298 37.4464C35.0868 37.4868 35.1734 37.5456 35.2225 37.577C35.2714 37.6084 35.446 37.7432 35.6103 37.8765C35.7924 38.0242 35.8948 38.0803 35.8724 38.0202C35.8361 37.9225 36.2459 38.2062 37.3635 39.0526C37.9254 39.4781 38.2346 39.6055 37.8354 39.2472C37.708 39.1328 37.5839 39.0139 37.5596 38.983C37.5354 38.9521 37.2916 38.7285 37.0179 38.4862L36.5203 38.0455L36.8989 38.3019C37.1071 38.4428 37.5196 38.7511 37.8154 38.987C38.1112 39.2228 38.3787 39.4089 38.4098 39.4006C38.4409 39.3923 38.5145 39.426 38.5733 39.4757C38.6321 39.5253 38.6829 39.5364 38.6863 39.5004C38.6897 39.4639 38.5762 39.3665 38.4311 39.2813C38.138 39.1093 37.8848 38.9144 37.952 38.9127C38.0421 38.9104 39.2925 39.6757 39.3471 39.7665C39.379 39.8195 39.445 39.8402 39.4982 39.8137C39.5652 39.7804 39.6763 39.8336 39.8813 39.9973L40.1701 40.2278L39.8998 39.9516C39.6872 39.7343 39.6654 39.6953 39.7974 39.7686C39.8897 39.8198 40.0674 39.9752 40.1924 40.1139C40.3173 40.2525 40.4287 40.3663 40.4398 40.3667C40.451 40.367 40.4628 40.2863 40.4662 40.1874C40.4702 40.0683 40.4408 40.0083 40.3793 40.0099C40.3176 40.0115 40.2438 39.9477 40.1604 39.8209C39.9364 39.4804 40.0004 39.5003 40.4528 39.912C40.7685 40.1991 40.8991 40.2917 40.9047 40.2324C40.9095 40.181 40.9614 40.1873 41.0395 40.2488C41.1526 40.3378 40.7075 39.7995 40.3288 39.3893C40.25 39.3039 40.3688 39.3827 40.5928 39.5645C40.8169 39.7463 41.0539 39.9048 41.1193 39.9167C41.2181 39.9347 41.2204 39.9227 41.1327 39.8467C41.0746 39.7962 41.01 39.7019 40.9893 39.6371C40.9616 39.5509 41.0128 39.5849 41.1798 39.7635C41.4783 40.0828 41.5834 40.1005 41.5526 39.8265C41.539 39.7052 41.5572 39.6355 41.5944 39.6669C41.6306 39.6975 41.6634 39.6886 41.6673 39.6471C41.6712 39.6057 41.5739 39.4863 41.451 39.3819C41.3282 39.2775 41.2104 39.1393 41.1894 39.0748C41.1618 38.9905 41.2223 39.0327 41.4054 39.2255C41.6643 39.4981 41.8257 39.526 41.6451 39.2669C41.5542 39.1367 41.5554 39.1345 41.6973 39.178C41.8125 39.2134 41.8 39.1937 41.6374 39.0834C41.403 38.9245 41.2636 38.6313 41.4585 38.7075C41.5195 38.7314 41.6126 38.7873 41.6654 38.8319C41.7182 38.8764 41.8183 38.9061 41.888 38.8978C41.9875 38.886 42.0006 38.8708 41.949 38.8273C41.9125 38.7965 41.9238 38.7516 41.9743 38.7265C42.0326 38.6974 42.0333 38.6523 41.9761 38.6004C41.9023 38.5332 41.9109 38.5282 42.0268 38.5708C42.1567 38.6184 42.1591 38.6094 42.0607 38.4423C42.0024 38.3435 41.9202 38.2334 41.8781 38.1978C41.8359 38.1622 41.8194 38.1117 41.8415 38.0856C41.8635 38.0595 42.0216 38.1527 42.1928 38.2929L42.504 38.5478L42.3653 38.3055C42.2149 38.0428 42.2543 37.9162 42.4689 37.9726C42.5435 37.9923 42.8864 38.2204 43.2309 38.4795C43.5754 38.7387 43.8712 38.9342 43.8883 38.9139C43.9054 38.8937 43.8713 38.7998 43.8127 38.7053C43.7233 38.5616 43.7697 38.5863 44.0966 38.8569C44.3183 39.0404 44.5046 39.1598 44.5273 39.1328C44.5494 39.1067 44.5179 39.0435 44.4574 38.9924C44.3969 38.9413 44.3788 38.8911 44.4173 38.8808C44.4557 38.8704 44.5124 38.9039 44.5431 38.955C44.5738 39.0061 44.6159 39.0279 44.6366 39.0034C44.6573 38.9788 44.5801 38.8385 44.4651 38.6915C44.2876 38.4646 44.3751 38.5288 45.0448 39.1162L45.8337 39.8081L45.2123 39.1347C44.1248 37.9564 44.1433 37.9787 44.3292 38.0664C44.4806 38.1379 44.4844 38.1359 44.3798 38.04C44.2224 37.8959 44.2502 37.779 44.4183 37.878C44.4954 37.9233 44.4605 37.8732 44.3396 37.765C44.2202 37.658 44.1322 37.5427 44.1441 37.5086C44.1561 37.4746 43.904 37.1958 43.584 36.8891C43.0141 36.3428 43.0079 36.3341 43.277 36.4634C43.4523 36.5478 43.8418 36.847 44.3527 37.2898C45.0921 37.9308 45.1655 37.9819 45.3073 37.9559C45.4423 37.931 45.5428 37.9936 46.14 38.474C46.6815 38.9097 46.8307 39.0068 46.876 38.9531C46.9073 38.916 46.912 38.8681 46.8864 38.8465C46.8113 38.7831 46.0201 37.8699 45.9415 37.756C45.7929 37.5403 45.9552 37.5718 46.2562 37.8169C46.5649 38.0682 46.5662 38.0685 46.3875 37.8511C46.2882 37.7302 46.017 37.4661 45.7847 37.2641C45.3711 36.9044 44.8577 36.3603 45.0359 36.4705C45.2056 36.5754 44.7098 36.0445 44.3444 35.7299C44.0258 35.4557 43.9763 35.3873 43.9558 35.1924L43.9322 34.9691L44.1604 35.1545L44.3886 35.3398L44.2453 35.1388C44.1664 35.0283 44.0493 34.911 43.9849 34.8781C43.9205 34.8451 43.8829 34.8004 43.9012 34.7786C43.9196 34.7569 43.9008 34.6937 43.8595 34.6383C43.8182 34.583 43.8969 34.6239 44.0345 34.7293L44.2846 34.9209L44.0745 34.6818C43.3878 33.9005 37.8527 29.116 35.9779 27.6833C35.4424 27.274 34.7593 26.7332 34.46 26.4815C34.0757 26.1586 33.8929 26.0347 33.8384 26.0605C33.7802 26.0879 33.7617 26.074 33.7634 26.0039C33.7653 25.9252 32.701 24.9343 32.5684 24.8911C32.4388 24.849 18.365 12.9577 17.4488 12.1162C16.8391 11.5562 16.1429 10.9172 15.9016 10.696C15.6604 10.4749 14.9332 9.8276 14.2856 9.25766C13.638 8.68764 12.8771 8.00323 12.5947 7.73678C11.778 6.96626 10.5702 5.93847 10.5026 5.9566ZM37.6505 28.8261C37.6775 28.8724 37.725 28.9096 37.7561 28.9088C37.7872 28.908 37.7651 28.8702 37.707 28.8247C37.6429 28.7744 37.6207 28.775 37.6505 28.8261ZM36.1675 27.6553C36.1944 27.7016 36.242 27.7388 36.273 27.738C36.3041 27.7372 36.282 27.6994 36.224 27.6539C36.1598 27.6036 36.1376 27.6042 36.1675 27.6553ZM36.595 28.0163C36.622 28.0626 36.6695 28.0998 36.7006 28.099C36.7316 28.0982 36.7096 28.0604 36.6515 28.0149C36.5873 27.9646 36.5652 27.9651 36.595 28.0163ZM19.3554 13.6256C19.412 13.6927 19.5202 13.784 19.5959 13.8286C19.6716 13.8731 19.6253 13.8181 19.493 13.7065C19.3608 13.5948 19.2988 13.5583 19.3554 13.6256ZM30.0202 22.9511C29.973 22.9336 29.9002 22.8735 29.8583 22.8175C29.8165 22.7616 29.8551 22.7759 29.9441 22.8494C30.0331 22.9229 30.0673 22.9687 30.0202 22.9511ZM43.7282 34.5205C43.6971 34.5213 43.6496 34.4841 43.6226 34.4378C43.5928 34.3867 43.6149 34.3861 43.6791 34.4364C43.7372 34.4819 43.7592 34.5198 43.7282 34.5205ZM35.6931 27.8811C35.6977 27.9127 35.509 27.7802 35.2738 27.5867C35.0385 27.3932 34.2237 26.728 33.463 26.1084C32.7022 25.4889 30.026 23.2762 27.5159 21.1914C25.0057 19.1067 22.8085 17.3048 22.6332 17.1873C22.3112 16.9713 21.9905 16.636 22.1036 16.6332C22.1686 16.6316 22.682 17.0499 25.5328 19.4278C26.6209 20.3353 27.3337 20.8997 27.357 20.8721C27.378 20.8472 27.4193 20.867 27.4487 20.916C27.5301 21.0514 29.3154 22.5474 30.6435 23.5931C31.942 24.6154 35.6799 27.7896 35.6931 27.8811ZM37.1243 29.0179C37.057 29.0196 36.1375 28.2503 36.128 28.1844C36.1236 28.1541 36.3566 28.329 36.6456 28.573C36.9346 28.817 37.1501 29.0172 37.1243 29.0179ZM37.3284 29.1986C37.2973 29.1994 37.2498 29.1621 37.2228 29.1159C37.193 29.0647 37.2151 29.0642 37.2793 29.1144C37.3374 29.16 37.3594 29.1978 37.3284 29.1986ZM33.2243 25.8232C33.2812 25.8907 33.3777 25.9715 33.4388 26.0028C33.4999 26.034 33.4534 25.9788 33.3354 25.88C33.2174 25.7813 33.1674 25.7557 33.2243 25.8232ZM40.5219 31.9881C40.5189 32.0191 40.1841 31.7639 39.7779 31.421C39.3718 31.0781 39.035 30.7662 39.0294 30.728C39.0239 30.6898 39.3586 30.9449 39.7733 31.295C40.188 31.6452 40.5248 31.957 40.5219 31.9881ZM40.7874 32.2326C40.5943 32.1651 40.5532 32.1304 40.6003 32.0747C40.6224 32.0485 40.7053 32.0845 40.7846 32.1546C40.9123 32.2675 40.9126 32.2763 40.7874 32.2326ZM30.9967 24.0219C31.0236 24.0682 31.0712 24.1054 31.1023 24.1046C31.1333 24.1038 31.1112 24.066 31.0532 24.0205C30.989 23.9702 30.9668 23.9707 30.9967 24.0219ZM31.3133 24.2926C31.4004 24.3842 31.5448 24.5059 31.6343 24.5629C31.7238 24.6198 31.6525 24.5448 31.4759 24.3962C31.2993 24.2475 31.2262 24.2009 31.3133 24.2926ZM20.4315 15.2951C20.3752 15.2838 20.3174 15.2441 20.3032 15.2071C20.2889 15.1701 20.3234 15.149 20.3796 15.1603C20.436 15.1717 20.4937 15.2113 20.508 15.2483C20.5222 15.2854 20.4878 15.3064 20.4315 15.2951ZM21.4323 16.0716C21.4151 16.0921 21.2287 15.9591 21.0182 15.776C20.7342 15.5291 20.6845 15.469 20.8258 15.5432C21.0693 15.671 21.4733 16.023 21.4323 16.0716ZM21.9945 16.4899C21.9517 16.5407 21.6044 16.3666 21.5493 16.2668C21.5042 16.1851 21.5267 16.1794 21.6563 16.24C21.8569 16.3335 22.023 16.4562 21.9945 16.4899ZM20.1943 15.0947C20.1564 15.1048 19.9407 14.9567 19.7149 14.7654C19.4892 14.5741 19.3459 14.4257 19.3964 14.4355C19.5365 14.4627 20.2752 15.0729 20.1943 15.0947ZM37.3016 29.5057C37.2545 29.4881 37.1816 29.428 37.1398 29.3721C37.098 29.3161 37.1366 29.3304 37.2256 29.4039C37.3146 29.4774 37.3488 29.5232 37.3016 29.5057ZM40.9995 32.7132C40.9238 32.6687 40.8156 32.5773 40.759 32.5101C40.7025 32.443 40.7644 32.4794 40.8966 32.5911C41.0289 32.7027 41.0752 32.7577 40.9995 32.7132ZM7.31845 5.35804C7.29639 5.38416 7.26777 5.3966 7.25478 5.38564C7.24179 5.37467 7.2344 5.33182 7.23829 5.29035C7.24218 5.24889 7.27086 5.23649 7.30196 5.26275C7.33306 5.28901 7.34051 5.33191 7.31845 5.35804ZM4.39434 5.87379C4.42128 5.92005 4.46885 5.95728 4.4999 5.95649C4.53096 5.9557 4.5089 5.91787 4.45084 5.87235C4.38666 5.82207 4.36449 5.82263 4.39434 5.87379ZM41.7091 38.7552C41.678 38.756 41.6304 38.7187 41.6035 38.6725C41.5736 38.6213 41.5958 38.6207 41.66 38.671C41.718 38.7166 41.7401 38.7544 41.7091 38.7552ZM4.05717 7.16078C4.03511 7.1869 3.99157 7.18675 3.96047 7.16049C3.92937 7.13423 3.93678 7.10388 3.97701 7.09309C4.01723 7.08231 4.06072 7.08241 4.07371 7.09338C4.08669 7.10434 4.07923 7.13465 4.05717 7.16078ZM19.3543 21.302C19.342 21.4332 19.2617 21.3955 19.2547 21.2551C19.2506 21.1743 19.2696 21.1436 19.3051 21.1736C19.3363 21.1999 19.3585 21.2578 19.3543 21.302ZM22.6445 24.2802C22.691 24.2895 22.7319 24.2656 22.7355 24.227C22.7393 24.1867 22.878 24.2715 23.0615 24.4265C23.2459 24.5822 23.3705 24.7251 23.3564 24.7648C23.3429 24.8026 23.4353 24.9402 23.5617 25.0706C23.8765 25.3955 23.7364 25.4024 23.3901 25.079C23.1817 24.8845 23.0965 24.8342 23.0562 24.8819C22.9881 24.9625 22.7892 24.8014 22.8204 24.6908C22.8339 24.6432 22.8114 24.6433 22.7669 24.691C22.7247 24.7363 22.6795 24.7459 22.6665 24.7122C22.6536 24.6785 22.5677 24.6588 22.4757 24.6683C22.2793 24.6886 22.012 24.4923 22.0977 24.3908C22.1416 24.3388 22.1033 24.2901 21.9375 24.1866C21.7665 24.0799 21.7374 24.041 21.8021 24.0062C21.8475 23.9817 21.917 23.9927 21.9564 24.0306C21.9959 24.0685 22.0874 24.0959 22.1599 24.0917C22.2743 24.0848 22.2642 24.068 22.0827 23.9633C21.9679 23.897 21.8254 23.8189 21.7662 23.7897C21.7069 23.7606 21.6615 23.7045 21.6651 23.6653C21.6688 23.626 21.806 23.6817 21.9699 23.7891C22.1339 23.8964 22.3203 23.9805 22.3843 23.9761C22.4795 23.9695 22.5058 23.9946 22.5303 24.1156C22.5467 24.1968 22.5981 24.2708 22.6445 24.2802ZM30.2282 30.5902C30.1953 30.6292 29.8519 30.3728 29.8575 30.3134C29.8607 30.2789 29.949 30.3229 30.0536 30.4112C30.1582 30.4995 30.2368 30.5801 30.2282 30.5902ZM20.228 22.6369C20.0923 22.7045 20.0699 22.5945 20.1957 22.4782C20.3522 22.3335 20.3546 22.3332 20.3386 22.4663C20.3304 22.5339 20.2806 22.6106 20.228 22.6369ZM24.166 25.6565C24.1189 25.639 24.046 25.5788 24.0042 25.5229C23.9624 25.4669 24.001 25.4813 24.09 25.5548C24.179 25.6283 24.2132 25.674 24.166 25.6565ZM25.9529 27.1972C25.5644 26.9621 24.3474 25.9316 24.2982 25.7961C24.2708 25.7206 24.5884 25.9652 25.2412 26.5223C25.9144 27.0968 26.1393 27.3101 25.9529 27.1972ZM27.0752 28.1176C26.9852 28.0602 26.853 27.9486 26.7813 27.8694C26.7096 27.7903 26.7833 27.8373 26.945 27.9738C27.1066 28.1103 27.1653 28.175 27.0752 28.1176ZM27.5851 28.5437C27.5373 28.5259 27.4771 28.4751 27.4515 28.4309C27.4259 28.3867 27.465 28.4013 27.5385 28.4634C27.612 28.5254 27.633 28.5616 27.5851 28.5437ZM28.1195 28.9949C28.0717 28.9771 28.0116 28.9264 27.9859 28.8821C27.9603 28.8379 27.9995 28.8525 28.073 28.9146C28.1464 28.9766 28.1674 29.0128 28.1195 28.9949ZM18.9877 21.3523C18.9294 21.4214 18.6078 21.3981 18.5157 21.3181C18.4128 21.2285 18.4163 21.2254 18.6075 21.2376L18.8062 21.2502L18.5925 21.0385C18.4048 20.8525 18.4171 20.8573 18.693 21.0779C18.8659 21.216 18.9985 21.3395 18.9877 21.3523ZM19.2359 21.5711C19.2048 21.5719 19.1572 21.5347 19.1303 21.4884C19.1004 21.4372 19.1226 21.4367 19.1868 21.487C19.2449 21.5325 19.2669 21.5703 19.2359 21.5711ZM22.4945 24.3545C22.4724 24.3807 22.4799 24.4236 22.511 24.4498C22.5421 24.4761 22.5708 24.4637 22.5746 24.4222C22.5785 24.3808 22.5711 24.3379 22.5581 24.3269C22.5452 24.316 22.5165 24.3284 22.4945 24.3545ZM39.2235 38.4465C39.1924 38.4473 39.1448 38.4101 39.1179 38.3638C39.088 38.3127 39.1102 38.3121 39.1744 38.3624C39.2325 38.4079 39.2545 38.4458 39.2235 38.4465ZM39.6231 38.7887C39.5752 38.7709 39.5151 38.7201 39.4895 38.6759C39.4639 38.6317 39.503 38.6463 39.5765 38.7083C39.65 38.7704 39.671 38.8065 39.6231 38.7887ZM16.6305 19.4528C16.5994 19.4536 16.5519 19.4163 16.5249 19.3701C16.4951 19.3189 16.5173 19.3183 16.5814 19.3686C16.6395 19.4141 16.6616 19.452 16.6305 19.4528ZM18.1057 20.7458C18.0679 20.767 17.9971 20.7668 17.9483 20.7454C17.8985 20.7236 17.8935 20.6976 17.9371 20.6859C17.9805 20.6742 17.9691 20.6112 17.9109 20.5422C17.8371 20.4547 17.8602 20.4608 17.9909 20.5633C18.1107 20.6572 18.1506 20.7206 18.1057 20.7458ZM19.7688 22.216C19.7034 22.2541 19.679 22.3029 19.7118 22.3306C19.7432 22.3571 19.7538 22.3965 19.7354 22.4183C19.6833 22.48 19.4909 22.267 19.5011 22.1588C19.5081 22.084 19.4738 22.0526 19.3493 22.0199C19.2608 21.9966 19.1744 21.9413 19.1574 21.897C19.123 21.8076 19.6229 21.9472 19.7826 22.0715C19.8585 22.1306 19.8552 22.1658 19.7688 22.216ZM29.9096 30.6965C29.9058 30.738 29.8771 30.7504 29.846 30.7241C29.8149 30.6978 29.8074 30.6549 29.8295 30.6288C29.8515 30.6027 29.8802 30.5902 29.8931 30.6012C29.9061 30.6122 29.9135 30.655 29.9096 30.6965ZM30.4398 31.0986C30.43 31.1101 30.3869 31.1124 30.3438 31.1038C30.3008 31.0951 30.2848 31.0654 30.3081 31.0377C30.3314 31.0101 30.3746 31.0077 30.404 31.0325C30.4334 31.0573 30.4495 31.0871 30.4398 31.0986ZM38.2482 37.7087C38.201 37.6912 38.1282 37.6311 38.0864 37.5751C38.0445 37.5191 38.0831 37.5335 38.1721 37.607C38.2611 37.6805 38.2953 37.7262 38.2482 37.7087ZM38.542 37.9526C38.511 37.9534 38.4634 37.9161 38.4365 37.8699C38.4066 37.8187 38.4288 37.8182 38.493 37.8685C38.551 37.914 38.5731 37.9518 38.542 37.9526ZM17.3639 20.1856C17.36 20.227 17.3314 20.2394 17.3003 20.2132C17.2691 20.1869 17.2617 20.144 17.2838 20.1179C17.3058 20.0918 17.3344 20.0793 17.3474 20.0903C17.3604 20.1012 17.3678 20.1441 17.3639 20.1856ZM23.6983 25.5014C23.6672 25.5022 23.6197 25.465 23.5927 25.4187C23.5629 25.3676 23.585 25.367 23.6492 25.4173C23.7073 25.4628 23.7294 25.5006 23.6983 25.5014ZM23.9655 25.727C23.9344 25.7278 23.8869 25.6906 23.8599 25.6443C23.8301 25.5932 23.8523 25.5926 23.9164 25.6429C23.9745 25.6884 23.9966 25.7262 23.9655 25.727ZM24.425 26.1879C24.392 26.2271 24.3889 26.2795 24.4183 26.3043C24.4477 26.3291 24.4943 26.3227 24.5218 26.2899C24.5589 26.2458 24.6858 26.3336 25.0139 26.6301C25.2813 26.8718 25.4281 27.0372 25.3853 27.0487C25.3464 27.0591 25.2823 27.0198 25.2428 26.9614C25.2033 26.903 25.0738 26.8287 24.9552 26.7962C24.7642 26.7439 24.7443 26.7273 24.7821 26.6516C24.8297 26.5559 24.6122 26.3415 24.4985 26.372C24.4192 26.3933 24.1872 26.2209 24.1743 26.131C24.1613 26.0408 24.3302 25.9858 24.4108 26.0538C24.4517 26.0884 24.4581 26.1487 24.425 26.1879ZM29.3418 30.3391C29.2345 30.3519 29.237 30.3727 29.3584 30.4752C29.4403 30.5444 29.4704 30.6045 29.4286 30.6158C29.3883 30.6266 29.3048 30.5926 29.2428 30.5403C29.1808 30.488 29.1344 30.475 29.1397 30.5114C29.1449 30.5478 29.3495 30.7354 29.5941 30.9282C29.9915 31.2415 30.0281 31.2843 29.9374 31.3295C29.8706 31.3628 29.8651 31.3919 29.9211 31.4147C29.968 31.4337 30.0206 31.4203 30.0381 31.3846C30.0555 31.349 30.1314 31.3719 30.2066 31.4354C30.2841 31.5009 30.3117 31.5594 30.2702 31.5705C30.23 31.5812 30.2226 31.6116 30.2537 31.6379C30.2848 31.6641 30.3283 31.6643 30.3504 31.6381C30.4171 31.5591 30.5952 31.7537 30.5607 31.868C30.5429 31.9265 30.5144 31.9749 30.4971 31.9753C30.48 31.9757 30.224 31.7818 29.9283 31.5443C29.5358 31.2291 29.3982 31.0915 29.4185 31.0344C29.4337 30.9914 29.3988 30.9161 29.3407 30.8671C29.2826 30.818 29.2319 30.8118 29.228 30.8533C29.224 30.8973 29.1529 30.8712 29.0575 30.7906C28.9676 30.7147 28.912 30.6312 28.9341 30.6051C28.9562 30.579 28.8852 30.4825 28.7765 30.3907C28.5603 30.2081 28.6521 30.1555 28.9007 30.3194C29.0113 30.3923 29.0793 30.3874 29.1749 30.2999C29.2529 30.2286 29.3343 30.2108 29.3853 30.2538C29.4532 30.3111 29.4452 30.3268 29.3418 30.3391ZM34.627 34.867C34.6743 34.9302 34.6005 34.8834 34.4632 34.7629C34.3258 34.6424 34.2292 34.525 34.2486 34.502C34.2681 34.4789 34.3229 34.5177 34.3705 34.5881C34.4367 34.6858 34.4595 34.6921 34.4678 34.6146C34.4762 34.535 34.4852 34.5388 34.5098 34.6326C34.5269 34.6983 34.5797 34.8037 34.627 34.867ZM27.9589 29.2122C27.9187 29.223 27.8632 29.2128 27.8355 29.1894C27.8078 29.166 27.8033 29.1256 27.8253 29.0994C27.8474 29.0733 27.9029 29.0836 27.9487 29.1223C27.9946 29.161 27.9992 29.2015 27.9589 29.2122ZM22.2272 24.4543C22.2805 24.6013 22.3372 24.6492 22.3875 24.5897C22.4096 24.5635 22.3732 24.4968 22.3068 24.4414C22.209 24.3599 22.1938 24.3623 22.2272 24.4543ZM27.2334 28.7163C27.2008 28.7549 27.2335 28.8455 27.3088 28.9252C27.4154 29.0382 27.3942 29.0337 27.202 28.9027C26.9835 28.7538 26.9703 28.7298 27.0531 28.6317C27.1034 28.5721 27.1767 28.5518 27.2174 28.5862C27.2578 28.6203 27.265 28.6789 27.2334 28.7163ZM28.9135 30.0874C28.8934 30.1113 28.7792 30.0504 28.6598 29.9521C28.5404 29.8537 28.4667 29.7668 28.4959 29.759C28.5754 29.7377 28.956 30.0371 28.9135 30.0874ZM12.22 16.0866C12.2161 16.1281 12.1754 16.1304 12.1296 16.0917C12.0838 16.053 12.0643 16 12.0864 15.9738C12.1084 15.9477 12.1491 15.9454 12.1768 15.9688C12.2045 15.9922 12.2239 16.0452 12.22 16.0866ZM22.826 25.0461C22.8027 25.0737 22.7692 25.0591 22.7517 25.0136C22.7342 24.968 22.674 24.9425 22.6179 24.9569C22.5373 24.9775 22.5305 24.9654 22.5853 24.8991C22.6285 24.847 22.6951 24.8494 22.7616 24.9055C22.8204 24.9552 22.8494 25.0184 22.826 25.0461ZM23.5866 25.6631C23.5701 25.6827 23.4987 25.6499 23.428 25.5902C23.3573 25.5305 23.3242 25.4751 23.3544 25.467C23.3845 25.4589 23.4559 25.4917 23.513 25.5399C23.57 25.5881 23.6031 25.6435 23.5866 25.6631ZM33.7574 34.2706C33.7172 34.2814 33.6329 34.2442 33.57 34.188C33.4599 34.0895 33.4608 34.0876 33.5971 34.1353C33.7916 34.2032 33.8439 34.2474 33.7574 34.2706ZM37.6855 37.5871C37.6634 37.6132 37.6992 37.6806 37.765 37.7368C37.8308 37.793 37.9032 37.8902 37.9259 37.9528C37.9564 38.0366 37.9019 38.0159 37.7183 37.8735C37.5813 37.7673 37.378 37.6178 37.2664 37.5413C37.1548 37.4648 36.2285 36.7079 35.208 35.8594C34.1874 35.0109 33.5102 34.4225 33.7031 34.5519C33.8959 34.6813 34.1851 34.8754 34.3458 34.9832C34.9631 35.3976 35.6617 35.9596 35.6545 36.036C35.6505 36.0783 35.6834 36.1202 35.7276 36.1291C35.7717 36.1381 35.8415 36.2195 35.8826 36.3102C35.9237 36.4009 36.0142 36.4964 36.0836 36.5226C36.1531 36.5486 36.3859 36.7122 36.601 36.886C36.816 37.0597 37.0195 37.2011 37.0532 37.2003C37.0867 37.1994 37.1863 37.2798 37.2744 37.3789C37.4017 37.5222 37.4478 37.5433 37.4998 37.4817C37.5358 37.4391 37.6013 37.4346 37.6454 37.4719C37.6895 37.5091 37.7075 37.5609 37.6855 37.5871ZM39.2476 38.9263C39.2324 38.9948 39.2449 39.0054 39.3099 38.9789C39.3974 38.9434 39.8607 39.2997 39.8517 39.3956C39.8488 39.4267 39.7468 39.3552 39.6251 39.2368C39.4868 39.1022 39.3871 39.041 39.3596 39.0736C39.2927 39.1529 39.0554 38.924 39.089 38.8127C39.1248 38.6945 39.275 38.8021 39.2476 38.9263ZM26.8232 28.4974C26.783 28.5082 26.6866 28.4609 26.6091 28.3923C26.4832 28.2809 26.4832 28.2728 26.6094 28.317C26.8058 28.3856 26.9105 28.474 26.8232 28.4974ZM31.8468 32.7389C31.8066 32.7496 31.8232 32.8003 31.8837 32.8514C31.9442 32.9025 32.0118 32.9229 32.0339 32.8968C32.0812 32.8407 32.1741 32.9408 32.2056 33.082C32.2346 33.2115 31.8688 33.088 31.7493 32.928C31.7032 32.8662 31.6296 32.8252 31.5859 32.8369C31.5421 32.8486 31.4703 32.8278 31.4262 32.7906C31.3821 32.7533 31.3815 32.7134 31.4248 32.7018C31.4794 32.6871 31.4195 32.6268 31.2297 32.5056C31.0636 32.3994 30.9712 32.3123 30.9949 32.2842C31.0163 32.2588 31.1825 32.3418 31.3641 32.4686C31.5457 32.5955 31.7216 32.684 31.755 32.6652C31.7883 32.6465 31.8392 32.651 31.8678 32.6752C31.8965 32.6994 31.8871 32.7281 31.8468 32.7389ZM33.3779 34.0252C33.3169 34.0136 33.2028 33.9364 33.1245 33.8536C33.0149 33.7376 32.9577 33.7192 32.8758 33.7732C32.8173 33.8118 32.749 33.826 32.724 33.8049C32.6663 33.7562 32.859 33.654 32.9746 33.672C33.0224 33.6794 33.1576 33.7667 33.2752 33.866C33.421 33.9891 33.4537 34.0398 33.3779 34.0252ZM14.5227 18.184C14.4749 18.2406 14.2302 18.1113 14.2374 18.0334C14.2407 17.9993 14.2826 17.9862 14.3307 18.0041C14.4733 18.0573 14.5606 18.1391 14.5227 18.184ZM15.2127 18.7761C15.1907 18.8023 15.15 18.8045 15.1223 18.7812C15.0947 18.7578 15.0752 18.7048 15.0791 18.6633C15.083 18.6219 15.1237 18.6196 15.1695 18.6583C15.2153 18.697 15.2348 18.75 15.2127 18.7761ZM16.1791 19.5831C16.1184 19.655 15.7153 19.3408 15.6284 19.154C15.5524 18.9905 15.571 18.9983 15.8806 19.2591C16.0644 19.4141 16.1987 19.5599 16.1791 19.5831ZM16.328 19.7401C16.2734 19.7913 16.2095 19.7185 16.2382 19.6378C16.2529 19.5966 16.2866 19.5957 16.313 19.6359C16.3395 19.6762 16.3462 19.723 16.328 19.7401ZM16.6749 20.2893C16.6565 20.3152 16.6317 20.2576 16.6197 20.1613C16.6048 20.0426 16.626 19.9913 16.6854 20.0022C16.7649 20.0165 16.7593 20.1701 16.6749 20.2893ZM17.2817 20.4909C17.3591 20.6199 17.2953 20.6972 17.1869 20.6056C17.1411 20.567 17.1006 20.5672 17.097 20.6061C17.0933 20.6451 17.0446 20.6328 16.9887 20.5788C16.8841 20.4778 16.9643 20.3477 17.1194 20.3668C17.2209 20.3793 17.2092 20.3703 17.2817 20.4909ZM38.2466 38.2235C38.2245 38.2496 38.1646 38.2351 38.1135 38.1913C38.0341 38.1232 38.038 38.1148 38.1397 38.1333C38.2895 38.1605 38.2955 38.1656 38.2466 38.2235ZM17.7444 21.0402C17.5655 20.9747 17.5489 20.9796 17.6222 21.0765C17.6908 21.1672 17.6805 21.168 17.5683 21.0809C17.4882 21.0188 17.4348 20.9145 17.4418 20.8345C17.4531 20.7073 17.475 20.7134 17.7028 20.9059C17.949 21.1142 17.9494 21.1154 17.7444 21.0402ZM18.4327 21.7153C18.3697 21.8336 18.3462 21.8357 18.2684 21.7301C18.2185 21.6624 18.0822 21.5249 17.9656 21.4245C17.794 21.2767 17.7796 21.2478 17.8896 21.2728C17.9644 21.2898 18.0285 21.2731 18.032 21.2357C18.0355 21.1983 18.1436 21.2598 18.2723 21.3724C18.4773 21.5519 18.4972 21.5943 18.4327 21.7153ZM20.009 23.0341C20.0076 23.1485 20.0322 23.1808 20.1191 23.1786C20.2748 23.1746 20.3819 23.2788 20.3098 23.3643C20.2629 23.4198 20.1824 23.3774 19.9455 23.1723C19.7782 23.0276 19.6805 22.9238 19.7284 22.9416C19.9331 23.0179 19.8674 22.8688 19.595 22.6388C19.2771 22.3704 19.1266 22.3751 19.3834 22.6454C19.4814 22.7485 19.4235 22.717 19.2304 22.562C19.0561 22.4222 18.9232 22.2769 18.9275 22.2309C18.9331 22.1718 18.9068 22.1496 18.8335 22.1515C18.7776 22.1529 18.6958 22.1236 18.6517 22.0864C18.5924 22.0364 18.5989 22.018 18.6765 22.0161C18.7342 22.0146 18.7941 21.9713 18.8097 21.9198C18.8336 21.8408 18.9286 21.9083 19.4244 22.3566C19.9165 22.8016 20.0106 22.9105 20.009 23.0341ZM21.2147 24.0266C21.1703 24.0801 20.816 23.7639 20.8241 23.678C20.8282 23.6334 20.913 23.6808 21.0378 23.7974C21.1515 23.9038 21.2311 24.0069 21.2147 24.0266ZM23.1513 25.6366C23.1305 25.6612 23.0785 25.6742 23.0356 25.6655C22.8991 25.638 21.4754 24.3957 21.4015 24.2396C21.3639 24.1603 22.0672 24.6703 22.608 25.1145C22.9413 25.3883 23.173 25.6109 23.1513 25.6366ZM25.4717 27.6429C25.4858 27.7405 25.3704 27.6721 24.8516 27.2753C24.3195 26.8685 23.8295 26.3512 23.8987 26.2693C23.9339 26.2275 25.4598 27.56 25.4717 27.6429ZM27.359 29.2723C26.9911 29.0086 26.7489 28.7696 26.8749 28.7946C26.9175 28.803 27.1209 28.9692 27.3268 29.1638L27.7011 29.5176L27.359 29.2723ZM28.3329 30.0162C28.3108 30.0423 28.2822 30.0547 28.2692 30.0438C28.2562 30.0328 28.2488 29.9899 28.2527 29.9485C28.2566 29.907 28.2853 29.8946 28.3164 29.9209C28.3475 29.9471 28.355 29.99 28.3329 30.0162ZM29.5354 31.0314C29.4951 31.0422 29.4997 31.0827 29.5455 31.1213C29.5913 31.16 29.6469 31.1703 29.669 31.1442C29.691 31.1181 29.6865 31.0776 29.6588 31.0542C29.6311 31.0309 29.5756 31.0206 29.5354 31.0314ZM40.6275 40.3706C40.6544 40.4169 40.702 40.4541 40.733 40.4533C40.7641 40.4525 40.742 40.4147 40.684 40.3692C40.6198 40.3189 40.5976 40.3194 40.6275 40.3706ZM28.0592 29.8588C28.0227 29.8685 27.9542 29.8248 27.907 29.7615C27.7888 29.6032 27.8249 29.5873 27.9887 29.7255C28.0639 29.789 28.0956 29.849 28.0592 29.8588ZM30.8315 32.1796C30.7837 32.1618 30.7235 32.111 30.6979 32.0668C30.6723 32.0226 30.7114 32.0372 30.7849 32.0992C30.8584 32.1613 30.8794 32.1975 30.8315 32.1796ZM33.2899 34.2552C33.242 34.2374 33.1819 34.1866 33.1563 34.1424C33.1307 34.0982 33.1698 34.1128 33.2433 34.1748C33.3168 34.2369 33.3378 34.2731 33.2899 34.2552ZM40.0234 40.2932C40.0195 40.3347 40.0269 40.3775 40.0399 40.3885C40.0529 40.3994 40.0815 40.387 40.1036 40.3609C40.1256 40.3348 40.1182 40.2919 40.0871 40.2656C40.056 40.2393 40.0273 40.2517 40.0234 40.2932ZM41.4423 41.4654C41.4693 41.5117 41.5169 41.5489 41.5479 41.5481C41.579 41.5473 41.5569 41.5095 41.4988 41.464C41.4347 41.4137 41.4125 41.4143 41.4423 41.4654ZM19.0901 23.616C19.0737 23.6356 18.5765 23.2365 17.9854 22.7292C17.2414 22.0905 17.0574 21.9164 17.3875 22.1634C18.0726 22.6758 19.1254 23.5741 19.0901 23.616ZM19.61 24.0847C19.6015 24.0947 19.4825 24.004 19.3455 23.883C19.1312 23.6938 19.1226 23.6775 19.284 23.766C19.4594 23.8623 19.6447 24.0436 19.61 24.0847ZM16.8425 21.7518C16.7946 21.734 16.7345 21.6833 16.7089 21.639C16.6833 21.5949 16.7224 21.6095 16.7959 21.6715C16.8694 21.7335 16.8904 21.7697 16.8425 21.7518ZM11.9202 17.7695C11.939 17.8224 11.7037 17.6562 11.3905 17.3953C11.0806 17.1371 10.8485 16.9202 10.8747 16.9131C10.9464 16.8939 11.8813 17.6597 11.9202 17.7695ZM36.3115 38.4352C36.3384 38.4815 36.386 38.5187 36.417 38.5179C36.4481 38.5171 36.426 38.4793 36.368 38.4338C36.3038 38.3835 36.2816 38.3841 36.3115 38.4352ZM32.3687 35.1813C32.3377 35.1821 32.2901 35.1449 32.2632 35.0986C32.2333 35.0475 32.2555 35.0469 32.3197 35.0972C32.3777 35.1427 32.3998 35.1805 32.3687 35.1813ZM13.7096 19.6018C14.0169 19.8756 14.546 20.3223 14.8853 20.5945C15.2247 20.8667 14.9733 20.6427 14.3266 20.0967C13.68 19.5507 13.4024 19.328 13.7096 19.6018ZM18.4804 23.6681C18.4875 23.7175 18.5451 23.7873 18.6083 23.823C18.6935 23.8712 18.6901 23.8479 18.5954 23.7332C18.5128 23.6332 18.4721 23.6102 18.4804 23.6681ZM35.0689 37.6302C35.0958 37.6764 35.1434 37.7137 35.1744 37.7129C35.2055 37.7121 35.1834 37.6743 35.1254 37.6287C35.0612 37.5785 35.039 37.579 35.0689 37.6302ZM18.8853 24.0498C18.9422 24.1173 19.0388 24.1981 19.0999 24.2293C19.161 24.2606 19.1145 24.2054 18.9965 24.1066C18.8785 24.0079 18.8285 23.9823 18.8853 24.0498ZM19.6335 24.6815C19.6904 24.749 19.787 24.8298 19.8481 24.8611C19.9092 24.8923 19.8627 24.8371 19.7447 24.7383C19.6267 24.6396 19.5766 24.614 19.6335 24.6815ZM21.2899 26.0814C21.377 26.173 21.5215 26.2947 21.6109 26.3517C21.7004 26.4086 21.6291 26.3336 21.4525 26.185C21.276 26.0363 21.2028 25.9897 21.2899 26.0814ZM22.0649 26.7352C22.1369 26.8146 22.2574 26.9159 22.3326 26.9601C22.4079 27.0043 22.3489 26.9393 22.2017 26.8155C22.0544 26.6918 21.9928 26.6556 22.0649 26.7352ZM29.0663 32.6441C29.1076 32.6994 29.1918 32.7706 29.2533 32.802C29.3148 32.8335 29.281 32.7882 29.1781 32.7013C29.0753 32.6145 29.0249 32.5887 29.0663 32.6441ZM29.9492 33.3873C29.9748 33.4315 30.0349 33.4823 30.0828 33.5001C30.1307 33.518 30.1097 33.4818 30.0362 33.4198C29.9627 33.3577 29.9236 33.3431 29.9492 33.3873Z" fill="#1F2B3A"/>
<path fill-rule="evenodd" clip-rule="evenodd" d="M11.9055 28.7146C12.3093 28.3289 12.6677 27.9967 12.702 27.9764C12.7363 27.956 12.5918 28.1445 12.3809 28.3952C11.9984 28.8499 11.9992 28.8493 12.6408 28.2085C12.9947 27.855 13.529 27.3426 13.8281 27.0698C14.2044 26.7266 14.0297 26.9175 13.2613 27.6891C11.5052 29.4528 9.7066 31.2683 9.47982 31.5061C9.35328 31.6388 9.26598 31.6951 9.25692 31.65C9.24712 31.6012 8.80799 32.0279 7.97702 32.8936C7.07906 33.8292 6.7356 34.2153 6.79323 34.2245C6.8444 34.2326 6.82825 34.2778 6.74955 34.3465C6.6808 34.4064 6.60384 34.5011 6.57855 34.5568C6.55322 34.6124 6.22715 35.0193 5.85394 35.4609C5.48074 35.9025 5.11143 36.3661 5.03331 36.491C4.9551 36.616 4.87447 36.7021 4.85407 36.6826C4.80312 36.6336 4.90172 36.4716 5.52422 35.5807C5.6023 35.469 5.74338 35.2554 5.83778 35.1061C6.04113 34.7843 10.8093 29.7617 11.9055 28.7146ZM26.7007 13.3946C26.9534 13.1814 26.9488 13.1902 26.6254 13.5404C26.2847 13.9093 26.1607 14.0006 26.3395 13.7507C26.3904 13.6796 26.5529 13.5193 26.7007 13.3946ZM27.2556 12.8607C27.3165 12.8126 27.57 12.587 27.819 12.3593C28.0679 12.1317 28.2864 11.9597 28.3046 11.9771C28.3228 11.9946 28.2588 12.0749 28.1624 12.1557C28.028 12.2683 28.0151 12.2955 28.1072 12.2724C28.1984 12.2494 28.1738 12.2955 28.0046 12.4647C27.8016 12.6678 27.7918 12.6712 27.8931 12.5031L28.0042 12.3189L27.8212 12.4988C27.7207 12.5978 27.6491 12.7036 27.6622 12.734C27.6758 12.7653 27.4941 12.9602 27.2408 13.1859C26.7606 13.6138 26.751 13.5892 27.2107 13.1085C27.3701 12.9416 27.4363 12.8524 27.3576 12.9102C27.2225 13.0095 26.9768 13.0837 27.0926 12.9903C27.1212 12.9671 27.1946 12.9088 27.2556 12.8607ZM10.563 30.2658C10.7371 30.1019 11.0205 29.8067 11.1928 29.6099C11.3651 29.4131 11.2226 29.5472 10.8763 29.908C10.5299 30.2687 10.3889 30.4297 10.563 30.2658ZM9.88351 30.9668C9.92925 30.9441 9.98374 30.8873 10.0046 30.8406C10.0254 30.7941 9.98804 30.8126 9.92144 30.882C9.85485 30.9514 9.83776 30.9896 9.88351 30.9668ZM6.24741 34.8449C6.29315 34.8222 6.34764 34.7654 6.36849 34.7187C6.38934 34.6721 6.35194 34.6907 6.28535 34.7601C6.21875 34.8295 6.20166 34.8676 6.24741 34.8449ZM5.90718 35.1988C5.95226 35.1764 6.01841 35.109 6.05414 35.049C6.08988 34.989 6.053 35.0073 5.97219 35.0897C5.89137 35.1721 5.86211 35.2211 5.90718 35.1988ZM26.684 13.6451C26.6487 13.7045 26.5724 13.7841 26.5145 13.8217C26.4566 13.8595 26.4855 13.8109 26.5787 13.7138C26.672 13.6166 26.7193 13.5858 26.684 13.6451ZM26.2227 14.1233C26.2018 14.17 26.1473 14.2268 26.1016 14.2495C26.0558 14.2723 26.0729 14.2341 26.1395 14.1647C26.2061 14.0953 26.2435 14.0768 26.2227 14.1233ZM35.5691 4.53408C35.6039 4.53961 35.8711 4.28718 36.1628 3.97309C36.6923 3.40328 37.7015 2.48393 37.9182 2.37413C37.9907 2.33738 38.0703 2.35972 38.1355 2.43513C38.2465 2.56349 38.2434 2.57549 38.0129 2.89944C37.8243 3.16459 37.8789 3.25296 38.0865 3.01851C38.2246 2.86243 38.2464 2.8593 38.3467 2.9811C38.4425 3.09748 38.473 3.0966 38.5918 2.97398C38.762 2.79838 38.8616 2.77448 38.9962 2.87696C39.0838 2.94365 39.0738 2.99698 38.9384 3.18505C38.7194 3.48949 38.7953 3.53454 39.0957 3.27835C39.3331 3.07599 39.7618 2.95265 39.7873 3.07947C39.7937 3.11098 39.8776 3.08143 39.9738 3.01374C40.1251 2.90734 40.1481 2.90868 40.1437 3.0236C40.1409 3.09672 40.1101 3.1869 40.0753 3.22392C40.0276 3.2747 40.0396 3.28288 40.1243 3.25727C40.203 3.23344 40.163 3.30831 39.9904 3.50764C39.747 3.78861 39.7458 3.7937 39.8855 3.93651C39.9632 4.01605 40.0432 4.064 40.0631 4.04321C40.0831 4.02242 40.1398 4.04411 40.1891 4.09147C40.2556 4.15526 40.3149 4.14314 40.4181 4.04465C40.5396 3.92882 40.5458 3.92888 40.4668 4.0454C40.3513 4.21562 40.218 4.59883 40.3057 4.5081C40.3428 4.46972 40.3881 4.47885 40.4092 4.52896C40.4649 4.66134 40.6121 4.61068 40.9852 4.33077C41.319 4.08033 41.4873 3.99587 41.3337 4.15588C41.2893 4.20215 41.2832 4.26906 41.3202 4.30457C41.3726 4.35481 41.4521 4.30188 41.6781 4.06638C41.9915 3.7399 42.1746 3.7206 41.8829 4.0448C41.7742 4.16553 41.7563 4.20374 41.8358 4.14503C41.9064 4.0928 41.9816 4.06683 42.0029 4.08728C42.0242 4.10773 42.0984 4.09106 42.1679 4.0503C42.2373 4.0095 42.3001 4.00596 42.3074 4.04225C42.3147 4.07863 42.4114 4.05212 42.5223 3.98336C42.6965 3.87536 42.6753 3.91052 42.3661 4.24198C41.9987 4.63592 42.032 4.69568 42.445 4.38338C42.6281 4.24489 42.6621 4.23925 42.668 4.34637C42.6735 4.4481 42.6554 4.47033 42.5751 4.4602C42.4976 4.45037 42.4789 4.48332 42.4911 4.60821C42.5053 4.7554 42.5196 4.76275 42.6607 4.69648C42.7925 4.63455 42.7798 4.66754 42.5729 4.92529C42.3559 5.19554 42.3473 5.22079 42.4887 5.17162C42.5753 5.14152 42.755 5.03043 42.888 4.92472C43.3014 4.59622 43.3757 4.62578 43.039 4.98479L42.7279 5.31636L43.2829 5.02507L43.838 4.73378L43.6183 5.00761L43.3985 5.28144L43.7446 5.04237C43.9864 4.87534 44.0822 4.83594 44.0628 4.91151C44.0474 4.97104 43.993 5.06677 43.9419 5.1243C43.8495 5.22817 43.8498 5.22843 43.9796 5.16223C44.0744 5.11382 44.0347 5.19556 43.8351 5.45981C43.5857 5.78983 43.5796 5.80654 43.7697 5.63766C43.8851 5.53513 44.019 5.44781 44.0674 5.4435C44.1218 5.43866 43.9366 5.66616 43.58 6.04213C43.1357 6.51046 43.0453 6.62681 43.183 6.55299C43.2863 6.49766 43.3948 6.48969 43.4411 6.53412C43.5058 6.59628 43.6215 6.53786 44.0524 6.2254C44.3447 6.01344 44.5501 5.88982 44.5089 5.95061C44.449 6.03909 44.4555 6.0547 44.5413 6.02877C44.6201 6.00498 44.6168 6.03009 44.5287 6.12388C44.4629 6.19399 44.3958 6.3028 44.3795 6.36572C44.3467 6.49278 44.3786 6.48223 44.6884 6.26352C44.7729 6.20386 44.8824 6.17017 44.9319 6.18866C45.0072 6.2167 44.9305 6.31062 44.4594 6.76671C44.0439 7.16913 43.9289 7.30379 44.019 7.2827C44.1217 7.25869 44.1245 7.269 44.0368 7.34831C43.8629 7.50541 43.8418 7.55613 43.9647 7.52147C44.0443 7.49902 43.9786 7.57542 43.7591 7.76043C43.3574 8.09901 43.3754 8.07931 42.6256 8.99916C42.166 9.56286 41.4371 10.3361 39.8189 11.9767C38.4756 13.3385 37.2405 14.6383 36.6148 15.3484C34.5527 17.6887 34.3448 17.9188 34.3461 17.8584C34.3469 17.8245 34.5621 17.5512 34.8245 17.2511C35.0869 16.9511 35.3042 16.6666 35.3075 16.6192C35.3157 16.5008 31.1495 20.85 29.7349 22.4365C28.9235 23.3465 22.6138 30.0467 20.3948 32.3547C19.8997 32.8696 17.6857 35.0629 17.5715 35.1515C17.4772 35.2246 17.4443 35.2774 17.4887 35.2845C17.5293 35.2909 17.5406 35.3189 17.514 35.3466C17.4873 35.3744 17.4319 35.3917 17.3908 35.3852C17.2927 35.3696 17.1147 35.5565 17.1736 35.6131C17.2244 35.6617 16.0832 36.8567 15.1992 37.6806C14.7944 38.0579 14.6754 38.1949 14.7006 38.2546C14.7187 38.2978 14.702 38.3661 14.6633 38.4064C14.6246 38.4467 14.5862 38.4463 14.578 38.4054C14.5698 38.3646 14.5202 38.369 14.4678 38.4151C14.4154 38.4613 14.3354 38.5288 14.2899 38.5651C14.2445 38.6015 14.085 38.7538 13.9354 38.9036C13.7698 39.0695 13.6738 39.136 13.6899 39.0739C13.7158 38.973 13.3379 39.2979 12.3148 40.2565C11.8004 40.7384 11.5063 40.8974 11.8658 40.4993C11.9806 40.3722 12.0916 40.241 12.1125 40.2077C12.1334 40.1745 12.3525 39.9267 12.5994 39.6571L13.0481 39.1668L12.6984 39.4613C12.5061 39.6233 12.1281 39.973 11.8586 40.2385C11.589 40.5039 11.3424 40.717 11.3106 40.7119C11.2788 40.7069 11.2092 40.7482 11.1559 40.8037C11.1026 40.8592 11.0532 40.8756 11.046 40.8401C11.0389 40.8042 11.1416 40.6955 11.277 40.5956C11.5505 40.3938 11.7819 40.1736 11.7149 40.1789C11.6251 40.186 10.4615 41.0778 10.4167 41.1738C10.3905 41.2299 10.3271 41.2573 10.2714 41.2366C10.2013 41.2104 10.0963 41.275 9.90952 41.4592L9.64643 41.7187L9.88635 41.4157C10.0751 41.1774 10.0927 41.1363 9.96912 41.2229C9.88263 41.2835 9.72213 41.4567 9.61237 41.6076C9.50261 41.7586 9.40376 41.8834 9.39273 41.885C9.38165 41.8864 9.36147 41.8075 9.34779 41.7094C9.33134 41.5913 9.35425 41.5287 9.41563 41.5238C9.47711 41.5189 9.54391 41.4478 9.61357 41.3129C9.8007 40.9509 9.73919 40.9773 9.33226 41.4341C9.04835 41.7527 8.92814 41.8584 8.91638 41.8C8.90623 41.7494 8.85524 41.7611 8.78399 41.8304C8.68083 41.9307 9.06722 41.3489 9.40094 40.9013C9.47045 40.8081 9.36053 40.8989 9.1567 41.1032C8.95283 41.3074 8.73376 41.4898 8.6699 41.5085C8.57359 41.5366 8.57003 41.525 8.64926 41.4402C8.70178 41.384 8.75613 41.2834 8.77003 41.2168C8.78853 41.1282 8.74114 41.1673 8.59379 41.3624C8.33026 41.7111 8.22756 41.7398 8.22957 41.464C8.23039 41.342 8.20502 41.2746 8.17136 41.3097C8.13852 41.3439 8.10493 41.3385 8.09673 41.2976C8.08853 41.2568 8.17284 41.1279 8.28412 41.0113C8.39536 40.8946 8.49805 40.7449 8.51226 40.6785C8.53088 40.5918 8.47504 40.6401 8.31314 40.851C8.08415 41.1491 7.92652 41.1937 8.07913 40.9172C8.15588 40.7782 8.15442 40.7761 8.01791 40.8342C7.90705 40.8815 7.91734 40.8606 8.06755 40.7339C8.28403 40.5514 8.39211 40.2452 8.20619 40.3413C8.14798 40.3714 8.06127 40.4368 8.01346 40.4866C7.96561 40.5365 7.86908 40.5765 7.7989 40.5755C7.6987 40.5742 7.68411 40.5604 7.7309 40.5117C7.76393 40.4773 7.74806 40.4338 7.69525 40.4142C7.63414 40.3913 7.62874 40.3466 7.68019 40.2889C7.74661 40.2144 7.73752 40.2103 7.62667 40.2648C7.5025 40.3257 7.49916 40.317 7.57958 40.1406C7.6272 40.0362 7.69742 39.9181 7.73564 39.8783C7.77385 39.8385 7.78496 39.7865 7.76029 39.7629C7.73562 39.7392 7.58817 39.8485 7.4326 40.0058L7.14975 40.2918L7.26235 40.0363C7.38447 39.7593 7.33204 39.6375 7.12452 39.7161C7.05238 39.7434 6.73518 40.0061 6.41963 40.2999C6.10417 40.5936 5.83039 40.819 5.81128 40.8006C5.79218 40.7823 5.81626 40.6854 5.86469 40.5853C5.93851 40.4329 5.89502 40.4624 5.59816 40.7657C5.39689 40.9714 5.22406 41.1095 5.19863 41.0851C5.17396 41.0614 5.19868 40.9953 5.2535 40.9382C5.30833 40.881 5.32106 40.8292 5.28172 40.8229C5.24239 40.8167 5.18956 40.8558 5.16437 40.9099C5.13915 40.9639 5.09955 40.99 5.07641 40.9678C5.05322 40.9455 5.11533 40.7979 5.21435 40.6397C5.3672 40.3955 5.28685 40.4685 4.6822 41.1226L3.97001 41.8933L4.51766 41.1586C5.47595 39.873 5.45996 39.8971 5.28419 40.0038C5.14108 40.0907 5.1371 40.0891 5.23114 39.9829C5.37258 39.8231 5.33271 39.7097 5.17588 39.8257C5.10396 39.8788 5.13344 39.8254 5.24235 39.7051C5.34994 39.5863 5.42537 39.4624 5.40998 39.4298C5.39453 39.3972 5.61602 39.0935 5.90222 38.755C6.4119 38.1522 6.41723 38.1429 6.1631 38.2996C5.99755 38.4018 5.64147 38.7401 5.17963 39.234C4.51129 39.9487 4.44362 40.0072 4.29994 39.9961C4.16304 39.9855 4.06962 40.0583 3.52593 40.5985C3.03295 41.0884 2.89474 41.2005 2.84401 41.1518C2.80903 41.1183 2.79935 41.0711 2.8225 41.047C2.8906 40.976 3.58198 39.9852 3.64826 39.8636C3.77355 39.6336 3.61537 39.6819 3.34163 39.9571C3.06098 40.2393 3.05966 40.2398 3.21463 40.0049C3.30077 39.8743 3.54294 39.5832 3.75282 39.3581C4.12651 38.9571 4.58026 38.3623 4.41455 38.4905C4.25675 38.6126 4.69431 38.0328 5.02489 37.6817C5.31301 37.3757 5.35511 37.3025 5.35518 37.1065L5.35527 36.882L5.14767 37.0902L4.94011 37.2984L5.06162 37.0835C5.12851 36.9654 5.23277 36.8364 5.29334 36.7969C5.35391 36.7575 5.38668 36.709 5.36614 36.6893C5.3456 36.6696 5.35771 36.6048 5.393 36.5454C5.42834 36.4861 5.3543 36.5349 5.2285 36.6542L4.99974 36.8708L5.1837 36.6111C5.78501 35.7624 10.7897 30.4255 12.5044 28.8046C12.9942 28.3416 13.617 27.7324 13.8884 27.4508C14.2368 27.0895 14.4057 26.9472 14.4626 26.9671C14.5233 26.9883 14.5403 26.9725 14.5312 26.9029C14.5211 26.8249 15.476 25.7282 15.6034 25.6714C15.7279 25.6159 28.4816 12.3187 29.3048 11.386C29.8526 10.7654 30.4782 10.057 30.6951 9.81191C30.9119 9.56679 31.5675 8.84698 32.1519 8.21248C32.7364 7.57789 33.4216 6.81769 33.6746 6.52318C34.4062 5.67152 35.5 4.52311 35.5691 4.53408ZM10.9604 30.116C10.9384 30.1649 10.895 30.2069 10.8641 30.2093C10.8331 30.2118 10.8511 30.1719 10.9041 30.1205C10.9626 30.0638 10.9847 30.062 10.9604 30.116ZM12.313 28.7967C12.291 28.8455 12.2476 28.8875 12.2166 28.8899C12.1856 28.8924 12.2036 28.8525 12.2566 28.8011C12.3152 28.7444 12.3373 28.7427 12.313 28.7967ZM11.9255 29.2003C11.9035 29.2492 11.8601 29.2912 11.8291 29.2936C11.7982 29.2961 11.8162 29.2562 11.8691 29.2048C11.9277 29.1481 11.9498 29.1463 11.9255 29.2003ZM27.5664 13.0864C27.5171 13.1591 27.4191 13.2612 27.3485 13.3135C27.2778 13.3656 27.3181 13.3061 27.438 13.1812C27.5579 13.0563 27.6157 13.0136 27.5664 13.0864ZM17.9349 23.4757C17.98 23.4533 18.0461 23.3859 18.0818 23.3259C18.1176 23.2658 18.0807 23.2842 17.9999 23.3666C17.9191 23.449 17.8898 23.498 17.9349 23.4757ZM5.51129 36.4146C5.54226 36.4121 5.58567 36.3701 5.60763 36.3213C5.63197 36.2673 5.60986 36.269 5.55129 36.3258C5.49831 36.3771 5.48032 36.417 5.51129 36.4146ZM12.8083 28.9716C12.8071 29.0035 12.9809 28.852 13.1946 28.635C13.4083 28.4179 14.1492 27.6712 14.841 26.9755C15.5328 26.2798 17.963 23.7995 20.2415 21.4638C22.52 19.1281 24.5168 17.1064 24.6789 16.9712C24.9766 16.7228 25.2604 16.3558 25.1477 16.3649C25.0828 16.3701 24.616 16.8397 22.0294 19.5025C21.0421 20.5188 20.3922 21.1547 20.3661 21.1296C20.3426 21.1071 20.3036 21.131 20.2795 21.1829C20.2127 21.3261 18.5935 23.0005 17.382 24.1793C16.1975 25.3317 12.8119 28.8792 12.8083 28.9716ZM11.5038 30.2518C11.5709 30.2464 12.405 29.3852 12.4075 29.3187C12.4087 29.2881 12.1953 29.4864 11.9334 29.7592C11.6714 30.0321 11.4781 30.2538 11.5038 30.2518ZM11.3197 30.4528C11.3507 30.4503 11.3941 30.4083 11.4161 30.3595C11.4404 30.3055 11.4183 30.3073 11.3597 30.364C11.3068 30.4153 11.2888 30.4553 11.3197 30.4528ZM15.0485 26.6669C14.999 26.74 14.9114 26.8304 14.8539 26.8679C14.7964 26.9054 14.8369 26.8456 14.944 26.735C15.051 26.6245 15.0981 26.5939 15.0485 26.6669ZM8.43533 33.5608C8.44151 33.5914 8.7478 33.3026 9.11589 32.9191C9.48399 32.5356 9.78636 32.1902 9.78788 32.1516C9.78941 32.1131 9.48316 32.4018 9.10737 32.7933C8.73152 33.1849 8.42915 33.5302 8.43533 33.5608ZM8.19682 33.8317C8.38174 33.7445 8.41899 33.7057 8.36634 33.6551C8.34167 33.6314 8.26301 33.6759 8.19143 33.7539C8.07623 33.8795 8.07682 33.8883 8.19682 33.8317ZM17.0756 24.6426C17.0537 24.6915 17.0103 24.7335 16.9793 24.7359C16.9483 24.7384 16.9663 24.6984 17.0193 24.6471C17.0779 24.5904 17.1 24.5886 17.0756 24.6426ZM16.7891 24.9449C16.712 25.0452 16.5811 25.1812 16.498 25.2473C16.415 25.3133 16.4781 25.2312 16.6382 25.0649C16.7982 24.8986 16.8661 24.8447 16.7891 24.9449ZM26.6707 14.8593C26.7255 14.8421 26.7788 14.7966 26.7892 14.7583C26.7995 14.72 26.763 14.7027 26.7082 14.7198C26.6534 14.737 26.6001 14.7825 26.5898 14.8208C26.5795 14.8591 26.6159 14.8764 26.6707 14.8593ZM25.7565 15.7361C25.7759 15.7547 25.9473 15.6029 26.1375 15.3989C26.3942 15.1236 26.4373 15.0587 26.3046 15.1472C26.0757 15.2998 25.7107 15.6921 25.7565 15.7361ZM25.2412 16.2109C25.2891 16.2569 25.6163 16.0475 25.6607 15.9425C25.697 15.8565 25.674 15.8532 25.5514 15.927C25.3617 16.041 25.2094 16.1804 25.2412 16.2109ZM26.8857 14.6351C26.9244 14.6412 27.1235 14.4714 27.328 14.2576C27.5325 14.0437 27.6595 13.8811 27.6103 13.8962C27.4739 13.9378 26.803 14.622 26.8857 14.6351ZM11.3784 30.7554C11.4235 30.733 11.4897 30.6656 11.5254 30.6056C11.5611 30.5456 11.5243 30.5639 11.4434 30.6463C11.3626 30.7287 11.3334 30.7778 11.3784 30.7554ZM8.03611 34.3319C8.10669 34.2797 8.20482 34.1775 8.25406 34.1048C8.30325 34.0321 8.24549 34.0748 8.12562 34.1997C8.00574 34.3246 7.96548 34.384 8.03611 34.3319ZM38.6732 3.60596C38.6979 3.62963 38.7277 3.63901 38.7395 3.62675C38.7512 3.61449 38.7541 3.5711 38.7459 3.53026C38.7377 3.48943 38.7079 3.4801 38.6797 3.50947C38.6515 3.53884 38.6486 3.58228 38.6732 3.60596ZM41.6353 3.81323C41.6133 3.86206 41.5699 3.90405 41.5389 3.90651C41.5079 3.90897 41.5259 3.86904 41.5789 3.81771C41.6375 3.76099 41.6596 3.75923 41.6353 3.81323ZM7.96199 40.4149C7.99296 40.4125 8.03637 40.3705 8.05833 40.3217C8.08267 40.2677 8.06057 40.2694 8.00199 40.3261C7.94901 40.3775 7.93102 40.4174 7.96199 40.4149ZM42.1051 5.05792C42.1298 5.0816 42.1731 5.0769 42.2012 5.04753C42.2294 5.01816 42.2189 4.98875 42.1777 4.98223C42.1366 4.97571 42.0934 4.98036 42.0816 4.99262C42.0698 5.00488 42.0804 5.03425 42.1051 5.05792ZM28.3699 20.7206C28.3959 20.8499 28.4717 20.804 28.4641 20.6636C28.4597 20.5829 28.4376 20.5543 28.4054 20.5878C28.3772 20.6173 28.3611 20.6771 28.3699 20.7206ZM25.4091 24.0264C25.3638 24.0406 25.3206 24.0211 25.313 23.9831C25.305 23.9434 25.1759 24.0423 25.0096 24.2155C24.8425 24.3897 24.7335 24.5448 24.7518 24.5828C24.7691 24.619 24.6916 24.7655 24.5795 24.9084C24.3003 25.2644 24.4405 25.2567 24.7511 24.8989C24.9379 24.6836 25.0175 24.6246 25.0625 24.6679C25.1387 24.741 25.3196 24.5599 25.277 24.4532C25.2586 24.4072 25.281 24.405 25.3303 24.4478C25.377 24.4885 25.423 24.4932 25.4323 24.4584C25.4417 24.4235 25.525 24.3949 25.6175 24.3948C25.815 24.3944 26.0603 24.1713 25.9644 24.0793C25.9154 24.0322 25.9483 23.9797 26.1024 23.8594C26.2613 23.7355 26.2862 23.6938 26.2182 23.6659C26.1705 23.6463 26.1026 23.6645 26.0673 23.7063C26.032 23.7481 25.9438 23.785 25.8713 23.7883C25.7568 23.7935 25.7651 23.7757 25.9346 23.6526C26.0419 23.5746 26.1754 23.482 26.2313 23.4468C26.2872 23.4117 26.3265 23.3512 26.3188 23.3126C26.311 23.2739 26.1804 23.3436 26.0286 23.4675C25.8767 23.5914 25.7001 23.6946 25.6361 23.6968C25.5406 23.7002 25.5171 23.7279 25.5054 23.8508C25.4976 23.9333 25.4542 24.0123 25.4091 24.0264ZM18.5264 31.0946C18.5632 31.1299 18.878 30.8391 18.8662 30.7806C18.8594 30.7466 18.7762 30.7996 18.6814 30.8984C18.5867 30.9971 18.5169 31.0854 18.5264 31.0946ZM27.6406 22.1395C27.7826 22.1926 27.7934 22.0809 27.6561 21.9783C27.4853 21.8508 27.4829 21.8508 27.5128 21.9815C27.5279 22.0478 27.5855 22.1189 27.6406 22.1395ZM24.0397 25.5543C24.0848 25.5319 24.1509 25.4645 24.1867 25.4045C24.2224 25.3444 24.1855 25.3628 24.1047 25.4452C24.0239 25.5276 23.9946 25.5766 24.0397 25.5543ZM22.4237 27.2734C22.7855 26.9989 23.8881 25.8468 23.9229 25.7069C23.9422 25.629 23.652 25.9054 23.0609 26.5277C22.4515 27.1694 22.2501 27.4051 22.4237 27.2734ZM21.4037 28.306C21.4873 28.2395 21.6071 28.1147 21.6701 28.0285C21.7331 27.9423 21.6647 27.9967 21.5182 28.1493C21.3717 28.302 21.3202 28.3725 21.4037 28.306ZM20.9412 28.783C20.9869 28.7603 21.0414 28.7036 21.0622 28.6569C21.0831 28.6103 21.0457 28.6289 20.9791 28.6983C20.9125 28.7677 20.8954 28.8058 20.9412 28.783ZM20.4568 29.2877C20.5026 29.265 20.5571 29.2082 20.5779 29.1615C20.5988 29.1149 20.5614 29.1335 20.4948 29.2029C20.4282 29.2723 20.4111 29.3104 20.4568 29.2877ZM28.7397 20.7323C28.805 20.795 29.1224 20.7382 29.2056 20.649C29.2986 20.5492 29.2948 20.5465 29.1059 20.5785L28.9097 20.6119L29.1 20.379C29.2672 20.1744 29.2555 20.1805 29.0041 20.4287C28.8466 20.5841 28.7277 20.7207 28.7397 20.7323ZM28.5158 20.9759C28.5468 20.9734 28.5902 20.9314 28.6122 20.8826C28.6365 20.8286 28.6144 20.8304 28.5558 20.8871C28.5029 20.9384 28.4849 20.9784 28.5158 20.9759ZM25.566 24.0847C25.5907 24.1084 25.5878 24.1518 25.5596 24.1812C25.5314 24.2106 25.5016 24.2013 25.4934 24.1604C25.4852 24.1196 25.4881 24.0762 25.4998 24.0639C25.5116 24.0517 25.5414 24.0611 25.566 24.0847ZM10.4017 39.8482C10.4327 39.8457 10.4761 39.8037 10.498 39.7549C10.5224 39.7009 10.5003 39.7027 10.4417 39.7594C10.3887 39.8107 10.3707 39.8506 10.4017 39.8482ZM10.04 40.2302C10.0858 40.2075 10.1403 40.1507 10.1611 40.104C10.182 40.0575 10.1446 40.076 10.078 40.1454C10.0114 40.2148 9.99429 40.253 10.04 40.2302ZM30.8855 18.5968C30.9165 18.5944 30.9599 18.5524 30.9818 18.5036C31.0062 18.4496 30.9841 18.4513 30.9255 18.508C30.8725 18.5594 30.8545 18.5993 30.8855 18.5968ZM29.5535 20.037C29.5934 20.0541 29.6638 20.0466 29.71 20.0202C29.7573 19.9933 29.7595 19.9668 29.715 19.9598C29.6705 19.9527 29.6754 19.8889 29.726 19.8142C29.7902 19.7195 29.7679 19.7279 29.6486 19.8435C29.5393 19.9494 29.5063 20.0167 29.5535 20.037ZM28.0532 21.673C28.1223 21.704 28.1516 21.75 28.1219 21.781C28.0935 21.8106 28.0871 21.851 28.1076 21.8707C28.1659 21.9266 28.3349 21.6947 28.3135 21.5882C28.2987 21.5144 28.3295 21.4797 28.45 21.4341C28.5356 21.4016 28.6157 21.3377 28.628 21.2918C28.6528 21.1993 28.1702 21.3904 28.0244 21.5307C27.9551 21.5975 27.9621 21.6321 28.0532 21.673ZM18.8544 31.167C18.8626 31.2079 18.8924 31.2172 18.9206 31.1878C18.9488 31.1585 18.9517 31.115 18.9271 31.0913C18.9024 31.0677 18.8726 31.0583 18.8608 31.0705C18.8491 31.0828 18.8462 31.1262 18.8544 31.167ZM18.3692 31.6223C18.3801 31.6328 18.4233 31.6306 18.4651 31.6175C18.507 31.6044 18.5199 31.5731 18.4938 31.548C18.4677 31.523 18.4245 31.5251 18.3979 31.5529C18.3712 31.5807 18.3583 31.6119 18.3692 31.6223ZM11.2945 39.0124C11.3396 38.9901 11.4058 38.9227 11.4415 38.8626C11.4772 38.8026 11.4403 38.8209 11.3595 38.9033C11.2787 38.9857 11.2495 39.0348 11.2945 39.0124ZM11.0278 39.2857C11.0587 39.2832 11.1021 39.2412 11.1241 39.1924C11.1484 39.1384 11.1263 39.1402 11.0678 39.1969C11.0148 39.2482 10.9968 39.2882 11.0278 39.2857ZM30.2327 19.4023C30.2409 19.4431 30.2707 19.4525 30.2989 19.4231C30.3271 19.3937 30.33 19.3503 30.3054 19.3266C30.2807 19.3029 30.2509 19.2935 30.2391 19.3058C30.2274 19.3181 30.2245 19.3615 30.2327 19.4023ZM24.4887 25.3512C24.5197 25.3487 24.5631 25.3067 24.585 25.2579C24.6094 25.2039 24.5873 25.2056 24.5287 25.2624C24.4757 25.3137 24.4577 25.3536 24.4887 25.3512ZM24.2465 25.6035C24.2775 25.601 24.3209 25.559 24.3429 25.5102C24.3672 25.4562 24.3451 25.4579 24.2865 25.5147C24.2335 25.566 24.2156 25.6059 24.2465 25.6035ZM23.8377 26.1099C23.8747 26.1454 23.8832 26.1971 23.8565 26.2249C23.8299 26.2526 23.7829 26.2511 23.7521 26.2214C23.7106 26.1814 23.5936 26.282 23.2983 26.6111C23.0576 26.8795 22.9289 27.0594 22.9727 27.0663C23.0124 27.0726 23.0721 27.0268 23.1053 26.9646C23.1385 26.9024 23.2595 26.8149 23.374 26.7702C23.5586 26.6983 23.5766 26.6797 23.5311 26.6083C23.4737 26.5182 23.6676 26.2821 23.7839 26.3006C23.865 26.3135 24.0776 26.1178 24.0811 26.027C24.0846 25.936 23.9109 25.8989 23.8379 25.975C23.8008 26.0136 23.8007 26.0743 23.8377 26.1099ZM19.3818 30.7522C19.4898 30.7537 19.4895 30.7747 19.3795 30.8893C19.3052 30.9667 19.2817 31.0297 19.3244 31.0365C19.3655 31.043 19.4451 31.0005 19.5013 30.942C19.5574 30.8835 19.6022 30.8657 19.6008 30.9024C19.5994 30.9392 19.4156 31.1471 19.1925 31.3645C18.83 31.7176 18.798 31.764 18.8929 31.7995C18.9629 31.8256 18.9714 31.854 18.9181 31.8825C18.8735 31.9063 18.8197 31.8984 18.7986 31.8648C18.7775 31.8312 18.7045 31.8619 18.6363 31.9329C18.566 32.0061 18.5447 32.0672 18.5872 32.0739C18.6283 32.0804 18.6388 32.1098 18.6106 32.1392C18.5825 32.1686 18.5392 32.1733 18.5145 32.1496C18.4399 32.078 18.2831 32.2901 18.3294 32.4002C18.3532 32.4565 18.3866 32.5016 18.4038 32.5002C18.4209 32.4988 18.6552 32.2792 18.9245 32.0122C19.2819 31.6577 19.4044 31.5064 19.3782 31.4517C19.3585 31.4106 19.3854 31.332 19.438 31.2772C19.4907 31.2223 19.5405 31.2109 19.5487 31.2517C19.5573 31.295 19.6253 31.2617 19.7117 31.1716C19.7932 31.0867 19.8397 30.9979 19.815 30.9742C19.7904 30.9505 19.8508 30.8471 19.9494 30.7444C20.1453 30.5403 20.0486 30.4976 19.8184 30.6865C19.716 30.7706 19.6479 30.7729 19.5436 30.6958C19.4586 30.633 19.3758 30.6238 19.3296 30.672C19.2681 30.7361 19.2777 30.7508 19.3818 30.7522ZM14.5988 35.8078C14.5584 35.8756 14.6268 35.8213 14.7509 35.6871C14.8749 35.5529 14.9587 35.426 14.9369 35.4052C14.9152 35.3843 14.8648 35.4286 14.8248 35.5036C14.7692 35.6077 14.7471 35.6164 14.7308 35.5402C14.714 35.4618 14.7055 35.4666 14.6909 35.5624C14.6807 35.6295 14.6392 35.7399 14.5988 35.8078ZM20.6393 29.487C20.6804 29.4935 20.7345 29.4775 20.7596 29.4514C20.7847 29.4253 20.785 29.3845 20.7604 29.3609C20.7357 29.3372 20.6815 29.3532 20.64 29.3965C20.5985 29.4397 20.5981 29.4805 20.6393 29.487ZM25.8423 24.156C25.8046 24.3078 25.7532 24.3613 25.697 24.3074C25.6723 24.2837 25.7015 24.2135 25.7618 24.1514C25.8505 24.0602 25.8659 24.061 25.8423 24.156ZM21.309 28.918C21.3454 28.9529 21.3224 29.0464 21.2559 29.1336C21.1617 29.257 21.1822 29.2504 21.3597 29.1C21.5615 28.9291 21.572 28.9038 21.4795 28.815C21.4232 28.761 21.3482 28.7484 21.3113 28.7869C21.2747 28.825 21.2736 28.884 21.309 28.918ZM19.7814 30.4572C19.8039 30.4788 19.9111 30.4063 20.0196 30.296C20.1281 30.1857 20.1923 30.0916 20.1624 30.0869C20.0811 30.074 19.7339 30.4115 19.7814 30.4572ZM34.92 14.7881C34.9282 14.829 34.9689 14.8269 35.0104 14.7837C35.0519 14.7405 35.0658 14.6857 35.0411 14.662C35.0164 14.6383 34.9758 14.6403 34.9507 14.6664C34.9256 14.6926 34.9118 14.7473 34.92 14.7881ZM25.3086 24.8071C25.3347 24.8322 25.3664 24.8142 25.3791 24.767C25.3918 24.7199 25.449 24.6882 25.5062 24.6967C25.5886 24.7087 25.5941 24.696 25.5326 24.6358C25.4842 24.5885 25.4182 24.5978 25.358 24.6606C25.3047 24.7161 25.2825 24.7821 25.3086 24.8071ZM24.6167 25.5003C24.6351 25.518 24.7027 25.4779 24.7668 25.4112C24.8308 25.3445 24.8579 25.2859 24.8271 25.281C24.7963 25.2761 24.7288 25.3161 24.677 25.37C24.6253 25.4239 24.5982 25.4825 24.6167 25.5003ZM15.4013 35.1238C15.4424 35.1303 15.5224 35.0845 15.5791 35.0221C15.6783 34.9126 15.6772 34.9108 15.5466 34.9724C15.3602 35.0603 15.3128 35.1097 15.4013 35.1238ZM11.8414 38.8326C11.8661 38.8563 11.8375 38.9271 11.778 38.9899C11.7185 39.0527 11.6566 39.1569 11.6405 39.2215C11.619 39.3081 11.671 39.2817 11.8388 39.1209C11.9638 39.001 12.1504 38.8311 12.2534 38.7433C12.3564 38.6556 13.1985 37.806 14.1248 36.8555C15.051 35.9049 15.663 35.249 15.4848 35.3978C15.3065 35.5467 15.0392 35.7699 14.8906 35.894C14.32 36.3706 13.684 37.0025 13.6991 37.0777C13.7075 37.1194 13.6792 37.1646 13.6362 37.178C13.5932 37.1915 13.5324 37.2798 13.501 37.3743C13.4696 37.4688 13.3896 37.5733 13.3232 37.6065C13.2569 37.6397 13.0424 37.8267 12.8467 38.022C12.651 38.2173 12.4634 38.3792 12.4299 38.3819C12.3964 38.3846 12.3058 38.4749 12.2285 38.5827C12.1169 38.7385 12.0732 38.7643 12.015 38.7084C11.9748 38.6698 11.9092 38.6723 11.8692 38.7139C11.8293 38.7555 11.8168 38.809 11.8414 38.8326ZM10.4279 40.3278C10.4502 40.3944 10.4388 40.4062 10.3714 40.3866C10.2807 40.3605 9.85718 40.7633 9.87611 40.8578C9.88229 40.8883 9.97624 40.8066 10.0849 40.6761C10.2083 40.5278 10.3011 40.4565 10.3319 40.4861C10.4067 40.5579 10.6188 40.3055 10.5737 40.1983C10.5258 40.0845 10.3876 40.2072 10.4279 40.3278ZM21.6941 28.6574C21.7352 28.6639 21.8261 28.6068 21.896 28.5305C22.0096 28.4065 22.0087 28.3985 21.8878 28.4556C21.6997 28.5443 21.6048 28.6432 21.6941 28.6574ZM17.1413 33.4007C17.1825 33.4072 17.1712 33.4593 17.1164 33.5165C17.0615 33.5736 16.9965 33.601 16.9718 33.5773C16.9188 33.5265 16.8369 33.6358 16.8204 33.7794C16.8051 33.9113 17.156 33.7502 17.2581 33.5786C17.2975 33.5123 17.3664 33.4638 17.4111 33.471C17.4558 33.478 17.5251 33.4498 17.565 33.4082C17.605 33.3665 17.6014 33.3267 17.5571 33.3197C17.5013 33.3108 17.5546 33.2446 17.7306 33.1042C17.8848 32.9812 17.9676 32.885 17.9411 32.8595C17.9171 32.8365 17.7605 32.9363 17.5932 33.0815C17.4258 33.2267 17.2602 33.333 17.225 33.3178C17.1898 33.3027 17.1398 33.3125 17.1138 33.3396C17.0878 33.3667 17.1002 33.3942 17.1413 33.4007ZM15.7531 34.8401C15.8126 34.8221 15.9179 34.7334 15.9872 34.6428C16.0841 34.5161 16.139 34.4917 16.2261 34.5369C16.2883 34.5692 16.3577 34.5762 16.3804 34.5526C16.4327 34.4981 16.2303 34.4166 16.1172 34.4466C16.0705 34.459 15.9451 34.56 15.8386 34.671C15.7064 34.8087 15.6792 34.8624 15.7531 34.8401ZM32.8492 17.1147C32.9026 17.166 33.1325 17.0118 33.1171 16.9351C33.1103 16.9016 33.0672 16.8929 33.0213 16.9157C32.885 16.9835 32.8068 17.074 32.8492 17.1147ZM32.2248 17.7757C32.2494 17.7994 32.2901 17.7974 32.3152 17.7713C32.3403 17.7451 32.3541 17.6904 32.3459 17.6496C32.3377 17.6087 32.2969 17.6108 32.2554 17.654C32.2139 17.6973 32.2001 17.752 32.2248 17.7757ZM31.3481 18.6793C31.4159 18.7444 31.784 18.3898 31.8508 18.195C31.9094 18.0244 31.8917 18.0341 31.6111 18.3258C31.4445 18.4992 31.3261 18.6582 31.3481 18.6793ZM31.2164 18.851C31.276 18.8962 31.332 18.8171 31.295 18.7399C31.2761 18.7004 31.2425 18.703 31.2204 18.7458C31.1983 18.7886 31.1965 18.8359 31.2164 18.851ZM30.9288 19.4335C30.9498 19.4573 30.9684 19.3974 30.9703 19.3004C30.9727 19.1808 30.9463 19.132 30.8883 19.149C30.8108 19.1716 30.8324 19.3237 30.9288 19.4335ZM30.3464 19.6974C30.2829 19.8337 30.3544 19.9039 30.4526 19.8016C30.4942 19.7583 30.5345 19.7543 30.5421 19.7926C30.5499 19.831 30.5971 19.8137 30.647 19.7541C30.7405 19.6427 30.647 19.5217 30.4948 19.557C30.3952 19.58 30.4059 19.5699 30.3464 19.6974ZM11.3499 39.5243C11.3746 39.5479 11.4326 39.5272 11.4789 39.4784C11.5507 39.4023 11.546 39.3943 11.4468 39.4233C11.3007 39.466 11.2952 39.4717 11.3499 39.5243ZM29.9437 20.2921C30.1147 20.2082 30.1317 20.2113 30.069 20.3153C30.0103 20.4127 30.0206 20.4124 30.123 20.3141C30.1962 20.2439 30.2384 20.1346 30.2231 20.0558C30.1985 19.9305 30.1774 19.9388 29.971 20.1542C29.7479 20.387 29.7476 20.3882 29.9437 20.2921ZM29.3296 21.0353C29.4047 21.1464 29.4283 21.1461 29.4946 21.0329C29.5372 20.9604 29.6583 20.8093 29.7638 20.6973C29.919 20.5324 29.9303 20.5021 29.8235 20.5385C29.7509 20.5633 29.6855 20.5534 29.678 20.5165C29.6707 20.4796 29.5695 20.5521 29.4534 20.6776C29.2682 20.8775 29.2529 20.9217 29.3296 21.0353ZM27.8999 22.5117C27.9132 22.6253 27.8921 22.66 27.8055 22.6669C27.6502 22.6792 27.5546 22.7941 27.6353 22.8715C27.6877 22.9219 27.7633 22.8713 27.9775 22.6426C28.1288 22.4811 28.215 22.3676 28.1693 22.3904C27.9737 22.4876 28.0234 22.3325 28.2703 22.0753C28.5584 21.7751 28.7085 21.7641 28.4814 22.0598C28.3947 22.1725 28.449 22.1351 28.6249 21.9608C28.7836 21.8035 28.9006 21.6451 28.8915 21.5998C28.8798 21.5417 28.9036 21.5169 28.9767 21.5111C29.0324 21.5067 29.1107 21.469 29.1507 21.4273C29.2044 21.3714 29.196 21.3538 29.1187 21.36C29.0611 21.3645 28.997 21.3278 28.9761 21.2782C28.9441 21.2021 28.8566 21.2792 28.4104 21.7768C27.9675 22.2708 27.8853 22.389 27.8999 22.5117ZM26.8045 23.6248C26.8542 23.6733 27.1736 23.3219 27.1566 23.2373C27.1478 23.1934 27.0684 23.2493 26.9565 23.3784C26.8546 23.496 26.7862 23.607 26.8045 23.6248ZM25.0468 25.4284C25.07 25.4507 25.1232 25.4582 25.1649 25.4451C25.2978 25.4034 26.5839 24.0191 26.641 23.8562C26.6701 23.7734 26.024 24.3541 25.5326 24.8524C25.2298 25.1596 25.0226 25.4051 25.0468 25.4284ZM22.9488 27.6662C22.945 27.7648 23.0527 27.6847 23.5272 27.2359C24.0137 26.7757 24.447 26.2099 24.3697 26.1357C24.3303 26.0979 22.952 27.5826 22.9488 27.6662ZM21.2422 29.484C21.5805 29.1833 21.7964 28.9203 21.6737 28.9583C21.6322 28.9712 21.4473 29.1577 21.2629 29.3727L20.9276 29.7637L21.2422 29.484ZM20.3514 30.3256C20.3761 30.3493 20.4058 30.3587 20.4176 30.3464C20.4294 30.3341 20.4322 30.2907 20.424 30.2499C20.4158 30.2091 20.386 30.1997 20.3578 30.2291C20.3296 30.2585 20.3267 30.3019 20.3514 30.3256ZM19.2616 31.461C19.3028 31.4675 19.3024 31.5082 19.2609 31.5515C19.2194 31.5947 19.1652 31.6108 19.1406 31.5871C19.1159 31.5634 19.1162 31.5227 19.1413 31.4966C19.1664 31.4704 19.2205 31.4544 19.2616 31.461ZM9.20652 41.9085C9.18456 41.9573 9.14115 41.9993 9.11018 42.0017C9.07921 42.0042 9.0972 41.9643 9.15018 41.9129C9.20876 41.8562 9.23087 41.8545 9.20652 41.9085ZM20.6072 30.1405C20.6444 30.1464 20.708 30.0957 20.7483 30.0278C20.8493 29.858 20.8118 29.846 20.6634 30.0006C20.5952 30.0716 20.5699 30.1346 20.6072 30.1405ZM18.0926 32.7384C18.1383 32.7157 18.1928 32.6589 18.2137 32.6122C18.2345 32.5656 18.1971 32.5842 18.1305 32.6536C18.0639 32.723 18.0469 32.7612 18.0926 32.7384ZM15.8647 35.0596C15.9104 35.0369 15.9649 34.9801 15.9857 34.9334C16.0066 34.8868 15.9692 34.9054 15.9026 34.9748C15.836 35.0442 15.8189 35.0823 15.8647 35.0596ZM9.79919 41.7683C9.80739 41.8092 9.80451 41.8526 9.79274 41.8648C9.78097 41.8771 9.7512 41.8677 9.72654 41.844C9.70187 41.8203 9.70479 41.7769 9.73298 41.7475C9.76117 41.7182 9.79099 41.7275 9.79919 41.7683ZM8.51054 43.0825C8.48858 43.1313 8.44517 43.1733 8.4142 43.1757C8.38322 43.1782 8.40122 43.1383 8.45419 43.0869C8.51277 43.0302 8.53488 43.0285 8.51054 43.0825ZM28.8745 22.9944C28.893 23.0122 29.3457 22.5633 29.8805 21.9969C30.5537 21.284 30.7184 21.0916 30.416 21.3717C29.7883 21.953 28.8351 22.9564 28.8745 22.9944ZM28.4066 23.5149C28.416 23.5239 28.5249 23.4213 28.6485 23.2866C28.8418 23.0761 28.8486 23.0589 28.6974 23.1639C28.533 23.2779 28.3677 23.4776 28.4066 23.5149ZM30.915 20.9055C30.9607 20.8828 31.0152 20.826 31.0361 20.7793C31.0569 20.7327 31.0195 20.7513 30.9529 20.8207C30.8863 20.8901 30.8693 20.9283 30.915 20.9055ZM35.394 16.4304C35.3809 16.485 35.5975 16.2952 35.8817 16.0029C36.163 15.7138 36.3711 15.4737 36.3443 15.4695C36.271 15.4579 35.4213 16.3172 35.394 16.4304ZM13.2966 39.5325C13.2746 39.5814 13.2312 39.6234 13.2002 39.6258C13.1692 39.6283 13.1872 39.5884 13.2402 39.537C13.2988 39.4803 13.3209 39.4785 13.2966 39.5325ZM16.8776 35.8843C16.9086 35.8819 16.952 35.8399 16.9739 35.791C16.9983 35.737 16.9762 35.7388 16.9176 35.7955C16.8646 35.8469 16.8466 35.8868 16.8776 35.8843ZM33.8059 18.4397C33.529 18.7441 33.0495 19.2437 32.7405 19.5499C32.4314 19.8561 32.6581 19.607 33.2441 18.9964C33.8301 18.3858 34.0829 18.1353 33.8059 18.4397ZM29.4864 22.9825C29.4845 23.0323 29.4345 23.1077 29.3753 23.1499C29.2957 23.2068 29.2966 23.1832 29.3788 23.0592C29.4505 22.9511 29.4886 22.924 29.4864 22.9825ZM14.4482 38.602C14.4263 38.6508 14.3828 38.6928 14.3519 38.6953C14.3209 38.6978 14.3389 38.6578 14.3919 38.6065C14.4504 38.5498 14.4726 38.548 14.4482 38.602ZM29.1235 23.4044C29.074 23.4775 28.9864 23.5679 28.9289 23.6054C28.8714 23.6429 28.9119 23.5831 29.019 23.4725C29.126 23.362 29.1731 23.3313 29.1235 23.4044ZM28.4455 24.1109C28.3959 24.1839 28.3084 24.2744 28.2508 24.3118C28.1933 24.3493 28.2338 24.2895 28.3409 24.179C28.4479 24.0684 28.495 24.0378 28.4455 24.1109ZM26.9445 25.6762C26.8675 25.7764 26.7365 25.9125 26.6535 25.9785C26.5704 26.0445 26.6335 25.9625 26.7936 25.7962C26.9537 25.6299 27.0216 25.5759 26.9445 25.6762ZM26.2421 26.4074C26.1788 26.4939 26.0695 26.6072 25.9993 26.6591C25.9291 26.711 25.981 26.6401 26.1145 26.5016C26.248 26.3632 26.3054 26.3208 26.2421 26.4074ZM19.8967 33.0158C19.8614 33.0752 19.7851 33.1547 19.7272 33.1924C19.6694 33.2301 19.6982 33.1815 19.7915 33.0844C19.8847 32.9873 19.9321 32.9564 19.8967 33.0158ZM19.0964 33.8472C19.0755 33.8939 19.021 33.9507 18.9753 33.9734C18.9295 33.9962 18.9466 33.958 19.0132 33.8886C19.0798 33.8192 19.1172 33.8006 19.0964 33.8472Z" fill="#1F2B3A"/>
</svg>
