<svg width="206" height="352" viewBox="0 0 206 352" fill="none" xmlns="http://www.w3.org/2000/svg">
<path d="M21.4827 349.283C22.7434 351.74 25.7571 352.709 28.2139 351.449C30.6707 350.188 31.6404 347.174 30.3796 344.717L21.4827 349.283ZM23.669 330.178C22.6191 327.623 19.6975 326.404 17.1435 327.454C14.5894 328.504 13.3701 331.426 14.42 333.98L23.669 330.178ZM4.38799 301.839C4.97466 304.538 7.63772 306.249 10.3361 305.663C13.0345 305.076 14.7464 302.413 14.1597 299.715L4.38799 301.839ZM10.1488 268.075C10.0396 265.315 7.71428 263.167 4.95502 263.276C2.19575 263.385 0.0474582 265.711 0.156663 268.47L10.1488 268.075ZM1.57556 234.906C1.24223 237.647 3.19422 240.14 5.93545 240.473C8.67669 240.806 11.1691 238.854 11.5024 236.113L1.57556 234.906ZM17.6518 204.608C18.3638 201.94 16.7781 199.199 14.11 198.487C11.4419 197.775 8.70187 199.361 7.98989 202.029L17.6518 204.608ZM18.5495 170.343C17.5271 172.908 18.7777 175.816 21.3429 176.839C23.9081 177.861 26.8164 176.61 27.8388 174.045L18.5495 170.343ZM41.3315 144.681C42.6052 142.23 41.6514 139.212 39.2013 137.938C36.7511 136.664 33.7324 137.618 32.4587 140.068L41.3315 144.681ZM49.0725 111.27C47.5937 113.602 48.2855 116.691 50.6176 118.17C52.9497 119.649 56.0391 118.957 57.5178 116.625L49.0725 111.27ZM75.9367 89.9034C77.5869 87.6892 77.1297 84.5566 74.9156 82.9064C72.7014 81.2563 69.5688 81.7135 67.9186 83.9276L75.9367 89.9034ZM88.645 58.0489C86.8463 60.1441 87.0867 63.3008 89.1819 65.0995C91.2772 66.8983 94.4339 66.6579 96.2326 64.5626L88.645 58.0489ZM118.196 40.6468C120.131 38.6769 120.103 35.5112 118.133 33.576C116.163 31.6408 112.997 31.6689 111.062 33.6388L118.196 40.6468ZM135.172 10.7845C133.098 12.6074 132.894 15.7666 134.717 17.8409C136.54 19.9152 139.699 20.1189 141.774 18.2961L135.172 10.7845ZM30.3796 344.717C27.8974 339.88 25.6646 335.032 23.669 330.178L14.42 333.98C16.5229 339.095 18.8733 344.198 21.4827 349.283L30.3796 344.717ZM14.1597 299.715C11.8642 289.156 10.5652 278.595 10.1488 268.075L0.156663 268.47C0.595161 279.55 1.96411 290.69 4.38799 301.839L14.1597 299.715ZM11.5024 236.113C12.7919 225.509 14.8811 214.99 17.6518 204.608L7.98989 202.029C5.10853 212.827 2.92557 223.804 1.57556 234.906L11.5024 236.113ZM27.8388 174.045C31.823 164.049 36.3604 154.244 41.3315 144.681L32.4587 140.068C27.3467 149.902 22.6673 160.011 18.5495 170.343L27.8388 174.045ZM57.5178 116.625C63.3775 107.384 69.561 98.4582 75.9367 89.9034L67.9186 83.9276C61.4033 92.6697 55.0759 101.802 49.0725 111.27L57.5178 116.625ZM96.2326 64.5626C103.551 56.0374 110.932 48.0406 118.196 40.6468L111.062 33.6388C103.647 41.1871 96.1141 49.3485 88.645 58.0489L96.2326 64.5626ZM141.774 18.2961C146.037 14.5492 150.171 11.0775 154.13 7.89892L147.87 0.10108C143.79 3.37691 139.542 6.94442 135.172 10.7845L141.774 18.2961Z" fill="#00CA9A"/>
</svg>
