<svg width="48" height="46" viewBox="0 0 48 46" fill="none" xmlns="http://www.w3.org/2000/svg">
<path fill-rule="evenodd" clip-rule="evenodd" d="M35.8007 27.3094C35.3588 26.9681 34.9677 26.6752 34.9314 26.6585C34.8951 26.6418 35.0585 26.8142 35.2945 27.0415C35.7224 27.4537 35.7216 27.4532 35.0165 26.883C34.6276 26.5684 34.0426 26.1147 33.7167 25.8746C33.3066 25.5726 33.5003 25.7442 34.3451 26.4313C36.276 28.0017 38.2545 29.6193 38.5049 29.8321C38.6446 29.9509 38.7373 29.9977 38.7416 29.9519C38.7462 29.9024 39.2276 30.2808 40.1445 31.055C41.1353 31.8915 41.5173 32.2396 41.4609 32.2548C41.4109 32.2682 41.4316 32.3114 41.5171 32.3715C41.5917 32.424 41.6782 32.5101 41.7091 32.5628C41.7402 32.6155 42.107 32.9861 42.5243 33.3863C42.9416 33.7864 43.3574 34.2089 43.4481 34.325C43.5389 34.441 43.6281 34.5183 43.6464 34.4967C43.6919 34.4427 43.5769 34.2918 42.8647 33.4709C42.7754 33.368 42.6128 33.1703 42.5033 33.0317C42.2674 32.733 37.0003 28.2363 35.8007 27.3094ZM19.4851 13.6199C19.2116 13.4343 19.217 13.4425 19.5753 13.7571C19.9527 14.0883 20.0856 14.1661 19.8817 13.9363C19.8236 13.8709 19.6452 13.7285 19.4851 13.6199ZM18.8775 13.147C18.8119 13.1054 18.5362 12.9076 18.2648 12.7072C17.9935 12.5068 17.7582 12.3586 17.7419 12.3779C17.7256 12.3971 17.7976 12.4703 17.902 12.5406C18.0474 12.6386 18.063 12.6642 17.9691 12.6508C17.876 12.6375 17.9053 12.6808 18.0912 12.8314C18.3143 13.0121 18.3244 13.0145 18.2061 12.858L18.0764 12.6864L18.2772 12.8462C18.3875 12.934 18.4697 13.0318 18.4599 13.0634C18.4497 13.096 18.6507 13.2708 18.9262 13.4688C19.4485 13.8442 19.4554 13.8187 18.9481 13.3886C18.7721 13.2393 18.697 13.1575 18.7812 13.2068C18.926 13.2914 19.1781 13.3396 19.0532 13.2587C19.0223 13.2387 18.9432 13.1884 18.8775 13.147ZM37.298 28.7118C37.1077 28.567 36.795 28.3031 36.6031 28.1254C36.4112 27.9477 36.5669 28.0662 36.949 28.3887C37.3312 28.7113 37.4882 28.8566 37.298 28.7118ZM38.047 29.338C37.9992 29.3202 37.939 29.2694 37.9134 29.2252C37.8878 29.181 37.927 29.1956 38.0004 29.2576C38.0739 29.3197 38.0949 29.3559 38.047 29.338ZM42.0686 32.8147C42.0207 32.7969 41.9606 32.7461 41.935 32.7019C41.9094 32.6577 41.9485 32.6723 42.022 32.7344C42.0955 32.7964 42.1165 32.8326 42.0686 32.8147ZM42.4439 33.1311C42.3968 33.1136 42.3239 33.0535 42.2821 32.9975C42.2403 32.9416 42.2789 32.9559 42.3679 33.0294C42.4569 33.1029 42.4911 33.1487 42.4439 33.1311ZM19.528 13.8673C19.5693 13.9227 19.6535 13.9938 19.715 14.0252C19.7765 14.0567 19.7427 14.0114 19.6398 13.9246C19.537 13.8377 19.4866 13.812 19.528 13.8673ZM20.0368 14.2947C20.0624 14.3389 20.1225 14.3897 20.1704 14.4075C20.2183 14.4254 20.1973 14.3892 20.1238 14.3272C20.0503 14.2651 20.0112 14.2505 20.0368 14.2947ZM9.73922 5.73492C9.70514 5.74406 9.41303 5.52094 9.09006 5.23907C8.50398 4.72772 7.40414 3.9189 7.17714 3.83236C7.10119 3.80339 7.02442 3.83392 6.96743 3.91574C6.87045 4.055 6.87484 4.0666 7.13789 4.36468C7.35315 4.60867 7.30809 4.70227 7.07718 4.4908C6.92344 4.35001 6.90145 4.34918 6.81449 4.48079C6.73139 4.60654 6.70097 4.60885 6.57 4.49933C6.3823 4.34249 6.28081 4.32913 6.15762 4.44512C6.07751 4.52059 6.09302 4.57258 6.2473 4.74547C6.49698 5.02535 6.42617 5.07809 6.1006 4.85471C5.84342 4.67826 5.40412 4.60042 5.39206 4.7292C5.38901 4.76121 5.30243 4.74059 5.19964 4.68334C5.0381 4.59332 5.01535 4.59706 5.03174 4.7109C5.04218 4.78333 5.08223 4.86979 5.12076 4.90297C5.17351 4.94848 5.16237 4.95787 5.07543 4.94126C4.99467 4.92579 5.04234 4.99607 5.23485 5.17626C5.5062 5.43025 5.50799 5.43518 5.38398 5.59181C5.315 5.67905 5.2405 5.73509 5.21848 5.7165C5.19646 5.69791 5.1423 5.72541 5.09819 5.77766C5.03875 5.84806 4.97852 5.8422 4.86555 5.75504C4.73268 5.65253 4.72649 5.65325 4.81724 5.76087C4.94988 5.91809 5.12255 6.28526 5.02577 6.2042C4.98487 6.16991 4.94081 6.18372 4.92506 6.23576C4.8835 6.37324 4.73181 6.33824 4.33149 6.09887C3.97335 5.88468 3.79718 5.81828 3.96664 5.96136C4.01565 6.00274 4.02866 6.06864 3.99558 6.10783C3.94877 6.16326 3.86418 6.11894 3.61476 5.90835C3.26899 5.61642 3.08486 5.61636 3.40885 5.90829C3.52952 6.01701 3.55139 6.05313 3.46616 6.00305C3.39045 5.95849 3.31298 5.94052 3.29394 5.96309C3.27489 5.98565 3.1993 5.97684 3.12597 5.94356C3.05268 5.91024 2.98988 5.91328 2.98641 5.95013C2.98295 5.98708 2.884 5.97082 2.76653 5.91403C2.58196 5.82483 2.60677 5.85758 2.94891 6.1549C3.3555 6.50828 3.32855 6.5712 2.88519 6.30378C2.68864 6.18518 2.65421 6.18313 2.6596 6.29027C2.66467 6.39203 2.68505 6.41224 2.76379 6.39378C2.83985 6.3759 2.86189 6.40672 2.86287 6.53219C2.86407 6.68006 2.85069 6.68886 2.70339 6.63772C2.5658 6.5899 2.58189 6.62138 2.81459 6.85609C3.05865 7.10218 3.06989 7.12639 2.92414 7.09226C2.83484 7.07139 2.64452 6.97969 2.5012 6.88846C2.05576 6.60497 1.98492 6.64214 2.35734 6.96398L2.70139 7.26121L2.11892 7.02954L1.53644 6.79787L1.7836 7.04723L2.03076 7.29659L1.66161 7.095C1.40365 6.95417 1.30424 6.925 1.33149 6.99812C1.35297 7.05572 1.41708 7.14523 1.47398 7.1971C1.57671 7.29075 1.57647 7.29103 1.44046 7.23876C1.34111 7.20053 1.38911 7.27767 1.61526 7.51962C1.89776 7.82176 1.9056 7.83774 1.69889 7.68965C1.57342 7.59974 1.43106 7.52691 1.38254 7.52767C1.32788 7.52855 1.53583 7.73545 1.92982 8.07208C2.4206 8.49141 2.52265 8.59767 2.37806 8.53864C2.26949 8.49441 2.16079 8.49783 2.1194 8.54685C2.06149 8.61544 1.94032 8.56944 1.47913 8.30372C1.16629 8.12348 0.949061 8.02201 0.996393 8.07816C1.06525 8.15989 1.06045 8.17609 0.972396 8.15928C0.891496 8.14386 0.897436 8.16848 0.994795 8.25255C1.0676 8.3154 1.14573 8.4166 1.16849 8.47747C1.21445 8.6004 1.18159 8.59324 0.850636 8.40812C0.760364 8.35761 0.6479 8.33556 0.600639 8.35912C0.528705 8.39488 0.614797 8.48026 1.13093 8.88462C1.58627 9.2414 1.71466 9.36331 1.62291 9.35174C1.51821 9.3386 1.51653 9.34915 1.61201 9.41886C1.80137 9.55692 1.82765 9.60515 1.70182 9.58353C1.62028 9.56953 1.69366 9.63864 1.93125 9.79969C2.3662 10.0944 2.34619 10.0767 3.18809 10.9132C3.70403 11.4257 4.50981 12.1186 6.29063 13.581C7.76887 14.7949 9.13315 15.9585 9.82965 16.5993C12.125 18.7113 12.3559 18.9184 12.3482 18.8584C12.3439 18.8247 12.1013 18.5755 11.809 18.3044C11.5167 18.0335 11.2708 17.7733 11.2625 17.7265C11.242 17.6096 15.8401 21.4995 17.4127 22.9294C18.3148 23.7496 25.2903 29.7536 27.7384 31.817C28.2846 32.2774 30.7158 34.2272 30.8386 34.3033C30.94 34.3662 30.9782 34.4153 30.9348 34.427C30.8951 34.4376 30.8868 34.4666 30.9162 34.4914C30.9456 34.5162 31.0025 34.5277 31.0427 34.5169C31.1386 34.4912 31.3352 34.6584 31.2825 34.7208C31.2372 34.7745 32.497 35.8436 33.4622 36.5707C33.9042 36.9036 34.0369 37.0274 34.0181 37.0894C34.0046 37.1342 34.0284 37.2004 34.0711 37.2364C34.1138 37.2725 34.1519 37.268 34.1558 37.2266C34.1597 37.1851 34.2094 37.1843 34.2664 37.2247C34.3233 37.2651 34.41 37.3239 34.459 37.3553C34.508 37.3867 34.6826 37.5215 34.8469 37.6548C35.029 37.8025 35.1314 37.8586 35.109 37.7985C35.0726 37.7009 35.4824 37.9845 36.6001 38.8309C37.162 39.2564 37.4712 39.3838 37.072 39.0255C36.9446 38.9111 36.8204 38.7922 36.7962 38.7613C36.7719 38.7304 36.5281 38.5068 36.2544 38.2645L35.7569 37.8238L36.1355 38.0802C36.3437 38.2212 36.7561 38.5294 37.052 38.7653C37.3478 39.0011 37.6153 39.1872 37.6464 39.1789C37.6775 39.1706 37.7511 39.2044 37.8098 39.254C37.8686 39.3036 37.9195 39.3147 37.9229 39.2787C37.9263 39.2422 37.8128 39.1449 37.6676 39.0596C37.3746 38.8876 37.1214 38.6928 37.1886 38.6911C37.2787 38.6887 38.5291 39.454 38.5837 39.5448C38.6156 39.5979 38.6816 39.6185 38.7348 39.592C38.8017 39.5587 38.9129 39.6119 39.1179 39.7756L39.4067 40.0062L39.1364 39.73C38.9238 39.5126 38.902 39.4736 39.034 39.5469C39.1263 39.5981 39.304 39.7535 39.429 39.8922C39.5539 40.0309 39.6653 40.1446 39.6764 40.145C39.6876 40.1453 39.6994 40.0647 39.7027 39.9657C39.7067 39.8466 39.6774 39.7867 39.6159 39.7882C39.5542 39.7898 39.4803 39.726 39.397 39.5992C39.173 39.2587 39.2369 39.2786 39.6894 39.6903C40.005 39.9775 40.1357 40.0701 40.1412 40.0108C40.146 39.9593 40.198 39.9657 40.2761 40.0271C40.3892 40.1161 39.9441 39.5778 39.5654 39.1676C39.4865 39.0822 39.6053 39.161 39.8294 39.3429C40.0535 39.5247 40.2904 39.6831 40.3559 39.695C40.4546 39.713 40.4569 39.701 40.3693 39.625C40.3112 39.5745 40.2466 39.4802 40.2258 39.4154C40.1982 39.3292 40.2494 39.3632 40.4163 39.5418C40.7149 39.8611 40.82 39.8788 40.7892 39.6048C40.7756 39.4835 40.7938 39.4138 40.8309 39.4452C40.8672 39.4758 40.9 39.4669 40.9039 39.4255C40.9078 39.384 40.8105 39.2646 40.6876 39.1602C40.5648 39.0558 40.447 38.9177 40.4259 38.8532C40.3983 38.7688 40.4589 38.811 40.642 39.0038C40.9009 39.2764 41.0623 39.3043 40.8816 39.0452C40.7908 38.915 40.792 38.9128 40.9338 38.9563C41.049 38.9917 41.0366 38.9721 40.874 38.8618C40.6396 38.7028 40.5001 38.4097 40.6951 38.4858C40.7561 38.5097 40.8492 38.5656 40.9019 38.6102C40.9547 38.6548 41.0549 38.6844 41.1246 38.6761C41.2241 38.6643 41.2372 38.6492 41.1856 38.6056C41.1491 38.5748 41.1604 38.5299 41.2108 38.5049C41.2692 38.4757 41.2699 38.4307 41.2127 38.3787C41.1389 38.3116 41.1475 38.3066 41.2634 38.3491C41.3933 38.3967 41.3957 38.3877 41.2973 38.2207C41.239 38.1218 41.1568 38.0118 41.1146 37.9762C41.0725 37.9406 41.056 37.89 41.0781 37.8639C41.1001 37.8378 41.2582 37.9311 41.4294 38.0713L41.7405 38.3261L41.6018 38.0838C41.4514 37.8211 41.4909 37.6945 41.7055 37.751C41.7801 37.7706 42.123 37.9987 42.4675 38.2578C42.8119 38.517 43.1078 38.7125 43.1249 38.6923C43.1419 38.672 43.1079 38.5782 43.0492 38.4837C42.9599 38.3399 43.0062 38.3646 43.3332 38.6353C43.5548 38.8188 43.7412 38.9381 43.7639 38.9111C43.786 38.885 43.7545 38.8218 43.694 38.7707C43.6335 38.7197 43.6154 38.6694 43.6539 38.6591C43.6923 38.6488 43.749 38.6822 43.7797 38.7333C43.8104 38.7844 43.8525 38.8062 43.8732 38.7817C43.8939 38.7571 43.8167 38.6168 43.7017 38.4698C43.5242 38.2429 43.6117 38.3071 44.2814 38.8945L45.0703 39.5865L44.4488 38.9131C43.3614 37.7347 43.3798 37.757 43.5658 37.8448C43.7172 37.9162 43.721 37.9142 43.6164 37.8184C43.459 37.6742 43.4868 37.5573 43.6549 37.6563C43.732 37.7016 43.6971 37.6515 43.5762 37.5433C43.4567 37.4364 43.3688 37.321 43.3807 37.2869C43.3926 37.2529 43.1406 36.9741 42.8206 36.6674C42.2507 36.1211 42.2444 36.1124 42.5135 36.2418C42.6889 36.3261 43.0784 36.6253 43.5893 37.0682C44.3287 37.7091 44.4021 37.7603 44.5438 37.7342C44.6789 37.7093 44.7794 37.7719 45.3766 38.2523C45.9181 38.688 46.0672 38.7851 46.1126 38.7314C46.1439 38.6943 46.1486 38.6464 46.123 38.6248C46.0479 38.5614 45.2567 37.6483 45.1781 37.5343C45.0294 37.3186 45.1918 37.3501 45.4928 37.5952C45.8014 37.8465 45.8028 37.8468 45.6241 37.6294C45.5248 37.5086 45.2535 37.2444 45.0213 37.0424C44.6077 36.6827 44.0943 36.1386 44.2725 36.2488C44.4422 36.3538 43.9464 35.8228 43.5809 35.5082C43.2624 35.234 43.2129 35.1656 43.1923 34.9707L43.1688 34.7474L43.397 34.9328L43.6252 35.1181L43.4819 34.9172C43.403 34.8066 43.2858 34.6893 43.2215 34.6564C43.1571 34.6234 43.1195 34.5787 43.1378 34.5569C43.1562 34.5352 43.1374 34.472 43.0961 34.4167C43.0547 34.3613 43.1335 34.4022 43.271 34.5076L43.5212 34.6992L43.3111 34.4601C42.6244 33.6789 37.0892 28.8944 35.2145 27.4616C34.679 27.0523 33.9959 26.5116 33.6965 26.2598C33.3123 25.9369 33.1295 25.813 33.075 25.8388C33.0168 25.8662 32.9983 25.8523 33 25.7822C33.0019 25.7035 31.9376 24.7126 31.805 24.6695C31.6753 24.6273 17.6016 12.736 16.6853 11.8945C16.0757 11.3345 15.3795 10.6955 15.1382 10.4744C14.8969 10.2533 14.1697 9.60592 13.5222 9.03599C12.8746 8.46596 12.1137 7.78155 11.8312 7.5151C11.0146 6.74458 9.80679 5.71679 9.73922 5.73492ZM36.8871 28.6044C36.9141 28.6507 36.9616 28.6879 36.9927 28.6871C37.0237 28.6863 37.0017 28.6485 36.9436 28.603C36.8794 28.5527 36.8573 28.5533 36.8871 28.6044ZM35.4041 27.4337C35.431 27.4799 35.4786 27.5171 35.5096 27.5164C35.5407 27.5156 35.5186 27.4777 35.4606 27.4322C35.3964 27.3819 35.3742 27.3825 35.4041 27.4337ZM35.8316 27.7946C35.8585 27.8409 35.9061 27.8781 35.9372 27.8773C35.9682 27.8765 35.9462 27.8387 35.8881 27.7932C35.8239 27.7429 35.8017 27.7435 35.8316 27.7946ZM18.592 13.4039C18.6486 13.471 18.7567 13.5624 18.8325 13.6069C18.9082 13.6514 18.8619 13.5965 18.7296 13.4848C18.5973 13.3731 18.5354 13.3367 18.592 13.4039ZM29.2567 22.7295C29.2096 22.7119 29.1367 22.6518 29.0949 22.5959C29.0531 22.5399 29.0917 22.5542 29.1807 22.6277C29.2697 22.7012 29.3039 22.747 29.2567 22.7295ZM42.9647 34.2989C42.9337 34.2997 42.8861 34.2624 42.8592 34.2162C42.8293 34.165 42.8515 34.1644 42.9157 34.2147C42.9737 34.2602 42.9958 34.2981 42.9647 34.2989ZM34.9297 27.6594C34.9342 27.691 34.7456 27.5585 34.5103 27.3651C34.2751 27.1715 33.4603 26.5063 32.6995 25.8867C31.9388 25.2672 29.2626 23.0545 26.7525 20.9698C24.2422 18.885 22.0451 17.0831 21.8698 16.9656C21.5477 16.7496 21.2271 16.4143 21.3401 16.4116C21.4052 16.41 21.9186 16.8282 24.7693 19.2061C25.8574 20.1136 26.5703 20.678 26.5936 20.6504C26.6146 20.6255 26.6559 20.6453 26.6853 20.6943C26.7667 20.8297 28.552 22.3258 29.8801 23.3714C31.1786 24.3937 34.9165 27.5679 34.9297 27.6594ZM36.3609 28.7962C36.2936 28.7979 35.3741 28.0286 35.3646 27.9627C35.3602 27.9324 35.5932 28.1073 35.8822 28.3513C36.1712 28.5953 36.3866 28.7955 36.3609 28.7962ZM36.565 28.9769C36.5339 28.9777 36.4863 28.9405 36.4594 28.8942C36.4295 28.843 36.4517 28.8425 36.5159 28.8928C36.5739 28.9383 36.596 28.9761 36.565 28.9769ZM32.4608 25.6016C32.5177 25.669 32.6143 25.7498 32.6754 25.7811C32.7365 25.8123 32.69 25.7571 32.572 25.6584C32.4539 25.5596 32.4039 25.5341 32.4608 25.6016ZM39.7584 31.7664C39.7555 31.7974 39.4207 31.5422 39.0145 31.1993C38.6083 30.8564 38.2715 30.5445 38.266 30.5063C38.2604 30.4681 38.5952 30.7232 39.0098 31.0733C39.4246 31.4235 39.7614 31.7353 39.7584 31.7664ZM40.024 32.0109C39.8309 31.9434 39.7898 31.9087 39.8369 31.853C39.859 31.8269 39.9418 31.8628 40.0212 31.9329C40.1489 32.0458 40.1492 32.0547 40.024 32.0109ZM30.2333 23.8002C30.2602 23.8465 30.3078 23.8837 30.3388 23.8829C30.3699 23.8821 30.3478 23.8443 30.2898 23.7988C30.2256 23.7485 30.2034 23.7491 30.2333 23.8002ZM30.5498 24.0709C30.637 24.1626 30.7814 24.2842 30.8709 24.3412C30.9604 24.3981 30.8891 24.3231 30.7125 24.1745C30.5359 24.0258 30.4627 23.9792 30.5498 24.0709ZM19.6681 15.0734C19.6118 15.0621 19.554 15.0224 19.5398 14.9854C19.5255 14.9484 19.5599 14.9273 19.6162 14.9386C19.6725 14.95 19.7303 14.9897 19.7446 15.0267C19.7588 15.0637 19.7244 15.0847 19.6681 15.0734ZM20.6689 15.8499C20.6516 15.8704 20.4653 15.7374 20.2548 15.5544C19.9707 15.3074 19.9211 15.2473 20.0623 15.3215C20.3059 15.4493 20.7099 15.8014 20.6689 15.8499ZM21.2311 16.2682C21.1883 16.319 20.841 16.145 20.7859 16.0451C20.7408 15.9634 20.7632 15.9578 20.8929 16.0183C21.0935 16.1118 21.2595 16.2346 21.2311 16.2682ZM19.4309 14.873C19.393 14.8831 19.1772 14.735 18.9515 14.5437C18.7258 14.3524 18.5825 14.204 18.633 14.2138C18.773 14.241 19.5118 14.8513 19.4309 14.873ZM36.5382 29.284C36.491 29.2665 36.4182 29.2063 36.3764 29.1504C36.3346 29.0944 36.3732 29.1088 36.4621 29.1823C36.5511 29.2558 36.5854 29.3015 36.5382 29.284ZM40.2361 32.4915C40.1604 32.447 40.0521 32.3556 39.9956 32.2885C39.939 32.2213 40.001 32.2577 40.1332 32.3694C40.2655 32.481 40.3118 32.536 40.2361 32.4915ZM6.55502 5.13636C6.53297 5.16248 6.50434 5.17492 6.49135 5.16396C6.47837 5.15299 6.47097 5.11014 6.47486 5.06867C6.47875 5.02721 6.50743 5.01481 6.53853 5.04107C6.56964 5.06733 6.57708 5.11023 6.55502 5.13636ZM3.63091 5.65211C3.65785 5.69837 3.70542 5.7356 3.73648 5.73481C3.76753 5.73402 3.74547 5.69619 3.68741 5.65068C3.62323 5.60039 3.60106 5.60095 3.63091 5.65211ZM40.9456 38.5335C40.9146 38.5343 40.867 38.4971 40.8401 38.4508C40.8102 38.3996 40.8324 38.3991 40.8966 38.4494C40.9546 38.4949 40.9767 38.5327 40.9456 38.5335ZM3.29374 6.9391C3.27169 6.96522 3.22815 6.96507 3.19704 6.93881C3.16594 6.91255 3.17335 6.8822 3.21358 6.87141C3.25381 6.86063 3.29729 6.86073 3.31028 6.8717C3.32327 6.88266 3.3158 6.91297 3.29374 6.9391ZM18.5909 21.0803C18.5786 21.2115 18.4983 21.1738 18.4913 21.0334C18.4872 20.9526 18.5062 20.922 18.5417 20.9519C18.5729 20.9783 18.5951 21.0361 18.5909 21.0803ZM21.8811 24.0585C21.9275 24.0679 21.9685 24.0439 21.9721 24.0053C21.9759 23.965 22.1146 24.0499 22.2981 24.2048C22.4825 24.3605 22.6071 24.5034 22.5929 24.5431C22.5795 24.5809 22.6718 24.7185 22.7983 24.8489C23.1131 25.1738 22.973 25.1807 22.6266 24.8574C22.4183 24.6628 22.333 24.6125 22.2928 24.6602C22.2247 24.7408 22.0258 24.5797 22.057 24.4691C22.0705 24.4215 22.048 24.4216 22.0034 24.4693C21.9612 24.5147 21.916 24.5242 21.9031 24.4905C21.8901 24.4568 21.8043 24.4371 21.7122 24.4466C21.5158 24.4669 21.2486 24.2706 21.3343 24.1691C21.3782 24.1172 21.3399 24.0684 21.1741 23.9649C21.0031 23.8582 20.9739 23.8193 21.0387 23.7845C21.0841 23.76 21.1535 23.7711 21.193 23.8089C21.2325 23.8468 21.324 23.8742 21.3965 23.87C21.5109 23.8632 21.5008 23.8464 21.3193 23.7416C21.2044 23.6753 21.062 23.5972 21.0028 23.568C20.9435 23.5389 20.8981 23.4829 20.9017 23.4436C20.9054 23.4044 21.0426 23.46 21.2065 23.5674C21.3705 23.6747 21.5569 23.7588 21.6208 23.7544C21.7161 23.7478 21.7424 23.7729 21.7669 23.8939C21.7833 23.9751 21.8347 24.0492 21.8811 24.0585ZM29.4648 30.3685C29.4319 30.4075 29.0885 30.1512 29.0941 30.0917C29.0973 30.0572 29.1856 30.1012 29.2901 30.1895C29.3947 30.2778 29.4734 30.3584 29.4648 30.3685ZM19.4645 22.4152C19.3288 22.4828 19.3064 22.3728 19.4323 22.2565C19.5888 22.1118 19.5912 22.1116 19.5751 22.2446C19.567 22.3122 19.5172 22.3889 19.4645 22.4152ZM23.4026 25.4348C23.3554 25.4173 23.2826 25.3572 23.2408 25.3012C23.199 25.2452 23.2376 25.2596 23.3266 25.3331C23.4155 25.4066 23.4498 25.4523 23.4026 25.4348ZM25.1894 26.9756C24.801 26.7404 23.5839 25.7099 23.5348 25.5744C23.5074 25.4989 23.8249 25.7435 24.4778 26.3006C25.1509 26.8751 25.3759 27.0884 25.1894 26.9756ZM26.3118 27.8959C26.2218 27.8385 26.0896 27.7269 26.0179 27.6478C25.9462 27.5686 26.0199 27.6156 26.1815 27.7521C26.3432 27.8886 26.4019 27.9533 26.3118 27.8959ZM26.8217 28.322C26.7738 28.3042 26.7137 28.2535 26.6881 28.2092C26.6625 28.1651 26.7016 28.1796 26.7751 28.2417C26.8486 28.3037 26.8696 28.3399 26.8217 28.322ZM27.3561 28.7732C27.3083 28.7554 27.2481 28.7047 27.2225 28.6604C27.1969 28.6163 27.236 28.6308 27.3095 28.6929C27.383 28.7549 27.404 28.7911 27.3561 28.7732ZM18.2243 21.1306C18.1659 21.1997 17.8444 21.1764 17.7523 21.0964C17.6494 21.0069 17.6529 21.0038 17.844 21.0159L18.0427 21.0285L17.8291 20.8168C17.6414 20.6309 17.6536 20.6357 17.9296 20.8562C18.1025 20.9944 18.2351 21.1178 18.2243 21.1306ZM18.4724 21.3494C18.4414 21.3502 18.3938 21.313 18.3669 21.2667C18.337 21.2156 18.3592 21.215 18.4234 21.2653C18.4814 21.3108 18.5035 21.3486 18.4724 21.3494ZM21.731 24.1329C21.709 24.159 21.7164 24.2019 21.7475 24.2282C21.7786 24.2544 21.8073 24.242 21.8112 24.2005C21.8151 24.1591 21.8077 24.1162 21.7947 24.1053C21.7817 24.0943 21.7531 24.1067 21.731 24.1329ZM38.46 38.2249C38.429 38.2257 38.3814 38.1884 38.3545 38.1422C38.3246 38.091 38.3468 38.0904 38.411 38.1407C38.469 38.1862 38.4911 38.2241 38.46 38.2249ZM38.8597 38.567C38.8118 38.5492 38.7517 38.4984 38.726 38.4542C38.7004 38.41 38.7396 38.4246 38.8131 38.4866C38.8865 38.5487 38.9075 38.5849 38.8597 38.567ZM15.8671 19.2311C15.836 19.2319 15.7885 19.1946 15.7615 19.1484C15.7317 19.0972 15.7538 19.0967 15.818 19.1469C15.8761 19.1925 15.8981 19.2303 15.8671 19.2311ZM17.3423 20.5241C17.3045 20.5453 17.2336 20.5452 17.1849 20.5238C17.135 20.5019 17.1301 20.4759 17.1737 20.4642C17.2171 20.4525 17.2057 20.3895 17.1475 20.3206C17.0737 20.2331 17.0968 20.2391 17.2275 20.3416C17.3473 20.4355 17.3872 20.4989 17.3423 20.5241ZM19.0054 21.9944C18.94 22.0324 18.9156 22.0812 18.9484 22.1089C18.9797 22.1354 18.9903 22.1748 18.972 22.1966C18.9199 22.2583 18.7275 22.0453 18.7376 21.9372C18.7446 21.8623 18.7104 21.8309 18.5858 21.7982C18.4973 21.7749 18.411 21.7196 18.3939 21.6753C18.3596 21.5859 18.8595 21.7255 19.0192 21.8498C19.0951 21.909 19.0918 21.9441 19.0054 21.9944ZM29.1462 30.4748C29.1423 30.5163 29.1136 30.5287 29.0825 30.5024C29.0514 30.4762 29.044 30.4333 29.066 30.4071C29.0881 30.381 29.1167 30.3686 29.1297 30.3795C29.1427 30.3905 29.1501 30.4334 29.1462 30.4748ZM29.6763 30.8769C29.6666 30.8885 29.6235 30.8908 29.5804 30.8821C29.5374 30.8734 29.5213 30.8437 29.5447 30.816C29.568 30.7884 29.6112 30.786 29.6406 30.8109C29.67 30.8357 29.6861 30.8654 29.6763 30.8769ZM37.4847 37.487C37.4376 37.4695 37.3647 37.4094 37.3229 37.3534C37.2811 37.2974 37.3197 37.3118 37.4087 37.3853C37.4977 37.4588 37.5319 37.5045 37.4847 37.487ZM37.7786 37.7309C37.7476 37.7317 37.7 37.6945 37.6731 37.6482C37.6432 37.597 37.6654 37.5965 37.7296 37.6468C37.7876 37.6923 37.8097 37.7301 37.7786 37.7309ZM16.6005 19.9639C16.5966 20.0053 16.5679 20.0177 16.5368 19.9915C16.5057 19.9652 16.4983 19.9223 16.5203 19.8962C16.5424 19.8701 16.571 19.8576 16.584 19.8686C16.597 19.8796 16.6044 19.9224 16.6005 19.9639ZM22.9349 25.2797C22.9038 25.2805 22.8562 25.2433 22.8293 25.197C22.7994 25.1459 22.8216 25.1453 22.8858 25.1956C22.9439 25.2411 22.9659 25.279 22.9349 25.2797ZM23.2021 25.5054C23.171 25.5061 23.1235 25.4689 23.0965 25.4227C23.0667 25.3715 23.0888 25.3709 23.153 25.4212C23.2111 25.4667 23.2331 25.5046 23.2021 25.5054ZM23.6616 25.9662C23.6285 26.0054 23.6255 26.0578 23.6549 26.0826C23.6843 26.1074 23.7308 26.101 23.7584 26.0683C23.7955 26.0241 23.9224 26.1119 24.2505 26.4084C24.5178 26.6501 24.6647 26.8155 24.6218 26.827C24.583 26.8374 24.5189 26.7981 24.4793 26.7397C24.4398 26.6813 24.3104 26.607 24.1918 26.5745C24.0007 26.5223 23.9809 26.5057 24.0186 26.4299C24.0663 26.3343 23.8488 26.1198 23.7351 26.1503C23.6557 26.1716 23.4238 25.9992 23.4109 25.9093C23.3979 25.8191 23.5667 25.7641 23.6473 25.8321C23.6883 25.8667 23.6947 25.927 23.6616 25.9662ZM28.5783 30.1174C28.4711 30.1302 28.4736 30.151 28.595 30.2535C28.6769 30.3227 28.7069 30.3829 28.6651 30.3941C28.6249 30.4049 28.5413 30.3709 28.4793 30.3186C28.4174 30.2663 28.371 30.2533 28.3762 30.2897C28.3815 30.3261 28.586 30.5137 28.8306 30.7066C29.2281 31.0198 29.2647 31.0626 29.174 31.1078C29.1072 31.1411 29.1016 31.1702 29.1576 31.193C29.2045 31.2121 29.2572 31.1986 29.2746 31.163C29.2921 31.1273 29.368 31.1502 29.4432 31.2137C29.5207 31.2792 29.5483 31.3377 29.5068 31.3488C29.4666 31.3596 29.4591 31.3899 29.4903 31.4162C29.5214 31.4424 29.5649 31.4426 29.587 31.4165C29.6537 31.3374 29.8317 31.532 29.7972 31.6463C29.7795 31.7049 29.7509 31.7532 29.7337 31.7536C29.7165 31.754 29.4606 31.5601 29.1649 31.3227C28.7724 31.0075 28.6347 30.8699 28.655 30.8127C28.6703 30.7697 28.6353 30.6944 28.5773 30.6454C28.5192 30.5963 28.4685 30.5901 28.4646 30.6316C28.4605 30.6756 28.3894 30.6495 28.2941 30.569C28.2042 30.4931 28.1486 30.4096 28.1707 30.3834C28.1927 30.3573 28.1218 30.2608 28.013 30.169C27.7969 29.9865 27.8886 29.9338 28.1373 30.0977C28.2479 30.1706 28.3158 30.1657 28.4115 30.0782C28.4895 30.0069 28.5709 29.9891 28.6219 30.0321C28.6898 30.0894 28.6817 30.1051 28.5783 30.1174ZM33.8636 34.6453C33.9109 34.7086 33.8371 34.6617 33.6997 34.5412C33.5623 34.4207 33.4658 34.3033 33.4852 34.2803C33.5047 34.2572 33.5594 34.296 33.607 34.3664C33.6732 34.4642 33.6961 34.4705 33.7043 34.393C33.7128 34.3133 33.7218 34.3171 33.7464 34.4109C33.7635 34.4766 33.8163 34.582 33.8636 34.6453ZM27.1955 28.9906C27.1553 29.0014 27.0998 28.9911 27.0721 28.9677C27.0444 28.9444 27.0398 28.9039 27.0619 28.8778C27.084 28.8516 27.1395 28.8619 27.1853 28.9006C27.2311 28.9393 27.2357 28.9798 27.1955 28.9906ZM21.4637 24.2326C21.5171 24.3796 21.5738 24.4275 21.6241 24.368C21.6461 24.3419 21.6098 24.2751 21.5433 24.2197C21.4456 24.1382 21.4304 24.1407 21.4637 24.2326ZM26.47 28.4947C26.4374 28.5332 26.4701 28.6238 26.5453 28.7035C26.6519 28.8165 26.6308 28.812 26.4385 28.681C26.2201 28.5321 26.2069 28.5081 26.2897 28.4101C26.34 28.3504 26.4133 28.3301 26.454 28.3645C26.4944 28.3986 26.5016 28.4572 26.47 28.4947ZM28.1501 29.8657C28.1299 29.8896 28.0158 29.8287 27.8964 29.7304C27.7769 29.632 27.7033 29.5451 27.7325 29.5373C27.812 29.516 28.1926 29.8154 28.1501 29.8657ZM11.4566 15.865C11.4527 15.9064 11.412 15.9087 11.3662 15.87C11.3204 15.8313 11.3009 15.7783 11.323 15.7522C11.345 15.726 11.3857 15.7237 11.4133 15.7471C11.441 15.7705 11.4604 15.8235 11.4566 15.865ZM22.0626 24.8244C22.0392 24.852 22.0058 24.8375 21.9882 24.7919C21.9707 24.7464 21.9105 24.7208 21.8545 24.7352C21.7739 24.7558 21.767 24.7437 21.8219 24.6774C21.8651 24.6253 21.9317 24.6277 21.9982 24.6838C22.057 24.7335 22.0859 24.7967 22.0626 24.8244ZM22.8232 25.4414C22.8067 25.461 22.7353 25.4282 22.6646 25.3685C22.5939 25.3089 22.5608 25.2534 22.591 25.2454C22.6211 25.2373 22.6924 25.27 22.7495 25.3182C22.8066 25.3664 22.8397 25.4218 22.8232 25.4414ZM32.994 34.0489C32.9538 34.0597 32.8695 34.0225 32.8066 33.9664C32.6964 33.8678 32.6974 33.866 32.8337 33.9136C33.0282 33.9816 33.0805 34.0257 32.994 34.0489ZM36.922 37.3654C36.9 37.3915 36.9358 37.4589 37.0016 37.5151C37.0673 37.5714 37.1398 37.6686 37.1625 37.7311C37.1929 37.815 37.1384 37.7942 36.9548 37.6518C36.8179 37.5456 36.6146 37.3962 36.503 37.3196C36.3914 37.2431 35.4651 36.4862 34.4445 35.6377C33.424 34.7892 32.7468 34.2008 32.9396 34.3302C33.1324 34.4596 33.4217 34.6537 33.5824 34.7615C34.1997 35.1759 34.8983 35.7379 34.8911 35.8143C34.8871 35.8566 34.92 35.8986 34.9641 35.9074C35.0083 35.9164 35.078 35.9978 35.1192 36.0885C35.1603 36.1792 35.2507 36.2748 35.3202 36.3009C35.3896 36.327 35.6225 36.4905 35.8375 36.6643C36.0526 36.838 36.256 36.9795 36.2897 36.9786C36.3233 36.9778 36.4229 37.0581 36.5109 37.1572C36.6383 37.3005 36.6844 37.3216 36.7364 37.26C36.7724 37.2174 36.8379 37.213 36.882 37.2502C36.9261 37.2874 36.9441 37.3392 36.922 37.3654ZM38.4841 38.7046C38.4689 38.7731 38.4815 38.7837 38.5465 38.7572C38.6339 38.7217 39.0972 39.078 39.0883 39.174C39.0853 39.205 38.9834 39.1336 38.8617 39.0151C38.7234 38.8806 38.6237 38.8193 38.5962 38.852C38.5293 38.9312 38.292 38.7024 38.3256 38.5911C38.3613 38.4728 38.5116 38.5804 38.4841 38.7046ZM26.0598 28.2758C26.0196 28.2865 25.9232 28.2392 25.8456 28.1706C25.7197 28.0592 25.7198 28.0511 25.846 28.0953C26.0424 28.1639 26.1471 28.2523 26.0598 28.2758ZM31.0834 32.5172C31.0432 32.528 31.0598 32.5786 31.1203 32.6297C31.1808 32.6808 31.2484 32.7012 31.2704 32.6751C31.3178 32.619 31.4107 32.7191 31.4422 32.8603C31.4712 32.9898 31.1053 32.8664 30.9859 32.7063C30.9397 32.6445 30.8662 32.6035 30.8225 32.6153C30.7787 32.627 30.7069 32.6061 30.6628 32.5689C30.6187 32.5317 30.6181 32.4917 30.6614 32.4801C30.716 32.4655 30.656 32.4052 30.4663 32.2839C30.3001 32.1777 30.2078 32.0906 30.2315 32.0626C30.2529 32.0372 30.4191 32.1201 30.6007 32.247C30.7823 32.3738 30.9581 32.4623 30.9915 32.4435C31.0249 32.4248 31.0757 32.4293 31.1044 32.4535C31.1331 32.4778 31.1236 32.5064 31.0834 32.5172ZM32.6145 33.8036C32.5535 33.7919 32.4394 33.7147 32.3611 33.6319C32.2514 33.516 32.1943 33.4975 32.1124 33.5515C32.0539 33.5901 31.9856 33.6043 31.9606 33.5832C31.9029 33.5345 32.0956 33.4323 32.2112 33.4503C32.259 33.4577 32.3942 33.5451 32.5118 33.6443C32.6576 33.7675 32.6903 33.8181 32.6145 33.8036ZM13.7592 17.9623C13.7115 18.0189 13.4667 17.8896 13.474 17.8117C13.4772 17.7777 13.5192 17.7645 13.5673 17.7824C13.7099 17.8356 13.7971 17.9174 13.7592 17.9623ZM14.4493 18.5545C14.4273 18.5806 14.3866 18.5829 14.3589 18.5595C14.3312 18.5361 14.3118 18.4831 14.3157 18.4416C14.3196 18.4002 14.3603 18.3979 14.4061 18.4366C14.4519 18.4753 14.4714 18.5283 14.4493 18.5545ZM15.4157 19.3615C15.355 19.4333 14.9519 19.1191 14.865 18.9324C14.7889 18.7688 14.8076 18.7766 15.1171 19.0374C15.301 19.1924 15.4353 19.3382 15.4157 19.3615ZM15.5646 19.5185C15.51 19.5697 15.446 19.4968 15.4747 19.4162C15.4895 19.3749 15.5231 19.374 15.5496 19.4143C15.576 19.4545 15.5828 19.5013 15.5646 19.5185ZM15.9115 20.0676C15.8931 20.0935 15.8683 20.036 15.8563 19.9396C15.8414 19.8209 15.8626 19.7696 15.922 19.7805C16.0015 19.7949 15.9959 19.9484 15.9115 20.0676ZM16.5182 20.2693C16.5957 20.3982 16.5319 20.4755 16.4235 20.384C16.3777 20.3453 16.3372 20.3455 16.3336 20.3844C16.3299 20.4234 16.2811 20.4111 16.2252 20.3571C16.1206 20.2561 16.2009 20.126 16.356 20.1451C16.4575 20.1576 16.4458 20.1486 16.5182 20.2693ZM37.4831 38.0018C37.4611 38.028 37.4012 38.0134 37.3501 37.9697C37.2707 37.9015 37.2745 37.8931 37.3763 37.9116C37.526 37.9388 37.5321 37.9439 37.4831 38.0018ZM16.9809 20.8186C16.8021 20.753 16.7855 20.758 16.8588 20.8548C16.9273 20.9455 16.917 20.9463 16.8049 20.8593C16.7248 20.7971 16.6713 20.6928 16.6784 20.6128C16.6897 20.4856 16.7116 20.4917 16.9393 20.6843C17.1856 20.8925 17.186 20.8937 16.9809 20.8186ZM17.6693 21.4936C17.6063 21.6119 17.5828 21.614 17.505 21.5084C17.455 21.4407 17.3188 21.3032 17.2022 21.2028C17.0306 21.055 17.0162 21.0261 17.1262 21.0511C17.201 21.0681 17.2651 21.0515 17.2686 21.014C17.2721 20.9766 17.3802 21.0381 17.5089 21.1507C17.7139 21.3302 17.7338 21.3726 17.6693 21.4936ZM19.2456 22.8124C19.2441 22.9268 19.2688 22.9591 19.3557 22.9569C19.5114 22.9529 19.6185 23.0572 19.5463 23.1426C19.4995 23.1981 19.419 23.1558 19.1821 22.9507C19.0147 22.8059 18.9171 22.7021 18.9649 22.7199C19.1697 22.7962 19.104 22.6471 18.8316 22.4171C18.5136 22.1487 18.3632 22.1534 18.62 22.4237C18.718 22.5268 18.6601 22.4953 18.467 22.3403C18.2927 22.2005 18.1598 22.0552 18.1641 22.0092C18.1696 21.9502 18.1433 21.928 18.0701 21.9298C18.0142 21.9313 17.9323 21.902 17.8882 21.8647C17.829 21.8147 17.8355 21.7964 17.913 21.7944C17.9708 21.7929 18.0307 21.7496 18.0463 21.6982C18.0702 21.6191 18.1652 21.6866 18.661 22.1349C19.1531 22.5799 19.2472 22.6889 19.2456 22.8124ZM20.4513 23.805C20.4069 23.8584 20.0526 23.5422 20.0606 23.4563C20.0648 23.4118 20.1496 23.4591 20.2743 23.5758C20.3881 23.6821 20.4676 23.7853 20.4513 23.805ZM22.3879 25.4149C22.3671 25.4395 22.315 25.4525 22.2722 25.4439C22.1357 25.4163 20.7119 24.174 20.6381 24.018C20.6005 23.9387 21.3038 24.4486 21.8446 24.8929C22.1778 25.1667 22.4095 25.3892 22.3879 25.4149ZM24.7083 27.4212C24.7224 27.5188 24.6069 27.4504 24.0881 27.0536C23.5561 26.6468 23.0661 26.1295 23.1352 26.0476C23.1705 26.0058 24.6964 27.3383 24.7083 27.4212ZM26.5956 29.0506C26.2277 28.7869 25.9855 28.5479 26.1114 28.5729C26.1541 28.5813 26.3575 28.7475 26.5634 28.9421L26.9377 29.2959L26.5956 29.0506ZM27.5695 29.7945C27.5474 29.8206 27.5188 29.833 27.5058 29.8221C27.4928 29.8111 27.4854 29.7683 27.4893 29.7268C27.4932 29.6853 27.5219 29.6729 27.553 29.6992C27.5841 29.7254 27.5915 29.7683 27.5695 29.7945ZM28.7719 30.8097C28.7317 30.8205 28.7363 30.861 28.7821 30.8997C28.8279 30.9383 28.8835 30.9486 28.9055 30.9225C28.9276 30.8964 28.923 30.8559 28.8954 30.8325C28.8677 30.8092 28.8122 30.7989 28.7719 30.8097ZM39.864 40.1489C39.891 40.1952 39.9385 40.2324 39.9696 40.2316C40.0006 40.2308 39.9786 40.193 39.9205 40.1475C39.8563 40.0972 39.8342 40.0978 39.864 40.1489ZM27.2957 29.6371C27.2593 29.6468 27.1908 29.6031 27.1436 29.5398C27.0254 29.3815 27.0615 29.3656 27.2252 29.5038C27.3004 29.5673 27.3322 29.6273 27.2957 29.6371ZM30.0681 31.9579C30.0202 31.9401 29.9601 31.8894 29.9345 31.8451C29.9089 31.8009 29.948 31.8155 30.0215 31.8776C30.095 31.9396 30.116 31.9758 30.0681 31.9579ZM32.5265 34.0335C32.4786 34.0157 32.4185 33.9649 32.3929 33.9207C32.3672 33.8765 32.4064 33.8911 32.4799 33.9532C32.5534 34.0152 32.5743 34.0514 32.5265 34.0335ZM39.26 40.0715C39.2561 40.113 39.2635 40.1558 39.2765 40.1668C39.2894 40.1778 39.3181 40.1653 39.3401 40.1392C39.3622 40.1131 39.3547 40.0702 39.3236 40.0439C39.2925 40.0177 39.2638 40.0301 39.26 40.0715ZM40.6789 41.2437C40.7059 41.29 40.7534 41.3272 40.7845 41.3264C40.8155 41.3257 40.7935 41.2878 40.7354 41.2423C40.6712 41.192 40.6491 41.1926 40.6789 41.2437ZM18.3267 23.3943C18.3102 23.4139 17.8131 23.0149 17.222 22.5075C16.478 21.8689 16.294 21.6947 16.6241 21.9417C17.3091 22.4541 18.3619 23.3524 18.3267 23.3943ZM18.8465 23.8631C18.8381 23.873 18.7191 23.7823 18.582 23.6613C18.3678 23.4722 18.3592 23.4558 18.5206 23.5444C18.696 23.6406 18.8813 23.8219 18.8465 23.8631ZM16.0791 21.5302C16.0312 21.5124 15.9711 21.4616 15.9454 21.4174C15.9198 21.3732 15.959 21.3878 16.0325 21.4498C16.1059 21.5119 16.1269 21.548 16.0791 21.5302ZM11.1568 17.5478C11.1756 17.6007 10.9403 17.4345 10.6271 17.1736C10.3172 16.9154 10.0851 16.6985 10.1113 16.6914C10.183 16.6722 11.1179 17.438 11.1568 17.5478ZM35.548 38.2135C35.575 38.2598 35.6226 38.297 35.6536 38.2962C35.6847 38.2955 35.6626 38.2576 35.6045 38.2121C35.5404 38.1618 35.5182 38.1624 35.548 38.2135ZM31.6053 34.9596C31.5742 34.9604 31.5267 34.9232 31.4997 34.8769C31.4699 34.8258 31.492 34.8252 31.5562 34.8755C31.6143 34.921 31.6364 34.9588 31.6053 34.9596ZM12.9462 19.3801C13.2535 19.6539 13.7825 20.1006 14.1219 20.3728C14.4613 20.645 14.2098 20.421 13.5632 19.875C12.9166 19.329 12.639 19.1063 12.9462 19.3801ZM17.717 23.4465C17.7241 23.4958 17.7816 23.5656 17.8449 23.6013C17.9301 23.6496 17.9267 23.6262 17.8319 23.5115C17.7494 23.4115 17.7086 23.3885 17.717 23.4465ZM34.3054 37.4085C34.3324 37.4548 34.3799 37.492 34.411 37.4912C34.4421 37.4904 34.42 37.4526 34.3619 37.4071C34.2977 37.3568 34.2756 37.3573 34.3054 37.4085ZM18.1219 23.8281C18.1788 23.8956 18.2754 23.9764 18.3365 24.0077C18.3976 24.0389 18.3511 23.9837 18.2331 23.8849C18.115 23.7862 18.065 23.7607 18.1219 23.8281ZM18.8701 24.4598C18.927 24.5273 19.0236 24.6081 19.0847 24.6394C19.1458 24.6706 19.0993 24.6154 18.9813 24.5166C18.8632 24.4179 18.8132 24.3924 18.8701 24.4598ZM20.5264 25.8597C20.6136 25.9514 20.758 26.073 20.8475 26.13C20.937 26.1869 20.8657 26.1119 20.6891 25.9633C20.5125 25.8146 20.4394 25.7681 20.5264 25.8597ZM21.3014 26.5135C21.3735 26.5929 21.494 26.6942 21.5692 26.7384C21.6444 26.7827 21.5855 26.7176 21.4383 26.5938C21.291 26.4701 21.2294 26.434 21.3014 26.5135ZM28.3029 32.4224C28.3442 32.4778 28.4284 32.5489 28.4899 32.5803C28.5514 32.6118 28.5176 32.5665 28.4147 32.4796C28.3118 32.3928 28.2615 32.3671 28.3029 32.4224ZM29.1857 33.1656C29.2114 33.2099 29.2715 33.2606 29.3193 33.2784C29.3672 33.2963 29.3462 33.2601 29.2728 33.1981C29.1993 33.136 29.1601 33.1215 29.1857 33.1656Z" fill="url(#paint0_linear_103_11)"/>
<path fill-rule="evenodd" clip-rule="evenodd" d="M11.1421 28.4929C11.5458 28.1072 11.9042 27.775 11.9386 27.7547C11.9729 27.7343 11.8284 27.9228 11.6175 28.1736C11.235 28.6282 11.2357 28.6276 11.8774 27.9868C12.2313 27.6333 12.7656 27.1209 13.0647 26.8481C13.441 26.5049 13.2663 26.6958 12.4979 27.4674C10.7417 29.2311 8.94317 31.0466 8.71639 31.2844C8.58985 31.4171 8.50255 31.4734 8.49349 31.4283C8.48369 31.3795 8.04456 31.8062 7.21359 32.672C6.31563 33.6075 5.97217 33.9936 6.02981 34.0028C6.08097 34.0109 6.06483 34.0561 5.98612 34.1248C5.91737 34.1848 5.84042 34.2794 5.81512 34.3351C5.78979 34.3908 5.46372 34.7976 5.09051 35.2392C4.71731 35.6809 4.348 36.1444 4.26989 36.2694C4.19168 36.3943 4.11104 36.4805 4.09064 36.4609C4.03969 36.412 4.13829 36.2499 4.76079 35.359C4.83887 35.2473 4.97995 35.0337 5.07435 34.8844C5.2777 34.5627 10.0459 29.54 11.1421 28.4929ZM25.9373 13.1729C26.1899 12.9597 26.1854 12.9685 25.862 13.3188C25.5213 13.6876 25.3973 13.7789 25.576 13.529C25.6269 13.4579 25.7895 13.2977 25.9373 13.1729ZM26.4922 12.639C26.5531 12.5909 26.8066 12.3653 27.0556 12.1376C27.3045 11.91 27.523 11.738 27.5412 11.7555C27.5594 11.7729 27.4954 11.8532 27.399 11.934C27.2646 12.0467 27.2517 12.0738 27.3437 12.0507C27.4349 12.0277 27.4103 12.0739 27.2411 12.243C27.0382 12.4461 27.0284 12.4495 27.1297 12.2815L27.2407 12.0972L27.0578 12.2771C26.9572 12.3761 26.8857 12.4819 26.8988 12.5123C26.9124 12.5437 26.7307 12.7385 26.4774 12.9642C25.9972 13.3921 25.9876 13.3675 26.4472 12.8868C26.6067 12.7199 26.6728 12.6307 26.5942 12.6885C26.4591 12.7878 26.2134 12.862 26.3291 12.7686C26.3578 12.7455 26.4312 12.6871 26.4922 12.639ZM9.79957 30.0441C9.97371 29.8802 10.2571 29.585 10.4293 29.3882C10.6017 29.1915 10.4592 29.3256 10.1128 29.6863C9.76644 30.047 9.62551 30.208 9.79957 30.0441ZM9.12008 30.7451C9.16582 30.7224 9.22031 30.6657 9.24116 30.619C9.26201 30.5724 9.22461 30.591 9.15802 30.6603C9.09142 30.7297 9.07433 30.7679 9.12008 30.7451ZM5.48398 34.6232C5.52972 34.6005 5.58421 34.5437 5.60506 34.497C5.62591 34.4504 5.58851 34.469 5.52192 34.5384C5.45532 34.6078 5.43823 34.646 5.48398 34.6232ZM5.14376 34.9771C5.18884 34.9547 5.25498 34.8873 5.29072 34.8273C5.32645 34.7673 5.28957 34.7856 5.20876 34.868C5.12795 34.9504 5.09868 34.9995 5.14376 34.9771ZM25.9206 13.4235C25.8853 13.4828 25.8089 13.5624 25.751 13.6001C25.6932 13.6378 25.7221 13.5892 25.8153 13.4921C25.9085 13.395 25.9559 13.3641 25.9206 13.4235ZM25.4592 13.9017C25.4384 13.9484 25.3839 14.0051 25.3381 14.0278C25.2924 14.0506 25.3095 14.0124 25.3761 13.943C25.4427 13.8737 25.4801 13.8551 25.4592 13.9017ZM34.8056 4.3124C34.8405 4.31793 35.1077 4.0655 35.3994 3.75141C35.9288 3.1816 36.9381 2.26225 37.1548 2.15246C37.2273 2.1157 37.3069 2.13804 37.3721 2.21345C37.4831 2.34181 37.4799 2.35381 37.2495 2.67776C37.0609 2.94291 37.1155 3.03128 37.323 2.79683C37.4612 2.64075 37.483 2.63762 37.5832 2.75942C37.679 2.8758 37.7095 2.87492 37.8283 2.7523C37.9986 2.5767 38.0982 2.5528 38.2328 2.65528C38.3204 2.72197 38.3104 2.7753 38.175 2.96337C37.9559 3.26781 38.0319 3.31286 38.3323 3.05668C38.5696 2.85431 38.9984 2.73097 39.0239 2.85779C39.0302 2.8893 39.1142 2.85975 39.2104 2.79206C39.3617 2.68566 39.3847 2.687 39.3803 2.80192C39.3775 2.87504 39.3467 2.96522 39.3118 3.00224C39.2641 3.05302 39.2762 3.0612 39.3609 3.03559C39.4396 3.01176 39.3995 3.08663 39.2269 3.28596C38.9836 3.56693 38.9824 3.57202 39.1221 3.71483C39.1998 3.79437 39.2797 3.84232 39.2997 3.82153C39.3196 3.80074 39.3764 3.82243 39.4257 3.86979C39.4922 3.93358 39.5515 3.92146 39.6547 3.82297C39.7761 3.70714 39.7824 3.7072 39.7034 3.82372C39.5879 3.99394 39.4545 4.37715 39.5423 4.28642C39.5794 4.24805 39.6247 4.25717 39.6458 4.30728C39.7015 4.43966 39.8487 4.389 40.2218 4.10909C40.5556 3.85865 40.7238 3.77419 40.5703 3.9342C40.5258 3.98047 40.5198 4.04738 40.5568 4.08289C40.6091 4.13313 40.6886 4.0802 40.9147 3.8447C41.228 3.51822 41.4111 3.49892 41.1194 3.82312C41.0108 3.94385 40.9928 3.98206 41.0724 3.92335C41.143 3.87112 41.2182 3.84515 41.2395 3.8656C41.2608 3.88605 41.335 3.86938 41.4045 3.82862C41.4739 3.78782 41.5366 3.78428 41.5439 3.82057C41.5512 3.85695 41.648 3.83044 41.7588 3.76168C41.9331 3.65368 41.9118 3.68884 41.6026 4.0203C41.2352 4.41424 41.2686 4.474 41.6816 4.1617C41.8647 4.02321 41.8987 4.01757 41.9045 4.12469C41.9101 4.22642 41.892 4.24865 41.8117 4.23852C41.7342 4.22869 41.7155 4.26164 41.7276 4.38653C41.7419 4.53372 41.7561 4.54107 41.8973 4.4748C42.0291 4.41287 42.0164 4.44586 41.8095 4.70361C41.5925 4.97386 41.5839 4.99911 41.7253 4.94994C41.8119 4.91984 41.9916 4.80875 42.1246 4.70304C42.538 4.37454 42.6123 4.4041 42.2755 4.76311L41.9644 5.09468L42.5195 4.80339L43.0746 4.5121L42.8548 4.78593L42.6351 5.05976L42.9812 4.82069C43.223 4.65366 43.3188 4.61426 43.2993 4.68983C43.284 4.74936 43.2296 4.84509 43.1784 4.90262C43.0861 5.00649 43.0863 5.00675 43.2161 4.94055C43.3109 4.89214 43.2713 4.97388 43.0716 5.23813C42.8223 5.56815 42.8161 5.58486 43.0062 5.41598C43.1216 5.31345 43.2556 5.22613 43.3039 5.22182C43.3584 5.21698 43.1732 5.44448 42.8166 5.82045C42.3723 6.28878 42.2819 6.40513 42.4195 6.33131C42.5229 6.27598 42.6314 6.26801 42.6776 6.31244C42.7424 6.3746 42.8581 6.31618 43.289 6.00372C43.5813 5.79176 43.7867 5.66814 43.7455 5.72893C43.6856 5.81741 43.692 5.83302 43.7778 5.80709C43.8567 5.7833 43.8534 5.80841 43.7653 5.9022C43.6995 5.97231 43.6324 6.08113 43.6161 6.14404C43.5832 6.27111 43.6152 6.26055 43.9249 6.04184C44.0094 5.98218 44.119 5.94849 44.1685 5.96698C44.2437 5.99502 44.167 6.08894 43.696 6.54503C43.2804 6.94745 43.1655 7.08211 43.2555 7.06102C43.3583 7.03701 43.3611 7.04732 43.2734 7.12663C43.0995 7.28374 43.0784 7.33445 43.2013 7.29979C43.2809 7.27734 43.2152 7.35374 42.9957 7.53875C42.594 7.87733 42.612 7.85763 41.8621 8.77748C41.4026 9.34118 40.6737 10.1145 39.0555 11.755C37.7122 13.1168 36.477 14.4166 35.8513 15.1267C33.7893 17.467 33.5814 17.6971 33.5827 17.6367C33.5835 17.6028 33.7987 17.3295 34.0611 17.0294C34.3234 16.7294 34.5408 16.4449 34.5441 16.3975C34.5523 16.2791 30.3861 20.6283 28.9715 22.2148C28.1601 23.1248 21.8504 29.825 19.6314 32.133C19.1363 32.648 16.9222 34.8412 16.8081 34.9298C16.7138 35.0029 16.6809 35.0557 16.7253 35.0628C16.7659 35.0692 16.7772 35.0972 16.7506 35.1249C16.7239 35.1527 16.6685 35.17 16.6273 35.1635C16.5293 35.148 16.3513 35.3348 16.4102 35.3914C16.4609 35.4401 15.3198 36.635 14.4358 37.4589C14.031 37.8362 13.912 37.9732 13.9372 38.0329C13.9553 38.0761 13.9386 38.1444 13.8999 38.1847C13.8612 38.225 13.8228 38.2246 13.8146 38.1838C13.8064 38.1429 13.7568 38.1473 13.7044 38.1934C13.652 38.2396 13.5719 38.3071 13.5265 38.3435C13.481 38.3798 13.3215 38.5321 13.172 38.6819C13.0064 38.8478 12.9104 38.9143 12.9264 38.8522C12.9523 38.7513 12.5744 39.0762 11.5514 40.0348C11.037 40.5167 10.7428 40.6758 11.1024 40.2776C11.2171 40.1505 11.3282 40.0193 11.3491 39.9861C11.37 39.9528 11.5891 39.705 11.8359 39.4354L12.2847 38.9451L11.935 39.2396C11.7426 39.4016 11.3647 39.7513 11.0951 40.0168C10.8255 40.2822 10.579 40.4953 10.5472 40.4903C10.5154 40.4852 10.4458 40.5265 10.3925 40.582C10.3392 40.6375 10.2898 40.6539 10.2826 40.6184C10.2754 40.5825 10.3781 40.4738 10.5136 40.3739C10.787 40.1721 11.0185 39.9519 10.9515 39.9572C10.8616 39.9643 9.69806 40.8561 9.65327 40.9521C9.62708 41.0082 9.56363 41.0357 9.50797 41.0149C9.43788 40.9887 9.33292 41.0533 9.14609 41.2375L8.883 41.497L9.12293 41.1941C9.31164 40.9557 9.32931 40.9146 9.20569 41.0013C9.1192 41.0618 8.9587 41.235 8.84894 41.386C8.73918 41.5369 8.64033 41.6617 8.6293 41.6633C8.61822 41.6648 8.59804 41.5858 8.58436 41.4877C8.56792 41.3696 8.59082 41.307 8.6522 41.3021C8.71368 41.2972 8.78048 41.2261 8.85014 41.0912C9.03728 40.7292 8.97577 40.7557 8.56883 41.2124C8.28492 41.531 8.16471 41.6367 8.15295 41.5783C8.1428 41.5277 8.09181 41.5394 8.02057 41.6087C7.9174 41.709 8.30379 41.1272 8.63751 40.6797C8.70702 40.5864 8.5971 40.6772 8.39328 40.8815C8.18941 41.0857 7.97033 41.2681 7.90647 41.2868C7.81016 41.315 7.80661 41.3033 7.88584 41.2185C7.93835 41.1623 7.9927 41.0617 8.0066 40.9951C8.02511 40.9065 7.97771 40.9457 7.83036 41.1407C7.56683 41.4895 7.46413 41.5181 7.46614 41.2424C7.46696 41.1203 7.4416 41.0529 7.40794 41.088C7.3751 41.1222 7.3415 41.1168 7.3333 41.076C7.3251 41.0351 7.40941 40.9063 7.52069 40.7896C7.63193 40.6729 7.73462 40.5232 7.74883 40.4568C7.76745 40.3701 7.71162 40.4184 7.54971 40.6293C7.32072 40.9274 7.16309 40.972 7.3157 40.6955C7.39245 40.5565 7.391 40.5544 7.25448 40.6125C7.14362 40.6598 7.15391 40.6389 7.30412 40.5122C7.5206 40.3297 7.62868 40.0235 7.44276 40.1196C7.38455 40.1498 7.29784 40.2152 7.25003 40.265C7.20218 40.3148 7.10565 40.3548 7.03547 40.3538C6.93527 40.3525 6.92068 40.3388 6.96747 40.29C7.0005 40.2556 6.98464 40.2122 6.93182 40.1925C6.87071 40.1696 6.86531 40.1249 6.91677 40.0672C6.98319 39.9927 6.97409 39.9887 6.86324 40.0431C6.73907 40.1041 6.73573 40.0953 6.81615 39.9189C6.86377 39.8145 6.934 39.6965 6.97221 39.6567C7.01042 39.6168 7.02153 39.5649 6.99686 39.5412C6.97219 39.5175 6.82474 39.6268 6.66917 39.7841L6.38632 40.0701L6.49893 39.8146C6.62105 39.5376 6.56861 39.4159 6.36109 39.4944C6.28895 39.5217 5.97175 39.7844 5.6562 40.0782C5.34074 40.3719 5.06696 40.5973 5.04786 40.5789C5.02875 40.5606 5.05283 40.4637 5.10126 40.3636C5.17508 40.2113 5.13159 40.2407 4.83474 40.544C4.63346 40.7497 4.46063 40.8878 4.4352 40.8634C4.41053 40.8398 4.43525 40.7736 4.49007 40.7165C4.5449 40.6594 4.55763 40.6075 4.5183 40.6013C4.47896 40.595 4.42613 40.6342 4.40095 40.6882C4.37572 40.7423 4.33613 40.7683 4.31298 40.7461C4.28979 40.7239 4.3519 40.5762 4.45092 40.418C4.60377 40.1738 4.52342 40.2468 3.91877 40.901L3.20658 41.6716L3.75423 40.9369C4.71252 39.6513 4.69653 39.6754 4.52076 39.7822C4.37765 39.8691 4.37367 39.8675 4.46772 39.7612C4.60916 39.6014 4.56928 39.4881 4.41245 39.604C4.34053 39.6572 4.37001 39.6037 4.47892 39.4834C4.58652 39.3646 4.66194 39.2407 4.64655 39.2081C4.6311 39.1755 4.85259 38.8718 5.1388 38.5334C5.64847 37.9305 5.65381 37.9212 5.39968 38.078C5.23413 38.1802 4.87804 38.5185 4.4162 39.0123C3.74786 39.727 3.68019 39.7856 3.53651 39.7745C3.39961 39.7639 3.30619 39.8366 2.7625 40.3768C2.26953 40.8667 2.13131 40.9789 2.08058 40.9302C2.0456 40.8966 2.03592 40.8494 2.05908 40.8253C2.12717 40.7543 2.81856 39.7635 2.88483 39.6419C3.01012 39.4119 2.85194 39.4602 2.57821 39.7354C2.29755 40.0176 2.29623 40.0181 2.4512 39.7832C2.53734 39.6526 2.77951 39.3615 2.98939 39.1364C3.36308 38.7354 3.81683 38.1406 3.65113 38.2688C3.49332 38.391 3.93088 37.8111 4.26146 37.46C4.54958 37.154 4.59168 37.0808 4.59175 36.8848L4.59185 36.6603L4.38424 36.8685L4.17669 37.0767L4.29819 36.8618C4.36508 36.7437 4.46934 36.6148 4.52991 36.5753C4.59048 36.5358 4.62326 36.4874 4.60271 36.4676C4.58217 36.4479 4.59428 36.3831 4.62957 36.3238C4.66491 36.2644 4.59087 36.3133 4.46507 36.4325L4.23631 36.6492L4.42027 36.3895C5.02158 35.5407 10.0263 30.2038 11.7409 28.5829C12.2308 28.1199 12.8536 27.5107 13.125 27.2291C13.4734 26.8678 13.6423 26.7255 13.6992 26.7454C13.7599 26.7666 13.7768 26.7508 13.7678 26.6812C13.7577 26.6032 14.7126 25.5065 14.84 25.4497C14.9645 25.3942 27.7182 12.097 28.5414 11.1643C29.0892 10.5437 29.7148 9.83535 29.9316 9.59023C30.1485 9.34511 30.804 8.6253 31.3885 7.99081C31.9729 7.35621 32.6581 6.59601 32.9112 6.3015C33.6428 5.44984 34.7365 4.30143 34.8056 4.3124ZM10.197 29.8944C10.175 29.9432 10.1316 29.9852 10.1006 29.9876C10.0697 29.9901 10.0877 29.9502 10.1406 29.8988C10.1992 29.8421 10.2213 29.8404 10.197 29.8944ZM11.5495 28.575C11.5276 28.6238 11.4842 28.6658 11.4532 28.6683C11.4222 28.6707 11.4402 28.6308 11.4932 28.5795C11.5518 28.5227 11.5739 28.521 11.5495 28.575ZM11.1621 28.9787C11.1401 29.0275 11.0967 29.0695 11.0657 29.0719C11.0347 29.0744 11.0527 29.0345 11.1057 28.9831C11.1643 28.9264 11.1864 28.9247 11.1621 28.9787ZM26.803 12.8647C26.7537 12.9374 26.6557 13.0396 26.5851 13.0918C26.5144 13.144 26.5547 13.0844 26.6746 12.9596C26.7944 12.8347 26.8522 12.7919 26.803 12.8647ZM17.1715 23.254C17.2165 23.2316 17.2827 23.1642 17.3184 23.1042C17.3542 23.0442 17.3173 23.0625 17.2365 23.1449C17.1556 23.2273 17.1264 23.2763 17.1715 23.254ZM4.74786 36.1929C4.77883 36.1904 4.82224 36.1484 4.8442 36.0996C4.86855 36.0456 4.84644 36.0474 4.78786 36.1041C4.73488 36.1554 4.71689 36.1953 4.74786 36.1929ZM12.0449 28.7499C12.0437 28.7818 12.2175 28.6303 12.4312 28.4133C12.6449 28.1962 13.3857 27.4495 14.0775 26.7538C14.7694 26.0582 17.1996 23.5778 19.4781 21.2422C21.7566 18.9064 23.7534 16.8847 23.9154 16.7495C24.2132 16.5011 24.497 16.1341 24.3843 16.1432C24.3194 16.1484 23.8526 16.618 21.266 19.2809C20.2787 20.2971 19.6288 20.933 19.6027 20.908C19.5792 20.8854 19.5402 20.9093 19.516 20.9612C19.4493 21.1044 17.8301 22.7788 16.6186 23.9576C15.4341 25.11 12.0484 28.6575 12.0449 28.7499ZM10.7404 30.0301C10.8074 30.0248 11.6416 29.1636 11.6441 29.097C11.6453 29.0664 11.4319 29.2647 11.1699 29.5376C10.908 29.8105 10.7147 30.0321 10.7404 30.0301ZM10.5563 30.2311C10.5873 30.2287 10.6307 30.1867 10.6526 30.1378C10.677 30.0838 10.6549 30.0856 10.5963 30.1423C10.5433 30.1936 10.5253 30.2336 10.5563 30.2311ZM14.2851 26.4453C14.2356 26.5183 14.148 26.6088 14.0905 26.6462C14.033 26.6837 14.0735 26.6239 14.1805 26.5134C14.2876 26.4028 14.3347 26.3722 14.2851 26.4453ZM7.6719 33.3391C7.67808 33.3697 7.98437 33.0809 8.35247 32.6974C8.72056 32.3139 9.02293 31.9685 9.02445 31.93C9.02598 31.8914 8.71974 32.1801 8.34394 32.5716C7.9681 32.9632 7.66573 33.3086 7.6719 33.3391ZM7.43339 33.6101C7.61832 33.5228 7.65556 33.484 7.60291 33.4334C7.57824 33.4098 7.49958 33.4542 7.428 33.5322C7.3128 33.6579 7.31339 33.6667 7.43339 33.6101ZM16.3122 24.421C16.2902 24.4698 16.2468 24.5118 16.2159 24.5142C16.1849 24.5167 16.2029 24.4768 16.2559 24.4254C16.3144 24.3687 16.3365 24.367 16.3122 24.421ZM16.0257 24.7233C15.9486 24.8235 15.8176 24.9596 15.7346 25.0256C15.6515 25.0916 15.7146 25.0095 15.8747 24.8433C16.0348 24.6769 16.1027 24.623 16.0257 24.7233ZM25.9073 14.6376C25.9621 14.6204 26.0154 14.5749 26.0257 14.5366C26.036 14.4983 25.9996 14.481 25.9448 14.4981C25.89 14.5153 25.8367 14.5608 25.8264 14.5991C25.8161 14.6374 25.8525 14.6547 25.9073 14.6376ZM24.9931 15.5144C25.0124 15.533 25.1838 15.3813 25.3741 15.1772C25.6308 14.9019 25.6738 14.837 25.5411 14.9255C25.3123 15.0781 24.9473 15.4704 24.9931 15.5144ZM24.4777 15.9892C24.5256 16.0352 24.8528 15.8259 24.8972 15.7208C24.9335 15.6349 24.9106 15.6316 24.7879 15.7053C24.5982 15.8193 24.4459 15.9587 24.4777 15.9892ZM26.1222 14.4135C26.161 14.4196 26.3601 14.2497 26.5646 14.0359C26.7691 13.8221 26.8961 13.6595 26.8468 13.6745C26.7104 13.7162 26.0396 14.4003 26.1222 14.4135ZM10.615 30.5337C10.6601 30.5113 10.7262 30.444 10.762 30.3839C10.7977 30.3239 10.7608 30.3422 10.68 30.4246C10.5992 30.507 10.5699 30.5561 10.615 30.5337ZM7.27268 34.1102C7.34327 34.058 7.44139 33.9558 7.49063 33.8831C7.53982 33.8104 7.48206 33.8531 7.36219 33.978C7.24232 34.1029 7.20205 34.1623 7.27268 34.1102ZM37.9098 3.38428C37.9345 3.40795 37.9643 3.41733 37.976 3.40507C37.9878 3.39281 37.9907 3.34942 37.9825 3.30858C37.9743 3.26775 37.9444 3.25842 37.9163 3.28779C37.8881 3.31716 37.8852 3.3606 37.9098 3.38428ZM40.8718 3.59155C40.8499 3.64038 40.8065 3.68237 40.7755 3.68483C40.7445 3.6873 40.7625 3.64736 40.8155 3.59603C40.8741 3.53931 40.8962 3.53755 40.8718 3.59155ZM7.19856 40.1933C7.22953 40.1908 7.27295 40.1488 7.2949 40.1C7.31925 40.046 7.29714 40.0477 7.23856 40.1045C7.18558 40.1558 7.16759 40.1957 7.19856 40.1933ZM41.3417 4.83624C41.3663 4.85992 41.4096 4.85522 41.4378 4.82585C41.466 4.79649 41.4555 4.76707 41.4143 4.76055C41.3732 4.75403 41.3299 4.75868 41.3182 4.77094C41.3064 4.7832 41.317 4.81257 41.3417 4.83624ZM27.6065 20.499C27.6324 20.6282 27.7083 20.5823 27.7006 20.4419C27.6962 20.3612 27.6742 20.3326 27.642 20.3661C27.6137 20.3956 27.5977 20.4554 27.6065 20.499ZM24.6456 23.8048C24.6004 23.8189 24.5572 23.7994 24.5495 23.7614C24.5415 23.7217 24.4125 23.8206 24.2462 23.9939C24.0791 24.168 23.9701 24.3232 23.9883 24.3611C24.0056 24.3973 23.9282 24.5438 23.8161 24.6867C23.5369 25.0427 23.677 25.035 23.9877 24.6772C24.1745 24.462 24.254 24.403 24.2991 24.4462C24.3752 24.5193 24.5562 24.3382 24.5136 24.2315C24.4952 24.1856 24.5176 24.1833 24.5669 24.2261C24.6136 24.2668 24.6595 24.2716 24.6689 24.2367C24.6783 24.2019 24.7616 24.1732 24.8541 24.1731C25.0516 24.1728 25.2968 23.9496 25.201 23.8576C25.1519 23.8105 25.1849 23.758 25.339 23.6378C25.4979 23.5138 25.5228 23.4721 25.4548 23.4442C25.407 23.4246 25.3391 23.4429 25.3039 23.4846C25.2686 23.5264 25.1804 23.5633 25.1079 23.5666C24.9934 23.5718 25.0017 23.554 25.1712 23.4309C25.2785 23.353 25.412 23.2604 25.4679 23.2252C25.5238 23.19 25.5631 23.1295 25.5554 23.0909C25.5476 23.0522 25.417 23.1219 25.2652 23.2458C25.1133 23.3697 24.9367 23.4729 24.8727 23.4751C24.7772 23.4785 24.7537 23.5062 24.742 23.6291C24.7342 23.7116 24.6908 23.7906 24.6456 23.8048ZM17.763 30.8729C17.7998 30.9083 18.1146 30.6174 18.1028 30.5589C18.096 30.5249 18.0128 30.5779 17.918 30.6767C17.8232 30.7754 17.7534 30.8638 17.763 30.8729ZM26.8772 21.9179C27.0192 21.9709 27.03 21.8592 26.8926 21.7567C26.7219 21.6291 26.7195 21.6291 26.7493 21.7598C26.7645 21.8261 26.822 21.8972 26.8772 21.9179ZM23.2763 25.3326C23.3214 25.3102 23.3875 25.2428 23.4233 25.1828C23.459 25.1228 23.4221 25.1411 23.3413 25.2235C23.2605 25.3059 23.2312 25.3549 23.2763 25.3326ZM21.6603 27.0517C22.0221 26.7772 23.1247 25.6251 23.1594 25.4852C23.1788 25.4073 22.8886 25.6838 22.2975 26.306C21.6881 26.9478 21.4866 27.1834 21.6603 27.0517ZM20.6403 28.0843C20.7238 28.0178 20.8437 27.893 20.9067 27.8068C20.9697 27.7206 20.9013 27.775 20.7548 27.9276C20.6083 28.0803 20.5567 28.1508 20.6403 28.0843ZM20.1777 28.5614C20.2235 28.5387 20.278 28.4819 20.2988 28.4352C20.3197 28.3886 20.2823 28.4072 20.2157 28.4766C20.1491 28.546 20.132 28.5842 20.1777 28.5614ZM19.6934 29.066C19.7391 29.0433 19.7936 28.9865 19.8145 28.9398C19.8353 28.8932 19.7979 28.9118 19.7313 28.9812C19.6647 29.0506 19.6477 29.0888 19.6934 29.066ZM27.9763 20.5106C28.0416 20.5733 28.359 20.5165 28.4422 20.4273C28.5352 20.3275 28.5313 20.3248 28.3425 20.3569L28.1462 20.3902L28.3366 20.1573C28.5038 19.9527 28.4921 19.9588 28.2407 20.207C28.0832 20.3625 27.9642 20.4991 27.9763 20.5106ZM27.7524 20.7542C27.7834 20.7518 27.8268 20.7098 27.8488 20.6609C27.8731 20.6069 27.851 20.6087 27.7924 20.6654C27.7394 20.7168 27.7214 20.7567 27.7524 20.7542ZM24.8026 23.863C24.8273 23.8867 24.8244 23.9302 24.7962 23.9595C24.768 23.9889 24.7382 23.9796 24.73 23.9387C24.7218 23.8979 24.7246 23.8545 24.7364 23.8423C24.7482 23.83 24.7779 23.8394 24.8026 23.863ZM9.63827 39.6265C9.66924 39.624 9.71266 39.582 9.73462 39.5332C9.75896 39.4792 9.73685 39.481 9.67827 39.5377C9.6253 39.589 9.6073 39.629 9.63827 39.6265ZM9.27661 40.0085C9.32235 39.9858 9.37684 39.9291 9.39769 39.8824C9.41854 39.8358 9.38114 39.8544 9.31454 39.9237C9.24795 39.9931 9.23086 40.0313 9.27661 40.0085ZM30.1221 18.3752C30.153 18.3727 30.1965 18.3307 30.2184 18.2819C30.2428 18.2279 30.2207 18.2296 30.1621 18.2864C30.1091 18.3377 30.0911 18.3776 30.1221 18.3752ZM28.7901 19.8153C28.8299 19.8324 28.9004 19.8249 28.9466 19.7985C28.9939 19.7716 28.9961 19.7452 28.9515 19.7381C28.9071 19.731 28.9119 19.6672 28.9626 19.5925C29.0268 19.4978 29.0045 19.5062 28.8852 19.6218C28.7759 19.7277 28.7428 19.795 28.7901 19.8153ZM27.2898 21.4513C27.3588 21.4824 27.3882 21.5284 27.3585 21.5593C27.3301 21.5889 27.3236 21.6293 27.3442 21.649C27.4024 21.7049 27.5715 21.473 27.5501 21.3665C27.5353 21.2927 27.5661 21.258 27.6865 21.2124C27.7721 21.18 27.8522 21.116 27.8646 21.0701C27.8894 20.9776 27.4068 21.1687 27.261 21.309C27.1917 21.3758 27.1987 21.4104 27.2898 21.4513ZM18.091 30.9454C18.0992 30.9862 18.129 30.9955 18.1572 30.9662C18.1854 30.9368 18.1883 30.8933 18.1636 30.8697C18.139 30.846 18.1092 30.8366 18.0974 30.8489C18.0857 30.8611 18.0828 30.9045 18.091 30.9454ZM17.6058 31.4007C17.6167 31.4111 17.6598 31.4089 17.7017 31.3958C17.7436 31.3827 17.7565 31.3514 17.7304 31.3263C17.7043 31.3013 17.6611 31.3035 17.6344 31.3312C17.6078 31.359 17.5949 31.3902 17.6058 31.4007ZM10.5311 38.7908C10.5762 38.7684 10.6423 38.701 10.6781 38.641C10.7138 38.5809 10.6769 38.5992 10.5961 38.6816C10.5153 38.764 10.486 38.8131 10.5311 38.7908ZM10.2643 39.064C10.2953 39.0616 10.3387 39.0196 10.3607 38.9707C10.385 38.9167 10.3629 38.9185 10.3043 38.9752C10.2513 39.0266 10.2334 39.0665 10.2643 39.064ZM29.4693 19.1806C29.4775 19.2214 29.5073 19.2308 29.5355 19.2014C29.5637 19.172 29.5666 19.1286 29.5419 19.1049C29.5173 19.0812 29.4875 19.0719 29.4757 19.0841C29.4639 19.0964 29.4611 19.1398 29.4693 19.1806ZM23.7253 25.1295C23.7562 25.127 23.7996 25.085 23.8216 25.0362C23.846 24.9822 23.8238 24.984 23.7653 25.0407C23.7123 25.092 23.6943 25.1319 23.7253 25.1295ZM23.4831 25.3818C23.5141 25.3793 23.5575 25.3373 23.5794 25.2885C23.6038 25.2345 23.5817 25.2363 23.5231 25.293C23.4701 25.3443 23.4521 25.3842 23.4831 25.3818ZM23.0743 25.8882C23.1113 25.9237 23.1197 25.9755 23.0931 26.0032C23.0665 26.031 23.0195 26.0294 22.9887 25.9998C22.9472 25.9597 22.8301 26.0603 22.5349 26.3895C22.2942 26.6578 22.1655 26.8377 22.2093 26.8446C22.249 26.8509 22.3087 26.8051 22.3419 26.7429C22.375 26.6807 22.496 26.5932 22.6106 26.5485C22.7951 26.4766 22.8131 26.458 22.7676 26.3866C22.7103 26.2965 22.9042 26.0605 23.0204 26.0789C23.1016 26.0918 23.3142 25.8961 23.3176 25.8053C23.3212 25.7143 23.1475 25.6772 23.0744 25.7533C23.0373 25.792 23.0373 25.8527 23.0743 25.8882ZM18.6184 30.5306C18.7264 30.532 18.726 30.553 18.616 30.6676C18.5418 30.745 18.5182 30.808 18.561 30.8148C18.6021 30.8213 18.6817 30.7788 18.7379 30.7203C18.794 30.6618 18.8388 30.644 18.8374 30.6808C18.8359 30.7176 18.6522 30.9255 18.429 31.1428C18.0665 31.4959 18.0346 31.5423 18.1295 31.5778C18.1994 31.6039 18.208 31.6323 18.1547 31.6608C18.11 31.6847 18.0563 31.6768 18.0352 31.6431C18.0141 31.6095 17.941 31.6402 17.8729 31.7112C17.8026 31.7844 17.7813 31.8455 17.8237 31.8522C17.8649 31.8587 17.8754 31.8882 17.8472 31.9175C17.819 31.9469 17.7757 31.9516 17.7511 31.9279C17.6764 31.8563 17.5197 32.0684 17.566 32.1785C17.5898 32.2349 17.6232 32.2799 17.6404 32.2786C17.6575 32.2772 17.8918 32.0575 18.161 31.7905C18.5184 31.436 18.6409 31.2848 18.6148 31.2301C18.5951 31.1889 18.622 31.1103 18.6746 31.0555C18.7273 31.0007 18.777 30.9892 18.7852 31.03C18.7939 31.0733 18.8619 31.04 18.9483 30.9499C19.0298 30.865 19.0763 30.7762 19.0516 30.7525C19.0269 30.7288 19.0874 30.6254 19.186 30.5227C19.3819 30.3186 19.2851 30.2759 19.055 30.4649C18.9526 30.5489 18.8845 30.5512 18.7802 30.4742C18.6952 30.4114 18.6124 30.4021 18.5662 30.4503C18.5046 30.5144 18.5143 30.5291 18.6184 30.5306ZM13.8354 35.5861C13.795 35.6539 13.8634 35.5996 13.9875 35.4654C14.1115 35.3313 14.1952 35.2044 14.1735 35.1835C14.1518 35.1626 14.1013 35.2069 14.0614 35.2819C14.0058 35.3861 13.9837 35.3947 13.9674 35.3185C13.9506 35.2402 13.9421 35.2449 13.9275 35.3408C13.9173 35.4079 13.8758 35.5182 13.8354 35.5861ZM19.8759 29.2653C19.917 29.2719 19.9711 29.2558 19.9962 29.2297C20.0213 29.2036 20.0216 29.1629 19.9969 29.1392C19.9723 29.1155 19.9181 29.1316 19.8766 29.1748C19.8351 29.218 19.8347 29.2588 19.8759 29.2653ZM25.0789 23.9343C25.0412 24.0861 24.9898 24.1396 24.9336 24.0857C24.9089 24.062 24.9381 23.9918 24.9984 23.9298C25.0871 23.8385 25.1025 23.8394 25.0789 23.9343ZM20.5456 28.6963C20.582 28.7313 20.559 28.8247 20.4925 28.9119C20.3983 29.0354 20.4188 29.0287 20.5963 28.8783C20.798 28.7074 20.8086 28.6822 20.716 28.5933C20.6598 28.5393 20.5848 28.5267 20.5479 28.5652C20.5113 28.6033 20.5102 28.6623 20.5456 28.6963ZM19.018 30.2355C19.0405 30.2571 19.1477 30.1846 19.2562 30.0743C19.3646 29.964 19.4288 29.8699 19.3989 29.8652C19.3177 29.8523 18.9705 30.1899 19.018 30.2355ZM34.1566 14.5665C34.1648 14.6073 34.2055 14.6053 34.247 14.562C34.2885 14.5188 34.3023 14.464 34.2777 14.4403C34.253 14.4166 34.2123 14.4186 34.1872 14.4447C34.1621 14.4709 34.1484 14.5256 34.1566 14.5665ZM24.5452 24.5854C24.5713 24.6105 24.603 24.5925 24.6157 24.5453C24.6283 24.4982 24.6855 24.4666 24.7428 24.475C24.8251 24.487 24.8307 24.4743 24.7692 24.4141C24.7208 24.3668 24.6548 24.3762 24.5945 24.4389C24.5413 24.4944 24.5191 24.5604 24.5452 24.5854ZM23.8532 25.2786C23.8717 25.2963 23.9393 25.2563 24.0034 25.1895C24.0674 25.1228 24.0945 25.0642 24.0637 25.0593C24.0329 25.0544 23.9653 25.0945 23.9136 25.1484C23.8619 25.2022 23.8348 25.2608 23.8532 25.2786ZM14.6379 34.9021C14.679 34.9086 14.759 34.8628 14.8156 34.8004C14.9149 34.6909 14.9137 34.6891 14.7832 34.7507C14.5968 34.8387 14.5494 34.8881 14.6379 34.9021ZM11.078 38.611C11.1027 38.6346 11.0741 38.7054 11.0145 38.7682C10.955 38.831 10.8932 38.9352 10.8771 38.9998C10.8556 39.0864 10.9076 39.06 11.0753 38.8992C11.2004 38.7793 11.387 38.6094 11.49 38.5216C11.593 38.4339 12.4351 37.5844 13.3613 36.6338C14.2876 35.6832 14.8996 35.0273 14.7213 35.1761C14.5431 35.325 14.2757 35.5482 14.1272 35.6723C13.5566 36.1489 12.9206 36.7809 12.9357 36.8561C12.9441 36.8978 12.9157 36.9429 12.8728 36.9563C12.8298 36.9699 12.769 37.0581 12.7375 37.1527C12.7061 37.2471 12.6262 37.3516 12.5598 37.3849C12.4935 37.4181 12.279 37.605 12.0833 37.8003C11.8876 37.9956 11.7 38.1575 11.6664 38.1602C11.6329 38.1629 11.5423 38.2532 11.4651 38.361C11.3534 38.5168 11.3098 38.5426 11.2516 38.4867C11.2114 38.4481 11.1458 38.4506 11.1058 38.4922C11.0658 38.5338 11.0533 38.5873 11.078 38.611ZM9.66444 40.1061C9.68672 40.1727 9.67539 40.1845 9.60797 40.165C9.51727 40.1388 9.09375 40.5416 9.11269 40.6361C9.11886 40.6666 9.21281 40.5849 9.32146 40.4544C9.44488 40.3061 9.53763 40.2348 9.56845 40.2644C9.64326 40.3362 9.85534 40.0838 9.81025 39.9767C9.76235 39.8628 9.62415 39.9855 9.66444 40.1061ZM20.9306 28.4357C20.9718 28.4422 21.0626 28.3851 21.1326 28.3088C21.2462 28.1848 21.2453 28.1768 21.1244 28.2339C20.9363 28.3227 20.8413 28.4216 20.9306 28.4357ZM16.3779 33.179C16.419 33.1855 16.4078 33.2377 16.3529 33.2948C16.2981 33.3519 16.233 33.3793 16.2084 33.3556C16.1554 33.3048 16.0735 33.4141 16.0569 33.5578C16.0417 33.6896 16.3926 33.5286 16.4947 33.3569C16.5341 33.2906 16.6029 33.2422 16.6476 33.2493C16.6924 33.2563 16.7616 33.2281 16.8016 33.1865C16.8415 33.1448 16.838 33.105 16.7937 33.098C16.7379 33.0892 16.7912 33.0229 16.9672 32.8825C17.1214 32.7595 17.2041 32.6633 17.1776 32.6378C17.1536 32.6148 16.9971 32.7147 16.8297 32.8598C16.6624 33.005 16.4967 33.1113 16.4616 33.0962C16.4264 33.0811 16.3763 33.0909 16.3504 33.1179C16.3244 33.145 16.3368 33.1725 16.3779 33.179ZM14.9896 34.6184C15.0491 34.6005 15.1545 34.5117 15.2237 34.4212C15.3207 34.2944 15.3756 34.2701 15.4627 34.3153C15.5249 34.3475 15.5943 34.3545 15.617 34.3309C15.6693 34.2764 15.4669 34.1949 15.3538 34.2249C15.3071 34.2373 15.1817 34.3383 15.0752 34.4493C14.943 34.587 14.9158 34.6408 14.9896 34.6184ZM32.0857 16.893C32.1392 16.9443 32.3691 16.7901 32.3537 16.7134C32.3469 16.6799 32.3038 16.6712 32.2578 16.6941C32.1216 16.7618 32.0434 16.8523 32.0857 16.893ZM31.4613 17.554C31.486 17.5777 31.5267 17.5757 31.5518 17.5496C31.5769 17.5235 31.5906 17.4687 31.5824 17.4279C31.5742 17.3871 31.5335 17.3891 31.492 17.4323C31.4505 17.4756 31.4367 17.5304 31.4613 17.554ZM30.5847 18.4576C30.6525 18.5227 31.0206 18.1681 31.0874 17.9733C31.146 17.8027 31.1282 17.8124 30.8477 18.1042C30.681 18.2775 30.5627 18.4365 30.5847 18.4576ZM30.4529 18.6293C30.5126 18.6746 30.5686 18.5954 30.5316 18.5182C30.5127 18.4787 30.4791 18.4814 30.457 18.5241C30.4349 18.5669 30.4331 18.6142 30.4529 18.6293ZM30.1653 19.2118C30.1863 19.2356 30.205 19.1758 30.2069 19.0787C30.2093 18.9591 30.1829 18.9103 30.1249 18.9273C30.0474 18.9499 30.069 19.102 30.1653 19.2118ZM29.583 19.4757C29.5195 19.612 29.591 19.6822 29.6892 19.5799C29.7307 19.5367 29.7711 19.5326 29.7787 19.571C29.7864 19.6093 29.8336 19.592 29.8836 19.5324C29.977 19.4211 29.8836 19.3001 29.7314 19.3353C29.6317 19.3583 29.6424 19.3482 29.583 19.4757ZM10.5865 39.3026C10.6112 39.3263 10.6692 39.3056 10.7154 39.2567C10.7873 39.1806 10.7826 39.1726 10.6834 39.2017C10.5373 39.2444 10.5318 39.2501 10.5865 39.3026ZM29.1803 20.0704C29.3513 19.9865 29.3683 19.9897 29.3055 20.0937C29.2468 20.191 29.2572 20.1907 29.3596 20.0924C29.4327 20.0223 29.475 19.9129 29.4596 19.8341C29.4351 19.7088 29.4139 19.7171 29.2076 19.9325C28.9844 20.1653 28.9842 20.1665 29.1803 20.0704ZM28.5662 20.8136C28.6412 20.9247 28.6648 20.9244 28.7312 20.8113C28.7738 20.7387 28.8949 20.5877 29.0004 20.4756C29.1556 20.3108 29.1669 20.2804 29.0601 20.3169C28.9875 20.3416 28.922 20.3317 28.9146 20.2948C28.9072 20.258 28.8061 20.3305 28.6899 20.4559C28.5048 20.6558 28.4895 20.7 28.5662 20.8136ZM27.1364 22.2901C27.1498 22.4036 27.1287 22.4383 27.0421 22.4452C26.8867 22.4576 26.7912 22.5724 26.8718 22.6499C26.9243 22.7002 26.9999 22.6496 27.2141 22.4209C27.3653 22.2594 27.4516 22.146 27.4059 22.1687C27.2102 22.266 27.26 22.1108 27.5069 21.8536C27.795 21.5534 27.9451 21.5424 27.7179 21.8381C27.6313 21.9508 27.6855 21.9134 27.8614 21.7392C28.0202 21.5819 28.1371 21.4234 28.128 21.3782C28.1164 21.32 28.1402 21.2952 28.2132 21.2894C28.269 21.285 28.3473 21.2473 28.3873 21.2057C28.441 21.1497 28.4326 21.1321 28.3553 21.1383C28.2977 21.1429 28.2336 21.1061 28.2127 21.0565C28.1807 20.9804 28.0932 21.0575 27.647 21.5551C27.2041 22.0491 27.1219 22.1673 27.1364 22.2901ZM26.0411 23.4032C26.0908 23.4517 26.4101 23.1002 26.3932 23.0156C26.3844 22.9717 26.305 23.0277 26.1931 23.1567C26.0911 23.2744 26.0227 23.3853 26.0411 23.4032ZM24.2834 25.2067C24.3066 25.229 24.3597 25.2365 24.4015 25.2234C24.5344 25.1818 25.8204 23.7974 25.8776 23.6345C25.9067 23.5517 25.2605 24.1324 24.7691 24.6308C24.4663 24.9379 24.2592 25.1835 24.2834 25.2067ZM22.1854 27.4446C22.1816 27.5431 22.2893 27.463 22.7637 27.0142C23.2503 26.554 23.6836 25.9883 23.6062 25.9141C23.5668 25.8762 22.1886 27.3609 22.1854 27.4446ZM20.4788 29.2624C20.8171 28.9616 21.033 28.6986 20.9103 28.7366C20.8688 28.7495 20.6839 28.936 20.4995 29.151L20.1641 29.542L20.4788 29.2624ZM19.588 30.1039C19.6126 30.1276 19.6424 30.137 19.6542 30.1247C19.6659 30.1125 19.6688 30.0691 19.6606 30.0282C19.6524 29.9874 19.6226 29.9781 19.5944 30.0074C19.5662 30.0368 19.5633 30.0802 19.588 30.1039ZM18.4982 31.2393C18.5393 31.2458 18.539 31.2866 18.4975 31.3298C18.456 31.3731 18.4018 31.3891 18.3771 31.3654C18.3525 31.3418 18.3528 31.301 18.3779 31.2749C18.4029 31.2488 18.4571 31.2328 18.4982 31.2393ZM8.4431 41.6868C8.42114 41.7356 8.37772 41.7776 8.34675 41.7801C8.31578 41.7825 8.33377 41.7426 8.38675 41.6913C8.44533 41.6345 8.46744 41.6328 8.4431 41.6868ZM19.8437 29.9188C19.881 29.9247 19.9445 29.874 19.9849 29.8061C20.0859 29.6363 20.0483 29.6243 19.8999 29.7789C19.8318 29.8499 19.8065 29.9129 19.8437 29.9188ZM17.3292 32.5167C17.3749 32.494 17.4294 32.4372 17.4503 32.3905C17.4711 32.3439 17.4337 32.3625 17.3671 32.4319C17.3005 32.5013 17.2834 32.5395 17.3292 32.5167ZM15.1012 34.8379C15.147 34.8152 15.2015 34.7584 15.2223 34.7117C15.2432 34.6651 15.2058 34.6837 15.1392 34.7531C15.0726 34.8225 15.0555 34.8607 15.1012 34.8379ZM9.03576 41.5467C9.04396 41.5875 9.04109 41.6309 9.02932 41.6431C9.01755 41.6554 8.98778 41.646 8.96311 41.6223C8.93844 41.5987 8.94136 41.5552 8.96955 41.5259C8.99774 41.4965 9.02756 41.5058 9.03576 41.5467ZM7.74711 42.8608C7.72515 42.9096 7.68174 42.9516 7.65077 42.9541C7.6198 42.9565 7.63779 42.9166 7.69077 42.8653C7.74934 42.8085 7.77145 42.8068 7.74711 42.8608ZM28.1111 22.7727C28.1295 22.7905 28.5822 22.3416 29.1171 21.7753C29.7902 21.0623 29.955 20.8699 29.6525 21.1501C29.0248 21.7313 28.0717 22.7347 28.1111 22.7727ZM27.6431 23.2932C27.6525 23.3022 27.7614 23.1996 27.8851 23.0649C28.0783 22.8544 28.0852 22.8372 27.9339 22.9422C27.7696 23.0562 27.6042 23.2559 27.6431 23.2932ZM30.1516 20.6838C30.1973 20.6611 30.2518 20.6043 30.2727 20.5577C30.2935 20.5111 30.2561 20.5297 30.1895 20.599C30.1229 20.6684 30.1058 20.7066 30.1516 20.6838ZM34.6306 16.2087C34.6175 16.2633 34.8341 16.0735 35.1183 15.7812C35.3995 15.4921 35.6077 15.252 35.5808 15.2478C35.5075 15.2362 34.6578 16.0955 34.6306 16.2087ZM12.5331 39.3109C12.5112 39.3597 12.4678 39.4017 12.4368 39.4041C12.4058 39.4066 12.4238 39.3667 12.4768 39.3153C12.5354 39.2586 12.5575 39.2569 12.5331 39.3109ZM16.1142 35.6626C16.1451 35.6602 16.1885 35.6182 16.2105 35.5694C16.2348 35.5154 16.2127 35.5171 16.1542 35.5738C16.1012 35.6252 16.0832 35.6651 16.1142 35.6626ZM33.0425 18.2181C32.7655 18.5225 32.2861 19.0221 31.977 19.3282C31.668 19.6344 31.8946 19.3854 32.4806 18.7747C33.0666 18.1641 33.3195 17.9136 33.0425 18.2181ZM28.7229 22.7608C28.721 22.8107 28.6711 22.886 28.6119 22.9282C28.5322 22.9851 28.5331 22.9615 28.6154 22.8376C28.6871 22.7294 28.7252 22.7023 28.7229 22.7608ZM13.6848 38.3803C13.6628 38.4292 13.6194 38.4712 13.5884 38.4736C13.5575 38.4761 13.5755 38.4361 13.6284 38.3848C13.687 38.3281 13.7091 38.3263 13.6848 38.3803ZM28.3601 23.1827C28.3106 23.2558 28.223 23.3462 28.1655 23.3837C28.108 23.4212 28.1485 23.3614 28.2555 23.2508C28.3626 23.1403 28.4096 23.1097 28.3601 23.1827ZM27.682 23.8892C27.6325 23.9622 27.5449 24.0527 27.4874 24.0902C27.4299 24.1276 27.4704 24.0678 27.5775 23.9573C27.6845 23.8468 27.7316 23.8161 27.682 23.8892ZM26.1811 25.4545C26.104 25.5548 25.9731 25.6908 25.8901 25.7569C25.807 25.8229 25.8701 25.7408 26.0302 25.5745C26.1902 25.4082 26.2581 25.3543 26.1811 25.4545ZM25.4787 26.1857C25.4154 26.2723 25.3061 26.3855 25.2359 26.4374C25.1657 26.4893 25.2175 26.4184 25.351 26.2799C25.4846 26.1415 25.542 26.0991 25.4787 26.1857ZM19.1333 32.7941C19.098 32.8535 19.0217 32.933 18.9638 32.9707C18.9059 33.0084 18.9348 32.9599 19.028 32.8627C19.1213 32.7656 19.1686 32.7348 19.1333 32.7941ZM18.3329 33.6255C18.3121 33.6722 18.2576 33.729 18.2118 33.7517C18.1661 33.7745 18.1832 33.7363 18.2498 33.6669C18.3164 33.5975 18.3538 33.5789 18.3329 33.6255Z" fill="url(#paint1_linear_103_11)"/>
<defs>
<linearGradient id="paint0_linear_103_11" x1="4.89429" y1="1.17114" x2="23.6332" y2="50.6938" gradientUnits="userSpaceOnUse">
<stop stop-color="#12A04B"/>
<stop offset="1" stop-color="#25313F"/>
</linearGradient>
<linearGradient id="paint1_linear_103_11" x1="39.147" y1="-0.732816" x2="25.6872" y2="50.4773" gradientUnits="userSpaceOnUse">
<stop stop-color="#12A04B"/>
<stop offset="1" stop-color="#25313F"/>
</linearGradient>
</defs>
</svg>
