<svg width="684" height="210" viewBox="0 0 684 210" fill="none" xmlns="http://www.w3.org/2000/svg">
<path d="M424.25 13.31C419.759 11.2677 415.123 9.55977 410.38 8.2C405.658 6.84172 400.841 5.83892 395.97 5.2C391.131 4.56745 386.248 4.32667 381.37 4.48L375.64 4.67L383.1 13.51H384.42C388.397 13.4574 392.371 13.7082 396.31 14.26C400.297 14.8152 404.24 15.6506 408.11 16.76C412.001 17.874 415.811 19.2574 419.51 20.9C423.203 22.5364 426.772 24.438 430.19 26.59L431.33 27.31L441.89 23.55L437.23 20.48C433.095 17.7583 428.755 15.3611 424.25 13.31V13.31Z" fill="black" stroke="black" stroke-width="7.95" stroke-miterlimit="10"/>
<path d="M468.3 62.56C467.454 58.2555 466.067 54.0755 464.17 50.12L463 47.74L454 51.45L455.13 54.05C456.472 57.1218 457.436 60.3455 458 63.65C458.527 66.7652 458.628 69.9376 458.3 73.08C457.972 76.1775 457.19 79.21 455.98 82.08C454.715 85.0591 453.013 87.833 450.93 90.31L449.43 92.1L456.64 100.64L458.77 98.24C461.671 94.9669 464.034 91.254 465.77 87.24C467.439 83.3915 468.495 79.3053 468.9 75.13C469.304 70.9329 469.102 66.6995 468.3 62.56V62.56Z" fill="black" stroke="black" stroke-width="7.95" stroke-miterlimit="10"/>
<path d="M352.55 22.53L346.33 14.53L344.16 16.11C340.732 18.5818 337.66 21.5125 335.03 24.82C332.473 28.0505 330.416 31.6474 328.93 35.49C327.425 39.4024 326.538 43.525 326.3 47.71C326.052 52.1781 326.476 56.6581 327.56 61L328.3 64L338.69 60.3L338.17 57.91C337.459 54.6713 337.207 51.3489 337.42 48.04C337.628 44.962 338.282 41.9305 339.36 39.04C340.434 36.1795 341.909 33.486 343.74 31.04C345.645 28.5035 347.874 26.2274 350.37 24.27L352.55 22.53Z" fill="black" stroke="black" stroke-width="7.95" stroke-miterlimit="10"/>
<path d="M416.36 106.08C411.671 106.455 406.958 106.395 402.28 105.9C397.443 105.391 392.659 104.467 387.98 103.14C383.257 101.817 378.654 100.097 374.22 98C369.843 95.9191 365.66 93.4527 361.72 90.63L360.47 89.73L349.3 94.3L353.18 97.25C357.957 100.866 363.07 104.014 368.45 106.65C373.908 109.325 379.598 111.497 385.45 113.14C391.23 114.775 397.148 115.873 403.13 116.42C405.85 116.667 408.55 116.79 411.23 116.79C414.351 116.791 417.469 116.618 420.57 116.27L425.52 115.71L417.92 106L416.36 106.08Z" fill="black" stroke="black" stroke-width="7.95" stroke-miterlimit="10"/>
<path d="M418.44 61.56L448.77 36.69L403.73 43.94L363.86 13.21L379.8 52.63L340.68 77.99L395.92 74.28L438.84 106.07L418.44 61.56Z" fill="black"/>
<path d="M418.44 61.56L448.77 36.69L403.73 43.94L363.86 13.21L379.8 52.63L340.68 77.99L395.92 74.28L438.84 106.07L418.44 61.56Z" stroke="black" stroke-width="4" stroke-miterlimit="10"/>
<path d="M340.68 77.99L400.95 56.95L379.82 52.52L340.68 77.99Z" fill="white"/>
<path d="M363.86 13.21L400.95 56.95L403.73 43.94L363.86 13.21Z" fill="white"/>
<path d="M448.77 36.69L400.95 56.95L418.44 61.56L448.77 36.69Z" fill="white"/>
<path d="M438.84 106.07L400.95 56.95L395.92 74.28L438.84 106.07Z" fill="white"/>
<path d="M23.67 209.51C50.15 201.42 77.1401 195.15 104.17 189.19C131.2 183.23 158.49 178.38 185.83 173.98C240.53 165.22 295.68 159.22 350.99 155.61C364.83 154.86 378.66 154 392.51 153.51C406.36 153.02 420.22 152.64 434.07 152.37C441 152.27 447.93 152.29 454.86 152.24H465.25L475.64 152.39L496.42 152.72L517.2 153.46C520.66 153.59 524.12 153.68 527.58 153.86L537.96 154.45C544.88 154.85 551.79 155.2 558.7 155.68C572.51 156.8 586.33 157.68 600.1 159.27L620.75 161.53C627.62 162.41 634.49 163.24 641.34 164.21C655.07 165.95 668.71 168.38 682.34 170.69C675.42 170.51 668.51 170.19 661.61 169.94L651.27 169.46L640.92 169.16C634.02 169 627.13 168.7 620.24 168.45L599.59 168L589.26 167.75C585.82 167.67 582.37 167.68 578.93 167.64L558.28 167.39H527.28L516.96 167.49L496.33 167.7L475.7 168.13L465.39 168.35L455.08 168.67C448.21 168.89 441.34 169.04 434.47 169.32L413.86 170.15C406.99 170.37 400.13 170.82 393.26 171.15C379.52 171.73 365.81 172.65 352.08 173.45C297.2 177.01 242.393 181.817 187.66 187.87C160.327 190.89 132.993 194.2 105.66 197.8C78.3267 201.4 50.9967 205.303 23.67 209.51Z" fill="black"/>
<path d="M37.17 59L2.50998 5.29999C1.13998 3.06999 2.50997 0.5 5.42997 0.5H30.43C30.9735 0.538382 31.5018 0.696311 31.9772 0.962524C32.4525 1.22874 32.8633 1.59667 33.18 2.04001L53 34H53.17L73.2 2C73.5006 1.54099 73.9076 1.16132 74.3864 0.893219C74.8651 0.625116 75.4015 0.476491 75.95 0.459991H100.95C103.87 0.459991 105.41 3.03001 103.87 5.26001L69.09 59L105.09 115.79C106.63 118.19 105.09 120.59 102.34 120.59H78.52C77.9491 120.568 77.3904 120.418 76.885 120.152C76.3797 119.885 75.9406 119.509 75.6 119.05L53.12 84.39H52.78L30.78 119.05C30.4425 119.512 30.004 119.891 29.498 120.158C28.992 120.424 28.4318 120.572 27.86 120.59H4.05998C1.13998 120.59 -0.40002 118.02 1.13998 115.79L37.17 59Z" fill="black"/>
<path d="M162.08 3.75C162.08 2.88539 162.423 2.05619 163.035 1.44482C163.646 0.833456 164.475 0.48999 165.34 0.48999H206.69C227.79 0.48999 245.12 17.65 245.12 38.41C245.12 59.68 227.79 77.01 206.86 77.01H188.86V117.33C188.832 118.186 188.48 118.999 187.875 119.605C187.269 120.21 186.456 120.563 185.6 120.59H165.34C164.475 120.59 163.646 120.247 163.035 119.635C162.423 119.024 162.08 118.195 162.08 117.33V3.75ZM205.14 52C206.922 52.0106 208.689 51.6674 210.338 50.9902C211.987 50.313 213.485 49.3153 214.745 48.055C216.005 46.7946 217.003 45.2966 217.68 43.6479C218.357 41.9991 218.701 40.2324 218.69 38.45C218.69 31.24 212.51 25.75 205.14 25.75H188.84V52H205.14Z" fill="black"/>
<path d="M262.62 3.75C262.62 2.88539 262.963 2.05619 263.575 1.44482C264.186 0.833456 265.015 0.48999 265.88 0.48999H286.3C287.156 0.517499 287.969 0.869803 288.575 1.47531C289.18 2.08082 289.532 2.89412 289.56 3.75V95.37H330.39C331.255 95.37 332.084 95.7135 332.695 96.3248C333.307 96.9362 333.65 97.7654 333.65 98.63V117.33C333.65 118.195 333.307 119.024 332.695 119.635C332.084 120.247 331.255 120.59 330.39 120.59H265.88C265.015 120.59 264.186 120.247 263.575 119.635C262.963 119.024 262.62 118.195 262.62 117.33V3.75Z" fill="black"/>
<path d="M491 3.74999C491 2.88538 491.343 2.05618 491.955 1.44481C492.566 0.833444 493.395 0.489979 494.26 0.489979H545.56C555.428 0.465955 564.903 4.35197 571.912 11.2975C578.922 18.2431 582.894 27.6825 582.96 37.55C582.96 53.33 572.49 66.03 557.57 72.04L581 115.62C581.324 116.124 581.501 116.708 581.514 117.307C581.527 117.906 581.373 118.497 581.071 119.014C580.769 119.532 580.33 119.955 579.802 120.239C579.274 120.522 578.678 120.654 578.08 120.62H555.3C554.747 120.626 554.202 120.488 553.719 120.217C553.237 119.947 552.834 119.555 552.55 119.08L529.73 73.61H517.9V117.36C517.873 118.216 517.52 119.029 516.915 119.635C516.309 120.24 515.496 120.592 514.64 120.62H494.22C493.355 120.62 492.526 120.277 491.915 119.665C491.303 119.054 490.96 118.225 490.96 117.36L491 3.74999ZM543.33 51.75C550.33 51.75 556.33 45.23 556.33 38.02C556.294 34.5835 554.912 31.298 552.482 28.8679C550.052 26.4378 546.767 25.0564 543.33 25.02H517.9V51.78L543.33 51.75Z" fill="black"/>
<path d="M605.92 3.75C605.92 2.88539 606.263 2.05619 606.875 1.44482C607.486 0.833456 608.315 0.48999 609.18 0.48999H680.18C681.045 0.48999 681.874 0.833456 682.485 1.44482C683.097 2.05619 683.44 2.88539 683.44 3.75V22.45C683.44 23.3146 683.097 24.1438 682.485 24.7552C681.874 25.3665 681.045 25.71 680.18 25.71H632.68V47H671.8C672.656 47.0275 673.469 47.3798 674.075 47.9853C674.68 48.5908 675.032 49.4041 675.06 50.26V69C675.06 69.8646 674.717 70.6938 674.105 71.3052C673.494 71.9165 672.665 72.26 671.8 72.26H632.68V95.42H680.21C681.075 95.42 681.904 95.7634 682.515 96.3748C683.127 96.9862 683.47 97.8154 683.47 98.68V117.38C683.47 118.245 683.127 119.074 682.515 119.685C681.904 120.297 681.075 120.64 680.21 120.64H609.21C608.345 120.64 607.516 120.297 606.905 119.685C606.293 119.074 605.95 118.245 605.95 117.38L605.92 3.75Z" fill="black"/>
<path d="M138.54 3.60998V56C138.54 56.7956 138.224 57.5587 137.661 58.1213C137.099 58.6839 136.336 59 135.54 59H101.34C100.808 58.9916 100.287 58.8415 99.8316 58.5654C99.3763 58.2892 99.0027 57.8968 98.7492 57.4285C98.4957 56.9602 98.3714 56.4328 98.3891 55.9006C98.4068 55.3683 98.5659 54.8504 98.85 54.4L133.08 1.99999C133.44 1.48323 133.953 1.09283 134.547 0.884086C135.142 0.675346 135.786 0.658857 136.39 0.836967C136.994 1.01508 137.527 1.37876 137.913 1.87646C138.299 2.37416 138.518 2.98062 138.54 3.60998V3.60998Z" fill="black"/>
<path d="M418.44 61.56L448.77 36.69L403.73 43.94L363.86 13.21L379.8 52.63L340.68 77.99L395.92 74.28L438.84 106.07L418.44 61.56Z" fill="black"/>
<path d="M340.68 77.99L400.95 56.95L379.82 52.52L340.68 77.99Z" fill="white"/>
<path d="M363.86 13.21L400.95 56.95L403.73 43.94L363.86 13.21Z" fill="white"/>
<path d="M448.77 36.69L400.95 56.95L418.44 61.56L448.77 36.69Z" fill="white"/>
<path d="M438.84 106.07L400.95 56.95L395.92 74.28L438.84 106.07Z" fill="white"/>
</svg>
