<svg width="150" height="49.5" data-name="Calque 1" version="1.1" viewBox="0 0 682.94 209.05" xmlns="http://www.w3.org/2000/svg">
 <defs>
  <style>.cls-1,.cls-2{fill:#1f2b3a;}.cls-1{stroke:#1f2b3a;stroke-miterlimit:10;stroke-width:7.95px;}.cls-3{fill:#1fce55;}</style>
 </defs>
 <title>Logo-xplore-final</title>
 <path class="cls-1" d="m423.72 12.85a100.27 100.27 0 0 0-13.87-5.11 98.42 98.42 0 0 0-14.41-3 90.67 90.67 0 0 0-14.6-0.72l-5.73 0.19 7.46 8.84h1.32a78.24 78.24 0 0 1 11.89 0.75 85.72 85.72 0 0 1 11.8 2.5 87.3 87.3 0 0 1 11.4 4.14 83.66 83.66 0 0 1 10.68 5.69l1.14 0.72 10.56-3.76-4.66-3.07a95.81 95.81 0 0 0-12.98-7.17z"/>
 <path class="cls-1" d="m467.77 62.1a51.92 51.92 0 0 0-4.13-12.44l-1.17-2.38-9 3.71 1.13 2.6a41.34 41.34 0 0 1 2.87 9.6 34.83 34.83 0 0 1 0.3 9.43 31.76 31.76 0 0 1-2.32 9 32.55 32.55 0 0 1-5.05 8.23l-1.5 1.79 7.21 8.54 2.13-2.4a41.32 41.32 0 0 0 7-11 40.17 40.17 0 0 0 3.13-12.11 43.94 43.94 0 0 0-0.6-12.57z"/>
 <path class="cls-1" d="m352.02 22.07-6.22-8-2.17 1.58a46.17 46.17 0 0 0-9.13 8.71 41.06 41.06 0 0 0-6.1 10.67 40.44 40.44 0 0 0-2.63 12.22 44.66 44.66 0 0 0 1.26 13.29l0.74 3 10.39-3.7-0.52-2.39a35.42 35.42 0 0 1-0.75-9.87 31.91 31.91 0 0 1 1.94-9 32.29 32.29 0 0 1 4.38-8 36.32 36.32 0 0 1 6.63-6.77z"/>
 <path class="cls-1" d="m415.83 105.62a76.09 76.09 0 0 1-14.08-0.18 85 85 0 0 1-14.3-2.76 87.19 87.19 0 0 1-13.76-5.14 81.66 81.66 0 0 1-12.5-7.37l-1.25-0.9-11.17 4.57 3.88 2.95a93.34 93.34 0 0 0 15.27 9.4 100.15 100.15 0 0 0 17 6.49 97.58 97.58 0 0 0 17.68 3.28q4.08 0.37 8.1 0.37a83.46 83.46 0 0 0 9.34-0.52l4.95-0.56-7.6-9.71z"/>
 <polygon class="cls-2" transform="translate(-158.53 -395.46)" points="561.73 438.94 521.86 408.21 537.8 447.63 498.68 472.99 553.92 469.28 596.84 501.07 576.44 456.56 606.77 431.69"/>
 <polygon class="cls-3" transform="translate(-158.53 -395.46)" points="537.82 447.52 498.68 472.99 558.95 451.95"/>
 <polygon class="cls-3" transform="translate(-158.53 -395.46)" points="561.73 438.94 521.86 408.21 558.95 451.95"/>
 <polygon class="cls-3" transform="translate(-158.53 -395.46)" points="576.44 456.56 606.77 431.69 558.95 451.95"/>
 <polygon class="cls-3" transform="translate(-158.53 -395.46)" points="553.92 469.28 596.84 501.07 558.95 451.95"/>
 <path class="cls-2" d="m23.137 209.05c26.48-8.09 53.47-14.36 80.5-20.32 27.03-5.96 54.32-10.81 81.66-15.21 54.7-8.76 109.85-14.76 165.16-18.37 13.84-0.75 27.67-1.61 41.52-2.1s27.71-0.87 41.56-1.14c6.93-0.1 13.86-0.08 20.79-0.13h10.39l10.39 0.15 20.78 0.33 20.78 0.74c3.46 0.13 6.92 0.22 10.38 0.4l10.38 0.59c6.92 0.4 13.83 0.75 20.74 1.23 13.81 1.12 27.63 2 41.4 3.59l20.65 2.26c6.87 0.88 13.74 1.71 20.59 2.68 13.73 1.74 27.37 4.17 41 6.48-6.92-0.18-13.83-0.5-20.73-0.75l-10.34-0.48-10.35-0.3c-6.9-0.16-13.79-0.46-20.68-0.71l-20.65-0.45-10.33-0.25c-3.44-0.08-6.89-0.07-10.33-0.11l-20.65-0.25h-31l-10.32 0.1-20.63 0.21-20.63 0.43-10.31 0.22-10.31 0.32c-6.87 0.22-13.74 0.37-20.61 0.65l-20.61 0.83c-6.87 0.22-13.73 0.67-20.6 1-13.74 0.58-27.45 1.5-41.18 2.3q-82.32 5.34-164.42 14.42-41 4.53-82 9.93-41 5.4-81.99 11.71z"/>
 <path class="cls-2" d="m36.637 58.54-34.66-53.7c-1.37-2.23 0-4.8 2.92-4.8h25a3.7 3.7 0 0 1 2.75 1.54l19.82 31.96h0.17l20.03-32a3.41 3.41 0 0 1 2.75-1.54h25c2.92 0 4.46 2.57 2.92 4.8l-34.78 53.74 36 56.79c1.54 2.4 0 4.8-2.75 4.8h-23.82a3.82 3.82 0 0 1-2.92-1.54l-22.48-34.66h-0.34l-22 34.66a3.76 3.76 0 0 1-2.92 1.54h-23.8c-2.92 0-4.46-2.57-2.92-4.8z"/>
 <path class="cls-2" d="m161.55 3.29a3.26 3.26 0 0 1 3.26-3.26h41.35c21.1 0 38.43 17.16 38.43 37.92 0 21.27-17.33 38.6-38.26 38.6h-18v40.32a3.37 3.37 0 0 1-3.26 3.26h-20.26a3.26 3.26 0 0 1-3.26-3.26zm43.06 48.25a13.47 13.47 0 0 0 13.55-13.55c0-7.21-6.18-12.7-13.55-12.7h-16.3v26.25z"/>
 <path class="cls-2" d="m262.09 3.29a3.26 3.26 0 0 1 3.26-3.26h20.42a3.37 3.37 0 0 1 3.26 3.26v91.62h40.83a3.26 3.26 0 0 1 3.26 3.26v18.7a3.26 3.26 0 0 1-3.26 3.26h-64.51a3.26 3.26 0 0 1-3.26-3.26z"/>
 <path class="cls-2" d="m490.47 3.29a3.26 3.26 0 0 1 3.26-3.26h51.3a37.31 37.31 0 0 1 37.4 37.06c0 15.78-10.47 28.48-25.39 34.49l23.43 43.58a3.25 3.25 0 0 1-2.92 5h-22.78a3.16 3.16 0 0 1-2.75-1.54l-22.82-45.47h-11.83v43.75a3.37 3.37 0 0 1-3.26 3.26h-20.42a3.26 3.26 0 0 1-3.26-3.26zm52.33 48c7 0 13-6.52 13-13.73a13.14 13.14 0 0 0-13-13h-25.43v26.76z"/>
 <path class="cls-2" d="m605.39 3.29a3.26 3.26 0 0 1 3.26-3.26h71a3.26 3.26 0 0 1 3.26 3.26v18.7a3.26 3.26 0 0 1-3.26 3.26h-47.5v21.29h39.12a3.37 3.37 0 0 1 3.26 3.26v18.74a3.26 3.26 0 0 1-3.26 3.26h-39.12v23.16h47.53a3.26 3.26 0 0 1 3.26 3.26v18.7a3.26 3.26 0 0 1-3.26 3.26h-71a3.26 3.26 0 0 1-3.26-3.26z"/>
 <path class="cls-3" d="m138.01 3.15v52.39a3 3 0 0 1-3 3h-34.2a3 3 0 0 1-2.49-4.6l34.23-52.4a3 3 0 0 1 5.46 1.61z"/>
</svg>
