<svg width="206" height="1475" viewBox="0 0 206 1475" fill="none" xmlns="http://www.w3.org/2000/svg">
<path d="M26.001 346.193L30.4442 343.9L26.001 346.193ZM192.63 700.628L187.73 699.63L192.63 700.628ZM67.1439 1132.81L62.4809 1134.61L67.1439 1132.81ZM135.654 10.7279C133.574 12.5448 133.362 15.7034 135.178 17.783C136.995 19.8625 140.154 20.0755 142.233 18.2586L135.654 10.7279ZM118.612 40.5174C120.553 38.5534 120.535 35.3876 118.571 33.4465C116.607 31.5053 113.441 31.5238 111.5 33.4879L118.612 40.5174ZM89.0334 57.802C87.2282 59.8917 87.4589 63.0491 89.5486 64.8543C91.6383 66.6595 94.7957 66.4288 96.6008 64.3391L89.0334 57.802ZM76.2477 89.5912C77.9047 87.3822 77.4572 84.2482 75.2481 82.5912C73.0391 80.9342 69.905 81.3817 68.2481 83.5908L76.2477 89.5912ZM49.3377 110.848C47.8519 113.176 48.5344 116.267 50.862 117.753C53.1897 119.239 56.2811 118.556 57.7668 116.228L49.3377 110.848ZM41.516 144.206C42.7967 141.759 41.8515 138.738 39.405 137.457C36.9585 136.176 33.9371 137.122 32.6564 139.568L41.516 144.206ZM18.6791 169.775C17.6502 172.338 18.8935 175.249 21.4561 176.278C24.0187 177.307 26.9301 176.063 27.959 173.501L18.6791 169.775ZM17.7138 204.005C18.4311 201.338 16.8509 198.595 14.1843 197.878C11.5177 197.16 8.77441 198.74 8.05707 201.407L17.7138 204.005ZM1.59513 234.243C1.2585 236.984 3.20749 239.479 5.94832 239.815C8.68915 240.152 11.1839 238.203 11.5206 235.462L1.59513 234.243ZM10.1466 267.383C10.0378 264.623 7.71272 262.475 4.95344 262.584C2.19416 262.692 0.0455303 265.017 0.154343 267.777L10.1466 267.383ZM4.39665 301.115C4.98605 303.813 7.65084 305.522 10.3486 304.933C13.0464 304.343 14.7556 301.678 14.1662 298.981L4.39665 301.115ZM23.71 329.391C22.6551 326.839 19.7311 325.626 17.1791 326.681C14.6272 327.736 13.4136 330.66 14.4685 333.212L23.71 329.391ZM29.811 363.796C31.1655 366.202 34.2143 367.055 36.6207 365.701C39.0271 364.346 39.8799 361.297 38.5254 358.891L29.811 363.796ZM56.3259 387.891C54.7918 385.595 51.6869 384.977 49.3908 386.511C47.0946 388.045 46.4768 391.15 48.0109 393.446L56.3259 387.891ZM68.4615 421.632C70.1671 423.804 73.3103 424.181 75.482 422.476C77.6537 420.77 78.0316 417.627 76.326 415.455L68.4615 421.632ZM98.2512 441.459C96.4047 439.405 93.2433 439.238 91.19 441.084C89.1367 442.93 88.969 446.092 90.8155 448.145L98.2512 441.459ZM114.552 473.348C116.478 475.326 119.644 475.368 121.622 473.441C123.6 471.515 123.642 468.349 121.716 466.371L114.552 473.348ZM145.739 491.064C143.837 489.062 140.672 488.982 138.671 490.885C136.669 492.787 136.589 495.952 138.491 497.953L145.739 491.064ZM160.866 523.419C162.571 525.591 165.714 525.969 167.886 524.264C170.058 522.559 170.437 519.416 168.731 517.244L160.866 523.419ZM187.999 546.797C186.732 544.343 183.716 543.381 181.262 544.648C178.808 545.915 177.846 548.931 179.113 551.385L187.999 546.797ZM190.83 582.401C191.504 585.079 194.222 586.703 196.899 586.029C199.577 585.355 201.201 582.638 200.527 579.96L190.83 582.401ZM205.655 614.844C205.503 612.086 203.145 609.974 200.387 610.126C197.63 610.278 195.518 612.636 195.67 615.393L205.655 614.844ZM195.121 649.195C194.905 651.948 196.962 654.355 199.715 654.571C202.468 654.787 204.874 652.731 205.091 649.978L195.121 649.195ZM200.727 684.504C201.187 681.782 199.353 679.201 196.63 678.741C193.908 678.281 191.327 680.115 190.867 682.838L200.727 684.504ZM184.037 715.924C183.367 718.603 184.995 721.318 187.674 721.988C190.353 722.659 193.068 721.031 193.738 718.352L184.037 715.924ZM183.896 751.153C184.813 748.549 183.445 745.693 180.841 744.776C178.236 743.859 175.381 745.227 174.464 747.832L183.896 751.153ZM161.934 778.65C160.774 781.157 161.866 784.128 164.372 785.288C166.879 786.447 169.85 785.355 171.01 782.849L161.934 778.65ZM155.291 813.194C156.664 810.799 155.835 807.743 153.439 806.37C151.044 804.997 147.988 805.826 146.615 808.222L155.291 813.194ZM128.941 836.628C127.408 838.925 128.027 842.029 130.324 843.562C132.621 845.095 135.726 844.476 137.259 842.179L128.941 836.628ZM117.826 869.996C119.441 867.756 118.935 864.631 116.695 863.016C114.455 861.401 111.33 861.908 109.715 864.148L117.826 869.996ZM89.9331 891.586C88.3377 893.84 88.8715 896.961 91.1253 898.556C93.3792 900.151 96.4997 899.618 98.0952 897.364L89.9331 891.586ZM79.5604 925.168C81.0019 922.812 80.261 919.734 77.9057 918.293C75.5504 916.852 72.4724 917.592 71.031 919.948L79.5604 925.168ZM54.8912 950.333C53.7731 952.858 54.9136 955.811 57.4385 956.929C59.9635 958.047 62.9167 956.907 64.0348 954.382L54.8912 950.333ZM53.469 985.415C54.1087 982.729 52.4496 980.033 49.7632 979.393C47.0769 978.753 44.3807 980.412 43.741 983.099L53.469 985.415ZM39.0173 1017.45C38.9012 1020.21 41.0437 1022.54 43.8027 1022.65C46.5617 1022.77 48.8924 1020.63 49.0084 1017.87L39.0173 1017.45ZM50.3963 1050.7C50.0661 1047.96 47.576 1046 44.8344 1046.33C42.0927 1046.66 40.1378 1049.15 40.468 1051.89L50.3963 1050.7ZM46.7593 1085.65C47.4228 1088.33 50.1336 1089.96 52.8142 1089.3C55.4947 1088.64 57.1299 1085.93 56.4665 1083.25L46.7593 1085.65ZM66.0092 1115.2C65.1063 1112.59 62.2589 1111.21 59.6492 1112.11C57.0396 1113.01 55.656 1115.86 56.5589 1118.47L66.0092 1115.2ZM67.8156 1148.49C68.8009 1151.07 71.6909 1152.36 74.2706 1151.37C76.8502 1150.39 78.1427 1147.5 77.1574 1144.92L67.8156 1148.49ZM87.5709 1172.58C86.6108 1169.99 83.7337 1168.67 81.1445 1169.63C78.5553 1170.59 77.2346 1173.46 78.1946 1176.05L87.5709 1172.58ZM88.311 1203.81C89.241 1206.41 92.1028 1207.77 94.7029 1206.84C97.303 1205.91 98.6568 1203.05 97.7267 1200.45L88.311 1203.81ZM107.519 1228.41C106.625 1225.79 103.782 1224.4 101.169 1225.29C98.5566 1226.19 97.1636 1229.03 98.0579 1231.64L107.519 1228.41ZM107.368 1259.57C108.218 1262.2 111.038 1263.64 113.665 1262.79C116.292 1261.94 117.732 1259.12 116.881 1256.49L107.368 1259.57ZM125.74 1284.79C124.944 1282.15 122.154 1280.65 119.51 1281.45C116.866 1282.25 115.369 1285.04 116.166 1287.68L125.74 1284.79ZM124.313 1315.98C125.041 1318.65 127.79 1320.22 130.454 1319.49C133.118 1318.76 134.687 1316.01 133.959 1313.35L124.313 1315.98ZM141.319 1342.07C140.68 1339.38 137.984 1337.72 135.297 1338.36C132.611 1339 130.951 1341.69 131.59 1344.38L141.319 1342.07ZM137.785 1373.07C138.306 1375.78 140.926 1377.56 143.638 1377.03C146.35 1376.51 148.126 1373.89 147.605 1371.18L137.785 1373.07ZM152.438 1400.66C152.072 1397.92 149.556 1396 146.819 1396.36C144.082 1396.73 142.16 1399.25 142.526 1401.98L152.438 1400.66ZM145.43 1431.04C145.61 1433.8 147.99 1435.88 150.746 1435.7C153.501 1435.52 155.589 1433.14 155.408 1430.39L145.43 1431.04ZM156.441 1460.19C156.415 1457.43 154.156 1455.21 151.395 1455.23C148.633 1455.26 146.416 1457.52 146.441 1460.28L156.441 1460.19ZM148.368 0.0924106C144.282 3.35403 140.029 6.90551 135.654 10.7279L142.233 18.2586C146.502 14.5289 150.642 11.0726 154.606 7.90759L148.368 0.0924106ZM111.5 33.4879C104.069 41.0066 96.5196 49.1359 89.0334 57.802L96.6008 64.3391C103.936 55.8475 111.333 47.8823 118.612 40.5174L111.5 33.4879ZM68.2481 83.5908C61.7114 92.3053 55.3625 101.409 49.3377 110.848L57.7668 116.228C63.6471 107.016 69.8513 98.1188 76.2477 89.5912L68.2481 83.5908ZM32.6564 139.568C27.5205 149.38 22.8182 159.466 18.6791 169.775L27.959 173.501C31.9633 163.528 36.5222 153.746 41.516 144.206L32.6564 139.568ZM8.05707 201.407C5.15626 212.191 2.9571 223.154 1.59513 234.243L11.5206 235.462C12.821 224.874 14.9251 214.372 17.7138 204.005L8.05707 201.407ZM0.154343 267.777C0.590854 278.846 1.96316 289.977 4.39665 301.115L14.1662 298.981C11.8625 288.436 10.5609 277.889 10.1466 267.383L0.154343 267.777ZM14.4685 333.212C16.5793 338.317 18.9386 343.411 21.5578 348.486L30.4442 343.9C27.9531 339.073 25.7125 334.235 23.71 329.391L14.4685 333.212ZM21.5578 348.486C24.2811 353.763 27.034 358.862 29.811 363.796L38.5254 358.891C35.8075 354.062 33.112 349.069 30.4442 343.9L21.5578 348.486ZM48.0109 393.446C54.7876 403.59 61.6295 412.933 68.4615 421.632L76.326 415.455C69.6403 406.943 62.9503 397.806 56.3259 387.891L48.0109 393.446ZM90.8155 448.145C98.9155 457.153 106.877 465.468 114.552 473.348L121.716 466.371C114.079 458.53 106.222 450.323 98.2512 441.459L90.8155 448.145ZM138.491 497.953C146.614 506.5 154.124 514.831 160.866 523.419L168.731 517.244C161.714 508.304 153.963 499.717 145.739 491.064L138.491 497.953ZM179.113 551.385C184.002 560.853 187.971 571.045 190.83 582.401L200.527 579.96C197.474 567.833 193.226 556.922 187.999 546.797L179.113 551.385ZM195.67 615.393C196.237 625.703 196.086 636.908 195.121 649.195L205.091 649.978C206.086 637.3 206.249 625.647 205.655 614.844L195.67 615.393ZM190.867 682.838C189.952 688.255 188.908 693.849 187.73 699.63L197.529 701.626C198.728 695.741 199.793 690.037 200.727 684.504L190.867 682.838ZM187.73 699.63C186.595 705.207 185.361 710.635 184.037 715.924L193.738 718.352C195.098 712.919 196.364 707.347 197.529 701.626L187.73 699.63ZM174.464 747.832C170.637 758.698 166.428 768.936 161.934 778.65L171.01 782.849C175.63 772.863 179.959 762.332 183.896 751.153L174.464 747.832ZM146.615 808.222C140.916 818.166 134.978 827.582 128.941 836.628L137.259 842.179C143.393 832.987 149.456 823.375 155.291 813.194L146.615 808.222ZM109.715 864.148C103.01 873.447 96.3122 882.575 89.9331 891.586L98.0952 897.364C104.444 888.394 111.051 879.392 117.826 869.996L109.715 864.148ZM71.031 919.948C65.0175 929.774 59.5467 939.82 54.8912 950.333L64.0348 954.382C68.4718 944.362 73.7195 934.712 79.5604 925.168L71.031 919.948ZM43.741 983.099C41.1689 993.9 39.5289 1005.28 39.0173 1017.45L49.0084 1017.87C49.493 1006.35 51.0439 995.599 53.469 985.415L43.741 983.099ZM40.468 1051.89C41.7513 1062.55 43.82 1073.77 46.7593 1085.65L56.4665 1083.25C53.617 1071.73 51.6266 1060.92 50.3963 1050.7L40.468 1051.89ZM56.5589 1118.47C58.3784 1123.73 60.3505 1129.11 62.4809 1134.61L71.8068 1131C69.718 1125.61 67.7876 1120.34 66.0092 1115.2L56.5589 1118.47ZM62.4809 1134.61C64.2982 1139.31 66.0761 1143.93 67.8156 1148.49L77.1574 1144.92C75.4125 1140.35 73.6293 1135.71 71.8068 1131L62.4809 1134.61ZM78.1946 1176.05C81.7485 1185.64 85.1174 1194.89 88.311 1203.81L97.7267 1200.45C94.5196 1191.48 91.1375 1182.2 87.5709 1172.58L78.1946 1176.05ZM98.0579 1231.64C101.385 1241.36 104.483 1250.66 107.368 1259.57L116.881 1256.49C113.978 1247.53 110.863 1238.17 107.519 1228.41L98.0579 1231.64ZM116.166 1287.68C119.17 1297.65 121.875 1307.07 124.313 1315.98L133.959 1313.35C131.497 1304.34 128.768 1294.84 125.74 1284.79L116.166 1287.68ZM131.59 1344.38C134.035 1354.66 136.078 1364.18 137.785 1373.07L147.605 1371.18C145.869 1362.15 143.796 1352.48 141.319 1342.07L131.59 1344.38ZM142.526 1401.98C143.938 1412.54 144.845 1422.12 145.43 1431.04L155.408 1430.39C154.81 1421.25 153.881 1411.45 152.438 1400.66L142.526 1401.98ZM146.441 1460.28C146.487 1465.27 146.487 1470.14 146.487 1475H156.487C156.487 1470.14 156.487 1465.23 156.441 1460.19L146.441 1460.28Z" fill="#FF2521"/>
</svg>
